<svg width="82" height="26" viewBox="0 0 82 26" fill="none" xmlns="http://www.w3.org/2000/svg">
<path d="M4.32165 13.7811C4.57781 13.9158 4.86456 13.9863 5.15592 13.9863C5.44728 13.9863 5.73403 13.9158 5.99019 13.7811C6.79356 13.1716 7.73082 11.8128 8.85348 10.9935C9.10443 10.8005 9.38624 10.6486 9.68775 10.5439L9.10067 13.0417C9.08715 13.0859 9.08302 13.1323 9.08855 13.178C9.09408 13.2238 9.10914 13.268 9.13282 13.3079C9.1565 13.3478 9.18831 13.3827 9.22631 13.4103C9.26431 13.4379 9.3077 13.4578 9.35385 13.4686C9.40001 13.4795 9.44795 13.4811 9.49478 13.4734C9.5416 13.4658 9.58632 13.4489 9.62623 13.4239C9.66613 13.399 9.70038 13.3664 9.72689 13.3281C9.7534 13.2899 9.77162 13.2469 9.78045 13.2016L10.5632 10.2042C10.5773 10.1491 10.5781 10.0916 10.5656 10.0361C10.5531 9.9807 10.5276 9.92879 10.4911 9.88444C10.4544 9.83945 10.4073 9.80338 10.3537 9.7791C10.3 9.75482 10.2413 9.743 10.1821 9.74456C9.52996 9.77633 8.90392 10.0032 8.39 10.394C7.25704 11.1633 6.23738 12.4922 5.46491 13.0417C5.27951 13.1716 4.97053 13.0417 4.70273 12.9618C4.43494 12.8819 4.17745 12.722 4.18775 12.5222C4.2177 11.942 4.40609 11.3799 4.73363 10.8936C5.26435 10.1109 5.91365 9.41027 6.65966 8.81535C7.35996 8.2008 8.21105 7.77079 9.13157 7.56642C10.0819 7.40168 11.0548 7.40168 12.0052 7.56642C12.925 7.77697 13.8571 7.93378 14.7964 8.03602C15.4824 8.12125 16.1781 8.09762 16.8563 7.96608C17.6142 7.86307 18.3573 7.67532 19.0707 7.40656C19.8132 7.08975 20.4823 6.631 21.0379 6.05771C21.4499 5.63807 21.7898 4.98862 22.2121 4.549C22.287 4.44674 22.3883 4.36527 22.5057 4.31269C22.6231 4.26011 22.7527 4.23824 22.8816 4.24925C23.218 4.27527 23.5313 4.42546 23.757 4.6689C23.9583 4.96283 24.0357 5.32042 23.9733 5.66804C23.8943 6.24682 23.6519 6.79315 23.273 7.24669C22.6371 8.01561 21.8874 8.689 21.0482 9.24499C20.4575 9.60971 19.8205 9.89854 19.1531 10.1043C18.524 10.3457 17.852 10.4645 17.1756 10.454C17.0005 10.454 16.6915 10.6138 16.4443 11.0235C16.0438 11.7459 15.7294 12.5101 15.507 13.3015C15.4877 13.3783 15.4993 13.4593 15.5395 13.528C15.5797 13.5968 15.6455 13.648 15.7233 13.6712C15.7612 13.6833 15.8012 13.6877 15.8409 13.6841C15.8806 13.6805 15.919 13.6689 15.9539 13.6501C15.9887 13.6313 16.0192 13.6058 16.0433 13.575C16.0674 13.5442 16.0847 13.509 16.0941 13.4714C16.3227 12.6585 16.6695 11.8813 17.1241 11.1633C17.8661 11.1772 18.605 11.0656 19.3076 10.8336C20.031 10.6116 20.723 10.3028 21.3675 9.91441C22.3334 9.34148 23.2019 8.62696 23.9424 7.79622C24.47 7.23557 24.8266 6.54374 24.9724 5.79793C25.063 5.22601 24.9308 4.64185 24.6016 4.15933C24.4192 3.92497 24.1904 3.72826 23.9287 3.58072C23.6669 3.43318 23.3775 3.33776 23.0773 3.30007C22.8451 3.25919 22.6066 3.26655 22.3776 3.32166C22.1485 3.37678 21.9342 3.47839 21.7486 3.61979C21.1846 4.14807 20.6614 4.71577 20.1831 5.31834C19.7253 5.77843 19.1749 6.14232 18.566 6.38743C18.0219 6.60364 17.4503 6.74814 16.8666 6.81706C17.4227 6.43004 17.8273 5.87165 18.0144 5.23296C18.2014 4.59426 18.1599 3.91293 17.8966 3.30007C17.6598 2.77789 17.3073 2.31283 16.8639 1.93805C16.4206 1.56327 15.8975 1.28802 15.3319 1.13192C14.9211 1.03342 14.4984 0.989723 14.0754 1.00203C13.6597 1.0247 13.2483 1.09513 12.8497 1.21185C12.3244 1.36896 11.8517 1.6592 11.4806 2.05262C11.1094 2.44604 10.8532 2.9284 10.7383 3.44994C10.6377 3.95301 10.6519 4.47135 10.7801 4.96851C10.9082 5.46566 11.1471 5.92953 11.4799 6.32748L11.552 6.39742C10.6535 6.28325 9.74177 6.31363 8.85348 6.48734C7.76714 6.73818 6.7664 7.258 5.94899 7.99605C5.14042 8.67364 4.44547 9.46915 3.88906 10.354C3.49059 10.9945 3.27054 11.7244 3.25049 12.4722C3.29048 12.7639 3.4112 13.0396 3.59981 13.2701C3.78842 13.5006 4.03787 13.6772 4.32165 13.7811ZM11.8816 3.69972C11.9534 3.37172 12.1131 3.06788 12.3446 2.81881C12.576 2.56973 12.871 2.38421 13.1999 2.28094C13.5082 2.18611 13.8257 2.12249 14.1475 2.0911C14.4585 2.05107 14.7737 2.05107 15.0848 2.0911C15.5305 2.16004 15.9518 2.33475 16.3112 2.5997C16.6705 2.86465 16.9569 3.21163 17.1447 3.6098C17.9995 5.99776 14.1784 8.22586 12.3142 5.69802C12.0949 5.41635 11.9424 5.09119 11.8677 4.74577C11.7929 4.40034 11.7976 4.04316 11.8816 3.69972Z" fill="#040E07" stroke="#040E07" stroke-width="0.3"/>
<path d="M17.0918 18.7167C17.3397 19.6398 17.4609 20.5905 17.4523 21.5443C17.4663 22.2564 17.2964 22.9605 16.9579 23.5926C16.8669 23.7379 16.7324 23.8531 16.5724 23.9227C16.4124 23.9922 16.2343 24.013 16.0619 23.9822C15.8127 23.9644 15.5723 23.8853 15.3632 23.7524C15.1542 23.6196 14.9835 23.4374 14.8671 23.2229C14.5742 22.3559 14.3976 21.4559 14.3418 20.5452C14.222 19.8961 13.9148 19.2932 13.4561 18.8066C13.2688 18.6202 13.0444 18.4727 12.7965 18.373C12.5486 18.2734 12.2824 18.2238 12.0141 18.2271C11.4309 18.2334 10.8621 18.4034 10.3765 18.7167C9.74241 19.1538 9.19172 19.6948 8.74913 20.3154C8.11507 21.094 7.26974 21.6857 6.30812 22.0239C5.35672 22.3786 4.30354 22.3786 3.35213 22.0239C3.15726 21.9209 2.99261 21.7714 2.87369 21.5896C2.75477 21.4078 2.68548 21.1997 2.67236 20.9848C2.63759 20.8845 2.62424 20.7784 2.63312 20.6729C2.642 20.5675 2.67292 20.4649 2.72399 20.3714C2.77506 20.2779 2.84522 20.1955 2.9302 20.1292C3.01517 20.0629 3.11317 20.014 3.21824 19.9856C3.9664 19.8329 4.69029 19.5842 5.37086 19.2463C6.04444 18.9246 6.66004 18.4995 7.19389 17.9873C7.2505 17.9313 7.28222 17.856 7.28222 17.7775C7.28222 17.6991 7.2505 17.6237 7.19389 17.5677C7.16599 17.5393 7.13244 17.5167 7.09526 17.5012C7.05808 17.4857 7.01805 17.4778 6.9776 17.4778C6.93715 17.4778 6.89712 17.4857 6.85994 17.5012C6.82276 17.5167 6.7892 17.5393 6.76131 17.5677C6.25871 18.0294 5.68104 18.4075 5.05157 18.6867C4.41121 18.9689 3.73625 19.1704 3.04314 19.2862C2.63925 19.3661 2.28328 19.5954 2.05066 19.9255C1.81803 20.2556 1.72701 20.6606 1.79689 21.0547C1.80806 21.4346 1.9201 21.8053 2.12219 22.1308C2.32428 22.4564 2.60956 22.7258 2.95045 22.9131C4.1098 23.3976 5.41403 23.4439 6.60681 23.043C7.78326 22.6649 8.82575 21.9722 9.6143 21.0447C9.96814 20.5294 10.4065 20.0738 10.9121 19.6959C11.2182 19.5001 11.5754 19.3927 11.942 19.3861C12.0858 19.3894 12.2265 19.4267 12.3521 19.4945C12.4778 19.5624 12.5844 19.659 12.663 19.7758C12.8867 20.0732 13.0413 20.4141 13.1162 20.775C13.2193 21.7833 13.4583 22.7743 13.8268 23.7224C14.0249 24.0901 14.3199 24.4003 14.6818 24.6214C15.0436 24.8426 15.4594 24.9668 15.8868 24.9814C16.2507 25.0334 16.6222 24.9749 16.9505 24.8139C17.2787 24.6529 17.5476 24.3973 17.7201 24.0821C18.1155 23.2962 18.3064 22.4283 18.2763 21.5543C18.2437 20.5381 18.0741 19.5303 17.7716 18.5569C17.6503 18.2034 17.4805 17.8673 17.2669 17.5577C17.0918 17.218 16.237 17.268 16.4121 17.5577C16.713 17.8983 16.9437 18.2918 17.0918 18.7167Z" fill="#040E07" stroke="#040E07" stroke-width="0.3"/>
<path d="M23.7058 13.1816C23.6147 13.1842 23.5282 13.2211 23.4648 13.2845C23.4013 13.348 23.3658 13.4329 23.3659 13.5213C23.3935 13.958 23.3047 14.3942 23.108 14.788C22.9114 15.1817 22.6136 15.5197 22.2432 15.7694C21.4042 16.2062 20.4524 16.3972 19.5035 16.3189C18.0352 16.2601 16.5745 16.083 15.1365 15.7894C13.6533 15.5396 12.1599 15.2598 10.6665 15.1499C9.34285 15.0316 8.0088 15.0887 6.7011 15.3198C5.89773 15.4696 4.64117 15.7394 3.41552 16.0391C2.62245 16.239 1.84998 16.4488 1.2423 16.6486C1.20049 16.6577 1.16107 16.675 1.12655 16.6996C1.09203 16.7242 1.06316 16.7555 1.04177 16.7915C1.02038 16.8275 1.00694 16.8674 1.00231 16.9087C0.997667 16.95 1.00193 16.9918 1.01483 17.0315C1.02773 17.0711 1.04898 17.1077 1.07723 17.1389C1.10548 17.1701 1.14012 17.1953 1.17894 17.2129C1.21776 17.2304 1.25992 17.24 1.30275 17.2409C1.34557 17.2418 1.38812 17.234 1.42769 17.2181C2.02507 17.0483 2.78724 16.8884 3.58031 16.7385C4.78537 16.5087 6.05222 16.3189 6.85559 16.219C8.08706 16.0746 9.33198 16.0746 10.5635 16.219C12.0157 16.3788 13.3959 16.6286 14.8687 16.8085C16.402 17.0555 17.9502 17.2056 19.5035 17.2581C20.6317 17.3054 21.7472 17.0122 22.6964 16.4188C23.1785 16.0964 23.5633 15.6553 23.8113 15.1407C24.0593 14.6262 24.1615 14.0569 24.1075 13.4913C24.1038 13.4447 24.0902 13.3994 24.0676 13.3581C24.045 13.3169 24.0139 13.2806 23.9762 13.2515C23.9385 13.2224 23.895 13.2012 23.8485 13.1892C23.802 13.1772 23.7534 13.1746 23.7058 13.1816Z" fill="#33D16D"/>
<path d="M23.7058 13.1816C23.6147 13.1842 23.5282 13.2211 23.4648 13.2845C23.4013 13.348 23.3658 13.4329 23.3659 13.5213C23.3935 13.958 23.3047 14.3942 23.108 14.788C22.9114 15.1817 22.6136 15.5197 22.2432 15.7694C21.4042 16.2062 20.4524 16.3972 19.5035 16.3189C18.0352 16.2601 16.5745 16.083 15.1365 15.7894C13.6533 15.5396 12.1599 15.2598 10.6665 15.1499C9.34285 15.0316 8.0088 15.0887 6.7011 15.3198C5.89773 15.4696 4.64117 15.7394 3.41552 16.0391C2.62245 16.239 1.84998 16.4488 1.2423 16.6486C1.20049 16.6577 1.16107 16.675 1.12655 16.6996C1.09203 16.7242 1.06316 16.7555 1.04177 16.7915C1.02038 16.8275 1.00694 16.8674 1.00231 16.9087C0.997667 16.95 1.00193 16.9918 1.01483 17.0315C1.02773 17.0711 1.04898 17.1077 1.07723 17.1389C1.10548 17.1701 1.14012 17.1953 1.17894 17.2129C1.21776 17.2304 1.25992 17.24 1.30275 17.2409C1.34557 17.2418 1.38812 17.234 1.42769 17.2181C2.02507 17.0483 2.78724 16.8884 3.58031 16.7385C4.78537 16.5087 6.05222 16.3189 6.85559 16.219C8.08706 16.0746 9.33198 16.0746 10.5635 16.219C12.0157 16.3788 13.3959 16.6286 14.8687 16.8085C16.402 17.0555 17.9502 17.2056 19.5035 17.2581C20.6317 17.3054 21.7472 17.0122 22.6964 16.4188C23.1785 16.0964 23.5633 15.6553 23.8113 15.1407C24.0593 14.6262 24.1615 14.0569 24.1075 13.4913C24.1038 13.4447 24.0902 13.3994 24.0676 13.3581C24.045 13.3169 24.0139 13.2806 23.9762 13.2515C23.9385 13.2224 23.895 13.2012 23.8485 13.1892C23.802 13.1772 23.7534 13.1746 23.7058 13.1816Z" fill="#A9D953"/>
<path d="M23.7058 13.1816C23.6147 13.1842 23.5282 13.2211 23.4648 13.2845C23.4013 13.348 23.3658 13.4329 23.3659 13.5213C23.3935 13.958 23.3047 14.3942 23.108 14.788C22.9114 15.1817 22.6136 15.5197 22.2432 15.7694C21.4042 16.2062 20.4524 16.3972 19.5035 16.3189C18.0352 16.2601 16.5745 16.083 15.1365 15.7894C13.6533 15.5396 12.1599 15.2598 10.6665 15.1499C9.34285 15.0316 8.0088 15.0887 6.7011 15.3198C5.89773 15.4696 4.64117 15.7394 3.41552 16.0391C2.62245 16.239 1.84998 16.4488 1.2423 16.6486C1.20049 16.6577 1.16107 16.675 1.12655 16.6996C1.09203 16.7242 1.06316 16.7555 1.04177 16.7915C1.02038 16.8275 1.00694 16.8674 1.00231 16.9087C0.997667 16.95 1.00193 16.9918 1.01483 17.0315C1.02773 17.0711 1.04898 17.1077 1.07723 17.1389C1.10548 17.1701 1.14012 17.1953 1.17894 17.2129C1.21776 17.2304 1.25992 17.24 1.30275 17.2409C1.34557 17.2418 1.38812 17.234 1.42769 17.2181C2.02507 17.0483 2.78724 16.8884 3.58031 16.7385C4.78537 16.5087 6.05222 16.3189 6.85559 16.219C8.08706 16.0746 9.33198 16.0746 10.5635 16.219C12.0157 16.3788 13.3959 16.6286 14.8687 16.8085C16.402 17.0555 17.9502 17.2056 19.5035 17.2581C20.6317 17.3054 21.7472 17.0122 22.6964 16.4188C23.1785 16.0964 23.5633 15.6553 23.8113 15.1407C24.0593 14.6262 24.1615 14.0569 24.1075 13.4913C24.1038 13.4447 24.0902 13.3994 24.0676 13.3581C24.045 13.3169 24.0139 13.2806 23.9762 13.2515C23.9385 13.2224 23.895 13.2012 23.8485 13.1892C23.802 13.1772 23.7534 13.1746 23.7058 13.1816Z" stroke="#33D16D" stroke-width="0.3"/>
<path d="M23.7058 13.1816C23.6147 13.1842 23.5282 13.2211 23.4648 13.2845C23.4013 13.348 23.3658 13.4329 23.3659 13.5213C23.3935 13.958 23.3047 14.3942 23.108 14.788C22.9114 15.1817 22.6136 15.5197 22.2432 15.7694C21.4042 16.2062 20.4524 16.3972 19.5035 16.3189C18.0352 16.2601 16.5745 16.083 15.1365 15.7894C13.6533 15.5396 12.1599 15.2598 10.6665 15.1499C9.34285 15.0316 8.0088 15.0887 6.7011 15.3198C5.89773 15.4696 4.64117 15.7394 3.41552 16.0391C2.62245 16.239 1.84998 16.4488 1.2423 16.6486C1.20049 16.6577 1.16107 16.675 1.12655 16.6996C1.09203 16.7242 1.06316 16.7555 1.04177 16.7915C1.02038 16.8275 1.00694 16.8674 1.00231 16.9087C0.997667 16.95 1.00193 16.9918 1.01483 17.0315C1.02773 17.0711 1.04898 17.1077 1.07723 17.1389C1.10548 17.1701 1.14012 17.1953 1.17894 17.2129C1.21776 17.2304 1.25992 17.24 1.30275 17.2409C1.34557 17.2418 1.38812 17.234 1.42769 17.2181C2.02507 17.0483 2.78724 16.8884 3.58031 16.7385C4.78537 16.5087 6.05222 16.3189 6.85559 16.219C8.08706 16.0746 9.33198 16.0746 10.5635 16.219C12.0157 16.3788 13.3959 16.6286 14.8687 16.8085C16.402 17.0555 17.9502 17.2056 19.5035 17.2581C20.6317 17.3054 21.7472 17.0122 22.6964 16.4188C23.1785 16.0964 23.5633 15.6553 23.8113 15.1407C24.0593 14.6262 24.1615 14.0569 24.1075 13.4913C24.1038 13.4447 24.0902 13.3994 24.0676 13.3581C24.045 13.3169 24.0139 13.2806 23.9762 13.2515C23.9385 13.2224 23.895 13.2012 23.8485 13.1892C23.802 13.1772 23.7534 13.1746 23.7058 13.1816Z" stroke="#A9D953" stroke-width="0.3"/>
<path d="M32.3216 13.7811C32.5778 13.9158 32.8646 13.9863 33.1559 13.9863C33.4473 13.9863 33.734 13.9158 33.9902 13.7811C34.7936 13.1716 35.7308 11.8128 36.8535 10.9935C37.1044 10.8005 37.3862 10.6486 37.6878 10.5439L37.1007 13.0417C37.0871 13.0859 37.083 13.1323 37.0885 13.178C37.0941 13.2238 37.1091 13.268 37.1328 13.3079C37.1565 13.3478 37.1883 13.3827 37.2263 13.4103C37.2643 13.4379 37.3077 13.4578 37.3539 13.4686C37.4 13.4795 37.448 13.4811 37.4948 13.4734C37.5416 13.4658 37.5863 13.4489 37.6262 13.4239C37.6661 13.399 37.7004 13.3664 37.7269 13.3281C37.7534 13.2899 37.7716 13.2469 37.7804 13.2016L38.5632 10.2042C38.5773 10.1491 38.5781 10.0916 38.5656 10.0361C38.5531 9.9807 38.5276 9.92879 38.4911 9.88444C38.4544 9.83945 38.4073 9.80338 38.3537 9.7791C38.3 9.75482 38.2413 9.743 38.1821 9.74456C37.53 9.77633 36.9039 10.0032 36.39 10.394C35.257 11.1633 34.2374 12.4922 33.4649 13.0417C33.2795 13.1716 32.9705 13.0417 32.7027 12.9618C32.4349 12.8819 32.1775 12.722 32.1878 12.5222C32.2177 11.942 32.4061 11.3799 32.7336 10.8936C33.2643 10.1109 33.9137 9.41027 34.6597 8.81535C35.36 8.2008 36.2111 7.77079 37.1316 7.56642C38.0819 7.40168 39.0548 7.40168 40.0052 7.56642C40.925 7.77697 41.8571 7.93378 42.7964 8.03602C43.4824 8.12125 44.1781 8.09762 44.8563 7.96608C45.6142 7.86307 46.3573 7.67532 47.0707 7.40656C47.8132 7.08975 48.4823 6.631 49.0379 6.05771C49.4499 5.63807 49.7898 4.98862 50.2121 4.549C50.287 4.44674 50.3883 4.36527 50.5057 4.31269C50.6231 4.26011 50.7527 4.23824 50.8816 4.24925C51.218 4.27527 51.5313 4.42546 51.757 4.6689C51.9583 4.96283 52.0357 5.32042 51.9733 5.66804C51.8943 6.24682 51.6519 6.79315 51.273 7.24669C50.6371 8.01561 49.8874 8.689 49.0482 9.24499C48.4575 9.60971 47.8205 9.89854 47.1531 10.1043C46.524 10.3457 45.852 10.4645 45.1756 10.454C45.0005 10.454 44.6915 10.6138 44.4443 11.0235C44.0438 11.7459 43.7294 12.5101 43.507 13.3015C43.4877 13.3783 43.4993 13.4593 43.5395 13.528C43.5797 13.5968 43.6455 13.648 43.7233 13.6712C43.7612 13.6833 43.8012 13.6877 43.8409 13.6841C43.8806 13.6805 43.919 13.6689 43.9539 13.6501C43.9887 13.6313 44.0192 13.6058 44.0433 13.575C44.0674 13.5442 44.0847 13.509 44.0941 13.4714C44.3227 12.6585 44.6695 11.8813 45.1241 11.1633C45.8661 11.1772 46.605 11.0656 47.3076 10.8336C48.031 10.6116 48.723 10.3028 49.3675 9.91441C50.3334 9.34148 51.2019 8.62696 51.9424 7.79622C52.47 7.23557 52.8266 6.54374 52.9724 5.79793C53.063 5.22601 52.9308 4.64185 52.6016 4.15933C52.4192 3.92497 52.1904 3.72826 51.9287 3.58072C51.6669 3.43318 51.3775 3.33776 51.0773 3.30007C50.8451 3.25919 50.6066 3.26655 50.3776 3.32166C50.1485 3.37678 49.9342 3.47839 49.7486 3.61979C49.1846 4.14807 48.6614 4.71577 48.1831 5.31834C47.7253 5.77843 47.1749 6.14232 46.566 6.38743C46.0219 6.60364 45.4503 6.74814 44.8666 6.81706C45.4227 6.43004 45.8273 5.87165 46.0144 5.23296C46.2014 4.59426 46.1599 3.91293 45.8966 3.30007C45.6598 2.77789 45.3073 2.31283 44.8639 1.93805C44.4206 1.56327 43.8975 1.28802 43.3319 1.13192C42.9211 1.03342 42.4984 0.989723 42.0754 1.00203C41.6597 1.0247 41.2483 1.09513 40.8497 1.21185C40.3244 1.36896 39.8517 1.6592 39.4806 2.05262C39.1094 2.44604 38.8532 2.9284 38.7383 3.44994C38.6377 3.95301 38.6519 4.47135 38.7801 4.96851C38.9082 5.46566 39.1471 5.92953 39.4799 6.32748L39.552 6.39742C38.6535 6.28325 37.7418 6.31363 36.8535 6.48734C35.7671 6.73818 34.7664 7.258 33.949 7.99605C33.1404 8.67364 32.4455 9.46915 31.8891 10.354C31.4906 10.9945 31.2705 11.7244 31.2505 12.4722C31.2905 12.7639 31.4112 13.0396 31.5998 13.2701C31.7884 13.5006 32.0379 13.6772 32.3216 13.7811ZM39.8816 3.69972C39.9534 3.37172 40.1131 3.06788 40.3446 2.81881C40.576 2.56973 40.871 2.38421 41.1999 2.28094C41.5082 2.18611 41.8257 2.12249 42.1475 2.0911C42.4585 2.05107 42.7737 2.05107 43.0848 2.0911C43.5305 2.16004 43.9518 2.33475 44.3112 2.5997C44.6705 2.86465 44.9569 3.21163 45.1447 3.6098C45.9995 5.99776 42.1784 8.22586 40.3142 5.69802C40.0949 5.41635 39.9424 5.09119 39.8677 4.74577C39.7929 4.40034 39.7976 4.04316 39.8816 3.69972Z" fill="#040E07" stroke="#040E07" stroke-width="0.3"/>
<path d="M45.0918 18.7167C45.3397 19.6398 45.4609 20.5905 45.4523 21.5443C45.4663 22.2564 45.2964 22.9605 44.9579 23.5926C44.8669 23.7379 44.7324 23.8531 44.5724 23.9227C44.4124 23.9922 44.2343 24.013 44.0619 23.9822C43.8127 23.9644 43.5723 23.8853 43.3632 23.7524C43.1542 23.6196 42.9835 23.4374 42.8671 23.2229C42.5742 22.3559 42.3976 21.4559 42.3418 20.5452C42.222 19.8961 41.9148 19.2932 41.4561 18.8066C41.2688 18.6202 41.0444 18.4727 40.7965 18.373C40.5486 18.2734 40.2824 18.2238 40.0141 18.2271C39.4309 18.2334 38.8621 18.4034 38.3765 18.7167C37.7424 19.1538 37.1917 19.6948 36.7491 20.3154C36.1151 21.094 35.2697 21.6857 34.3081 22.0239C33.3567 22.3786 32.3035 22.3786 31.3521 22.0239C31.1573 21.9209 30.9926 21.7714 30.8737 21.5896C30.7548 21.4078 30.6855 21.1997 30.6724 20.9848C30.6376 20.8845 30.6242 20.7784 30.6331 20.6729C30.642 20.5675 30.6729 20.4649 30.724 20.3714C30.7751 20.2779 30.8452 20.1955 30.9302 20.1292C31.0152 20.0629 31.1132 20.014 31.2182 19.9856C31.9664 19.8329 32.6903 19.5842 33.3709 19.2463C34.0444 18.9246 34.66 18.4995 35.1939 17.9873C35.2505 17.9313 35.2822 17.856 35.2822 17.7775C35.2822 17.6991 35.2505 17.6237 35.1939 17.5677C35.166 17.5393 35.1324 17.5167 35.0953 17.5012C35.0581 17.4857 35.018 17.4778 34.9776 17.4778C34.9371 17.4778 34.8971 17.4857 34.8599 17.5012C34.8228 17.5167 34.7892 17.5393 34.7613 17.5677C34.2587 18.0294 33.681 18.4075 33.0516 18.6867C32.4112 18.9689 31.7362 19.1704 31.0431 19.2862C30.6392 19.3661 30.2833 19.5954 30.0507 19.9255C29.818 20.2556 29.727 20.6606 29.7969 21.0547C29.8081 21.4346 29.9201 21.8053 30.1222 22.1308C30.3243 22.4564 30.6096 22.7258 30.9504 22.9131C32.1098 23.3976 33.414 23.4439 34.6068 23.043C35.7833 22.6649 36.8257 21.9722 37.6143 21.0447C37.9681 20.5294 38.4065 20.0738 38.9121 19.6959C39.2182 19.5001 39.5754 19.3927 39.942 19.3861C40.0858 19.3894 40.2265 19.4267 40.3521 19.4945C40.4778 19.5624 40.5844 19.659 40.663 19.7758C40.8867 20.0732 41.0413 20.4141 41.1162 20.775C41.2193 21.7833 41.4583 22.7743 41.8268 23.7224C42.0249 24.0901 42.3199 24.4003 42.6818 24.6214C43.0436 24.8426 43.4594 24.9668 43.8868 24.9814C44.2507 25.0334 44.6222 24.9749 44.9505 24.8139C45.2787 24.6529 45.5476 24.3973 45.7201 24.0821C46.1155 23.2962 46.3064 22.4283 46.2763 21.5543C46.2437 20.5381 46.0741 19.5303 45.7716 18.5569C45.6503 18.2034 45.4805 17.8673 45.2669 17.5577C45.0918 17.218 44.237 17.268 44.4121 17.5577C44.713 17.8983 44.9437 18.2918 45.0918 18.7167Z" fill="#040E07" stroke="#040E07" stroke-width="0.3"/>
<path d="M51.7058 13.1816C51.6147 13.1842 51.5282 13.2211 51.4648 13.2845C51.4013 13.348 51.3658 13.4329 51.3659 13.5213C51.3935 13.958 51.3047 14.3942 51.108 14.788C50.9114 15.1817 50.6136 15.5197 50.2432 15.7694C49.4042 16.2062 48.4524 16.3972 47.5035 16.3189C46.0352 16.2601 44.5745 16.083 43.1365 15.7894C41.6533 15.5396 40.1599 15.2598 38.6665 15.1499C37.3428 15.0316 36.0088 15.0887 34.7011 15.3198C33.8977 15.4696 32.6412 15.7394 31.4155 16.0391C30.6224 16.239 29.85 16.4488 29.2423 16.6486C29.2005 16.6577 29.1611 16.675 29.1266 16.6996C29.092 16.7242 29.0632 16.7555 29.0418 16.7915C29.0204 16.8275 29.0069 16.8674 29.0023 16.9087C28.9977 16.95 29.0019 16.9918 29.0148 17.0315C29.0277 17.0711 29.049 17.1077 29.0772 17.1389C29.1055 17.1701 29.1401 17.1953 29.1789 17.2129C29.2178 17.2304 29.2599 17.24 29.3027 17.2409C29.3456 17.2418 29.3881 17.234 29.4277 17.2181C30.0251 17.0483 30.7872 16.8884 31.5803 16.7385C32.7854 16.5087 34.0522 16.3189 34.8556 16.219C36.0871 16.0746 37.332 16.0746 38.5635 16.219C40.0157 16.3788 41.3959 16.6286 42.8687 16.8085C44.402 17.0555 45.9502 17.2056 47.5035 17.2581C48.6317 17.3054 49.7472 17.0122 50.6964 16.4188C51.1785 16.0964 51.5633 15.6553 51.8113 15.1407C52.0593 14.6262 52.1615 14.0569 52.1075 13.4913C52.1038 13.4447 52.0902 13.3994 52.0676 13.3581C52.045 13.3169 52.0139 13.2806 51.9762 13.2515C51.9385 13.2224 51.895 13.2012 51.8485 13.1892C51.802 13.1772 51.7534 13.1746 51.7058 13.1816Z" fill="#33D16D"/>
<path d="M51.7058 13.1816C51.6147 13.1842 51.5282 13.2211 51.4648 13.2845C51.4013 13.348 51.3658 13.4329 51.3659 13.5213C51.3935 13.958 51.3047 14.3942 51.108 14.788C50.9114 15.1817 50.6136 15.5197 50.2432 15.7694C49.4042 16.2062 48.4524 16.3972 47.5035 16.3189C46.0352 16.2601 44.5745 16.083 43.1365 15.7894C41.6533 15.5396 40.1599 15.2598 38.6665 15.1499C37.3428 15.0316 36.0088 15.0887 34.7011 15.3198C33.8977 15.4696 32.6412 15.7394 31.4155 16.0391C30.6224 16.239 29.85 16.4488 29.2423 16.6486C29.2005 16.6577 29.1611 16.675 29.1266 16.6996C29.092 16.7242 29.0632 16.7555 29.0418 16.7915C29.0204 16.8275 29.0069 16.8674 29.0023 16.9087C28.9977 16.95 29.0019 16.9918 29.0148 17.0315C29.0277 17.0711 29.049 17.1077 29.0772 17.1389C29.1055 17.1701 29.1401 17.1953 29.1789 17.2129C29.2178 17.2304 29.2599 17.24 29.3027 17.2409C29.3456 17.2418 29.3881 17.234 29.4277 17.2181C30.0251 17.0483 30.7872 16.8884 31.5803 16.7385C32.7854 16.5087 34.0522 16.3189 34.8556 16.219C36.0871 16.0746 37.332 16.0746 38.5635 16.219C40.0157 16.3788 41.3959 16.6286 42.8687 16.8085C44.402 17.0555 45.9502 17.2056 47.5035 17.2581C48.6317 17.3054 49.7472 17.0122 50.6964 16.4188C51.1785 16.0964 51.5633 15.6553 51.8113 15.1407C52.0593 14.6262 52.1615 14.0569 52.1075 13.4913C52.1038 13.4447 52.0902 13.3994 52.0676 13.3581C52.045 13.3169 52.0139 13.2806 51.9762 13.2515C51.9385 13.2224 51.895 13.2012 51.8485 13.1892C51.802 13.1772 51.7534 13.1746 51.7058 13.1816Z" fill="#A9D953"/>
<path d="M51.7058 13.1816C51.6147 13.1842 51.5282 13.2211 51.4648 13.2845C51.4013 13.348 51.3658 13.4329 51.3659 13.5213C51.3935 13.958 51.3047 14.3942 51.108 14.788C50.9114 15.1817 50.6136 15.5197 50.2432 15.7694C49.4042 16.2062 48.4524 16.3972 47.5035 16.3189C46.0352 16.2601 44.5745 16.083 43.1365 15.7894C41.6533 15.5396 40.1599 15.2598 38.6665 15.1499C37.3428 15.0316 36.0088 15.0887 34.7011 15.3198C33.8977 15.4696 32.6412 15.7394 31.4155 16.0391C30.6224 16.239 29.85 16.4488 29.2423 16.6486C29.2005 16.6577 29.1611 16.675 29.1266 16.6996C29.092 16.7242 29.0632 16.7555 29.0418 16.7915C29.0204 16.8275 29.0069 16.8674 29.0023 16.9087C28.9977 16.95 29.0019 16.9918 29.0148 17.0315C29.0277 17.0711 29.049 17.1077 29.0772 17.1389C29.1055 17.1701 29.1401 17.1953 29.1789 17.2129C29.2178 17.2304 29.2599 17.24 29.3027 17.2409C29.3456 17.2418 29.3881 17.234 29.4277 17.2181C30.0251 17.0483 30.7872 16.8884 31.5803 16.7385C32.7854 16.5087 34.0522 16.3189 34.8556 16.219C36.0871 16.0746 37.332 16.0746 38.5635 16.219C40.0157 16.3788 41.3959 16.6286 42.8687 16.8085C44.402 17.0555 45.9502 17.2056 47.5035 17.2581C48.6317 17.3054 49.7472 17.0122 50.6964 16.4188C51.1785 16.0964 51.5633 15.6553 51.8113 15.1407C52.0593 14.6262 52.1615 14.0569 52.1075 13.4913C52.1038 13.4447 52.0902 13.3994 52.0676 13.3581C52.045 13.3169 52.0139 13.2806 51.9762 13.2515C51.9385 13.2224 51.895 13.2012 51.8485 13.1892C51.802 13.1772 51.7534 13.1746 51.7058 13.1816Z" stroke="#33D16D" stroke-width="0.3"/>
<path d="M51.7058 13.1816C51.6147 13.1842 51.5282 13.2211 51.4648 13.2845C51.4013 13.348 51.3658 13.4329 51.3659 13.5213C51.3935 13.958 51.3047 14.3942 51.108 14.788C50.9114 15.1817 50.6136 15.5197 50.2432 15.7694C49.4042 16.2062 48.4524 16.3972 47.5035 16.3189C46.0352 16.2601 44.5745 16.083 43.1365 15.7894C41.6533 15.5396 40.1599 15.2598 38.6665 15.1499C37.3428 15.0316 36.0088 15.0887 34.7011 15.3198C33.8977 15.4696 32.6412 15.7394 31.4155 16.0391C30.6224 16.239 29.85 16.4488 29.2423 16.6486C29.2005 16.6577 29.1611 16.675 29.1266 16.6996C29.092 16.7242 29.0632 16.7555 29.0418 16.7915C29.0204 16.8275 29.0069 16.8674 29.0023 16.9087C28.9977 16.95 29.0019 16.9918 29.0148 17.0315C29.0277 17.0711 29.049 17.1077 29.0772 17.1389C29.1055 17.1701 29.1401 17.1953 29.1789 17.2129C29.2178 17.2304 29.2599 17.24 29.3027 17.2409C29.3456 17.2418 29.3881 17.234 29.4277 17.2181C30.0251 17.0483 30.7872 16.8884 31.5803 16.7385C32.7854 16.5087 34.0522 16.3189 34.8556 16.219C36.0871 16.0746 37.332 16.0746 38.5635 16.219C40.0157 16.3788 41.3959 16.6286 42.8687 16.8085C44.402 17.0555 45.9502 17.2056 47.5035 17.2581C48.6317 17.3054 49.7472 17.0122 50.6964 16.4188C51.1785 16.0964 51.5633 15.6553 51.8113 15.1407C52.0593 14.6262 52.1615 14.0569 52.1075 13.4913C52.1038 13.4447 52.0902 13.3994 52.0676 13.3581C52.045 13.3169 52.0139 13.2806 51.9762 13.2515C51.9385 13.2224 51.895 13.2012 51.8485 13.1892C51.802 13.1772 51.7534 13.1746 51.7058 13.1816Z" stroke="#A9D953" stroke-width="0.3"/>
<g opacity="0.2">
<path d="M60.3212 13.7811C60.5773 13.9158 60.8641 13.9863 61.1554 13.9863C61.4468 13.9863 61.7335 13.9158 61.9897 13.7811C62.7931 13.1716 63.7303 11.8128 64.853 10.9935C65.1039 10.8005 65.3858 10.6486 65.6873 10.5439L65.1002 13.0417C65.0867 13.0859 65.0825 13.1323 65.0881 13.178C65.0936 13.2238 65.1087 13.268 65.1323 13.3079C65.156 13.3478 65.1878 13.3827 65.2258 13.4103C65.2638 13.4379 65.3072 13.4578 65.3534 13.4686C65.3995 13.4795 65.4475 13.4811 65.4943 13.4734C65.5411 13.4658 65.5858 13.4489 65.6257 13.4239C65.6656 13.399 65.6999 13.3664 65.7264 13.3281C65.7529 13.2899 65.7711 13.2469 65.78 13.2016L66.5627 10.2042C66.5768 10.1491 66.5776 10.0916 66.5651 10.0361C66.5526 9.9807 66.5271 9.92879 66.4906 9.88444C66.4539 9.83945 66.4068 9.80338 66.3532 9.7791C66.2995 9.75482 66.2408 9.743 66.1816 9.74456C65.5295 9.77633 64.9034 10.0032 64.3895 10.394C63.2566 11.1633 62.2369 12.4922 61.4644 13.0417C61.279 13.1716 60.97 13.0417 60.7022 12.9618C60.4345 12.8819 60.177 12.722 60.1873 12.5222C60.2172 11.942 60.4056 11.3799 60.7331 10.8936C61.2639 10.1109 61.9132 9.41027 62.6592 8.81535C63.3595 8.2008 64.2106 7.77079 65.1311 7.56642C66.0814 7.40168 67.0543 7.40168 68.0047 7.56642C68.9246 7.77697 69.8566 7.93378 70.7959 8.03602C71.4819 8.12125 72.1776 8.09762 72.8558 7.96608C73.6137 7.86307 74.3568 7.67532 75.0702 7.40656C75.8127 7.08975 76.4818 6.631 77.0374 6.05771C77.4494 5.63807 77.7893 4.98862 78.2116 4.549C78.2866 4.44674 78.3878 4.36527 78.5052 4.31269C78.6227 4.26011 78.7522 4.23824 78.8811 4.24925C79.2175 4.27527 79.5309 4.42546 79.7565 4.6689C79.9578 4.96283 80.0352 5.32042 79.9728 5.66804C79.8938 6.24682 79.6514 6.79315 79.2725 7.24669C78.6366 8.01561 77.8869 8.689 77.0477 9.24499C76.457 9.60971 75.82 9.89854 75.1526 10.1043C74.5235 10.3457 73.8515 10.4645 73.1751 10.454C73 10.454 72.691 10.6138 72.4438 11.0235C72.0433 11.7459 71.7289 12.5101 71.5065 13.3015C71.4872 13.3783 71.4988 13.4593 71.539 13.528C71.5792 13.5968 71.645 13.648 71.7228 13.6712C71.7607 13.6833 71.8007 13.6877 71.8404 13.6841C71.8801 13.6805 71.9185 13.6689 71.9534 13.6501C71.9882 13.6313 72.0187 13.6058 72.0428 13.575C72.067 13.5442 72.0843 13.509 72.0936 13.4714C72.3222 12.6585 72.669 11.8813 73.1236 11.1633C73.8656 11.1772 74.6045 11.0656 75.3071 10.8336C76.0305 10.6116 76.7225 10.3028 77.367 9.91441C78.3329 9.34148 79.2015 8.62696 79.9419 7.79622C80.4695 7.23557 80.8261 6.54374 80.9719 5.79793C81.0625 5.22601 80.9303 4.64185 80.6011 4.15933C80.4187 3.92497 80.1899 3.72826 79.9282 3.58072C79.6664 3.43318 79.377 3.33776 79.0768 3.30007C78.8446 3.25919 78.6061 3.26655 78.3771 3.32166C78.1481 3.37678 77.9337 3.47839 77.7481 3.61979C77.1841 4.14807 76.6609 4.71577 76.1826 5.31834C75.7248 5.77843 75.1744 6.14232 74.5655 6.38743C74.0214 6.60364 73.4498 6.74814 72.8661 6.81706C73.4222 6.43004 73.8268 5.87165 74.0139 5.23296C74.2009 4.59426 74.1594 3.91293 73.8961 3.30007C73.6593 2.77789 73.3068 2.31283 72.8635 1.93805C72.4201 1.56327 71.897 1.28802 71.3315 1.13192C70.9206 1.03342 70.4979 0.989723 70.0749 1.00203C69.6592 1.0247 69.2478 1.09513 68.8492 1.21185C68.3239 1.36896 67.8512 1.6592 67.4801 2.05262C67.1089 2.44604 66.8527 2.9284 66.7378 3.44994C66.6372 3.95301 66.6515 4.47135 66.7796 4.96851C66.9077 5.46566 67.1466 5.92953 67.4794 6.32748L67.5515 6.39742C66.653 6.28325 65.7413 6.31363 64.853 6.48734C63.7666 6.73818 62.7659 7.258 61.9485 7.99605C61.1399 8.67364 60.445 9.46915 59.8886 10.354C59.4901 10.9945 59.27 11.7244 59.25 12.4722C59.29 12.7639 59.4107 13.0396 59.5993 13.2701C59.7879 13.5006 60.0374 13.6772 60.3212 13.7811ZM67.8811 3.69972C67.953 3.37172 68.1127 3.06788 68.3441 2.81881C68.5755 2.56973 68.8706 2.38421 69.1994 2.28094C69.5077 2.18611 69.8252 2.12249 70.147 2.0911C70.4581 2.05107 70.7732 2.05107 71.0843 2.0911C71.53 2.16004 71.9513 2.33475 72.3107 2.5997C72.67 2.86465 72.9564 3.21163 73.1442 3.6098C73.9991 5.99776 70.1779 8.22586 68.3137 5.69802C68.0944 5.41635 67.9419 5.09119 67.8672 4.74577C67.7924 4.40034 67.7971 4.04316 67.8811 3.69972Z" fill="#040E07" stroke="#040E07" stroke-width="0.3"/>
<path d="M73.0913 18.7167C73.3392 19.6398 73.4604 20.5905 73.4518 21.5443C73.4658 22.2564 73.2959 22.9605 72.9574 23.5926C72.8664 23.7379 72.7319 23.8531 72.5719 23.9227C72.4119 23.9922 72.2338 24.013 72.0614 23.9822C71.8122 23.9644 71.5718 23.8853 71.3628 23.7524C71.1537 23.6196 70.983 23.4374 70.8666 23.2229C70.5737 22.3559 70.3971 21.4559 70.3413 20.5452C70.2215 19.8961 69.9143 19.2932 69.4556 18.8066C69.2683 18.6202 69.0439 18.4727 68.796 18.373C68.5481 18.2734 68.2819 18.2238 68.0136 18.2271C67.4304 18.2334 66.8616 18.4034 66.376 18.7167C65.7419 19.1538 65.1912 19.6948 64.7486 20.3154C64.1146 21.094 63.2692 21.6857 62.3076 22.0239C61.3562 22.3786 60.303 22.3786 59.3516 22.0239C59.1568 21.9209 58.9921 21.7714 58.8732 21.5896C58.7543 21.4078 58.685 21.1997 58.6719 20.9848C58.6371 20.8845 58.6238 20.7784 58.6326 20.6729C58.6415 20.5675 58.6724 20.4649 58.7235 20.3714C58.7746 20.2779 58.8447 20.1955 58.9297 20.1292C59.0147 20.0629 59.1127 20.014 59.2177 19.9856C59.9659 19.8329 60.6898 19.5842 61.3704 19.2463C62.0439 18.9246 62.6596 18.4995 63.1934 17.9873C63.25 17.9313 63.2817 17.856 63.2817 17.7775C63.2817 17.6991 63.25 17.6237 63.1934 17.5677C63.1655 17.5393 63.1319 17.5167 63.0948 17.5012C63.0576 17.4857 63.0176 17.4778 62.9771 17.4778C62.9367 17.4778 62.8966 17.4857 62.8594 17.5012C62.8223 17.5167 62.7887 17.5393 62.7608 17.5677C62.2582 18.0294 61.6806 18.4075 61.0511 18.6867C60.4107 18.9689 59.7358 19.1704 59.0427 19.2862C58.6388 19.3661 58.2828 19.5954 58.0502 19.9255C57.8175 20.2556 57.7265 20.6606 57.7964 21.0547C57.8076 21.4346 57.9196 21.8053 58.1217 22.1308C58.3238 22.4564 58.6091 22.7258 58.95 22.9131C60.1093 23.3976 61.4135 23.4439 62.6063 23.043C63.7828 22.6649 64.8253 21.9722 65.6138 21.0447C65.9677 20.5294 66.406 20.0738 66.9116 19.6959C67.2177 19.5001 67.5749 19.3927 67.9415 19.3861C68.0853 19.3894 68.226 19.4267 68.3517 19.4945C68.4773 19.5624 68.584 19.659 68.6625 19.7758C68.8862 20.0732 69.0408 20.4141 69.1157 20.775C69.2188 21.7833 69.4578 22.7743 69.8264 23.7224C70.0245 24.0901 70.3194 24.4003 70.6813 24.6214C71.0431 24.8426 71.4589 24.9668 71.8863 24.9814C72.2502 25.0334 72.6217 24.9749 72.95 24.8139C73.2782 24.6529 73.5471 24.3973 73.7196 24.0821C74.115 23.2962 74.3059 22.4283 74.2758 21.5543C74.2432 20.5381 74.0736 19.5303 73.7711 18.5569C73.6498 18.2034 73.4801 17.8673 73.2664 17.5577C73.0913 17.218 72.2365 17.268 72.4116 17.5577C72.7125 17.8983 72.9432 18.2918 73.0913 18.7167Z" fill="#040E07" stroke="#040E07" stroke-width="0.3"/>
<path d="M79.7053 13.1816C79.6142 13.1842 79.5278 13.2211 79.4643 13.2845C79.4008 13.348 79.3654 13.4329 79.3654 13.5213C79.393 13.958 79.3042 14.3942 79.1076 14.788C78.9109 15.1817 78.6131 15.5197 78.2427 15.7694C77.4037 16.2062 76.4519 16.3972 75.503 16.3189C74.0347 16.2601 72.574 16.083 71.136 15.7894C69.6529 15.5396 68.1594 15.2598 66.666 15.1499C65.3424 15.0316 64.0083 15.0887 62.7006 15.3198C61.8972 15.4696 60.6407 15.7394 59.415 16.0391C58.622 16.239 57.8495 16.4488 57.2418 16.6486C57.2 16.6577 57.1606 16.675 57.1261 16.6996C57.0915 16.7242 57.0627 16.7555 57.0413 16.7915C57.0199 16.8275 57.0065 16.8674 57.0018 16.9087C56.9972 16.95 57.0014 16.9918 57.0143 17.0315C57.0272 17.0711 57.0485 17.1077 57.0767 17.1389C57.105 17.1701 57.1396 17.1953 57.1785 17.2129C57.2173 17.2304 57.2594 17.24 57.3023 17.2409C57.3451 17.2418 57.3876 17.234 57.4272 17.2181C58.0246 17.0483 58.7868 16.8884 59.5798 16.7385C60.7849 16.5087 62.0517 16.3189 62.8551 16.219C64.0866 16.0746 65.3315 16.0746 66.563 16.219C68.0152 16.3788 69.3954 16.6286 70.8682 16.8085C72.4015 17.0555 73.9497 17.2056 75.503 17.2581C76.6312 17.3054 77.7467 17.0122 78.6959 16.4188C79.178 16.0964 79.5628 15.6553 79.8108 15.1407C80.0588 14.6262 80.161 14.0569 80.107 13.4913C80.1033 13.4447 80.0897 13.3994 80.0671 13.3581C80.0445 13.3169 80.0134 13.2806 79.9757 13.2515C79.938 13.2224 79.8945 13.2012 79.848 13.1892C79.8015 13.1772 79.7529 13.1746 79.7053 13.1816Z" fill="#33D16D"/>
<path d="M79.7053 13.1816C79.6142 13.1842 79.5278 13.2211 79.4643 13.2845C79.4008 13.348 79.3654 13.4329 79.3654 13.5213C79.393 13.958 79.3042 14.3942 79.1076 14.788C78.9109 15.1817 78.6131 15.5197 78.2427 15.7694C77.4037 16.2062 76.4519 16.3972 75.503 16.3189C74.0347 16.2601 72.574 16.083 71.136 15.7894C69.6529 15.5396 68.1594 15.2598 66.666 15.1499C65.3424 15.0316 64.0083 15.0887 62.7006 15.3198C61.8972 15.4696 60.6407 15.7394 59.415 16.0391C58.622 16.239 57.8495 16.4488 57.2418 16.6486C57.2 16.6577 57.1606 16.675 57.1261 16.6996C57.0915 16.7242 57.0627 16.7555 57.0413 16.7915C57.0199 16.8275 57.0065 16.8674 57.0018 16.9087C56.9972 16.95 57.0014 16.9918 57.0143 17.0315C57.0272 17.0711 57.0485 17.1077 57.0767 17.1389C57.105 17.1701 57.1396 17.1953 57.1785 17.2129C57.2173 17.2304 57.2594 17.24 57.3023 17.2409C57.3451 17.2418 57.3876 17.234 57.4272 17.2181C58.0246 17.0483 58.7868 16.8884 59.5798 16.7385C60.7849 16.5087 62.0517 16.3189 62.8551 16.219C64.0866 16.0746 65.3315 16.0746 66.563 16.219C68.0152 16.3788 69.3954 16.6286 70.8682 16.8085C72.4015 17.0555 73.9497 17.2056 75.503 17.2581C76.6312 17.3054 77.7467 17.0122 78.6959 16.4188C79.178 16.0964 79.5628 15.6553 79.8108 15.1407C80.0588 14.6262 80.161 14.0569 80.107 13.4913C80.1033 13.4447 80.0897 13.3994 80.0671 13.3581C80.0445 13.3169 80.0134 13.2806 79.9757 13.2515C79.938 13.2224 79.8945 13.2012 79.848 13.1892C79.8015 13.1772 79.7529 13.1746 79.7053 13.1816Z" fill="#A9D953"/>
<path d="M79.7053 13.1816C79.6142 13.1842 79.5278 13.2211 79.4643 13.2845C79.4008 13.348 79.3654 13.4329 79.3654 13.5213C79.393 13.958 79.3042 14.3942 79.1076 14.788C78.9109 15.1817 78.6131 15.5197 78.2427 15.7694C77.4037 16.2062 76.4519 16.3972 75.503 16.3189C74.0347 16.2601 72.574 16.083 71.136 15.7894C69.6529 15.5396 68.1594 15.2598 66.666 15.1499C65.3424 15.0316 64.0083 15.0887 62.7006 15.3198C61.8972 15.4696 60.6407 15.7394 59.415 16.0391C58.622 16.239 57.8495 16.4488 57.2418 16.6486C57.2 16.6577 57.1606 16.675 57.1261 16.6996C57.0915 16.7242 57.0627 16.7555 57.0413 16.7915C57.0199 16.8275 57.0065 16.8674 57.0018 16.9087C56.9972 16.95 57.0014 16.9918 57.0143 17.0315C57.0272 17.0711 57.0485 17.1077 57.0767 17.1389C57.105 17.1701 57.1396 17.1953 57.1785 17.2129C57.2173 17.2304 57.2594 17.24 57.3023 17.2409C57.3451 17.2418 57.3876 17.234 57.4272 17.2181C58.0246 17.0483 58.7868 16.8884 59.5798 16.7385C60.7849 16.5087 62.0517 16.3189 62.8551 16.219C64.0866 16.0746 65.3315 16.0746 66.563 16.219C68.0152 16.3788 69.3954 16.6286 70.8682 16.8085C72.4015 17.0555 73.9497 17.2056 75.503 17.2581C76.6312 17.3054 77.7467 17.0122 78.6959 16.4188C79.178 16.0964 79.5628 15.6553 79.8108 15.1407C80.0588 14.6262 80.161 14.0569 80.107 13.4913C80.1033 13.4447 80.0897 13.3994 80.0671 13.3581C80.0445 13.3169 80.0134 13.2806 79.9757 13.2515C79.938 13.2224 79.8945 13.2012 79.848 13.1892C79.8015 13.1772 79.7529 13.1746 79.7053 13.1816Z" stroke="#33D16D" stroke-width="0.3"/>
<path d="M79.7053 13.1816C79.6142 13.1842 79.5278 13.2211 79.4643 13.2845C79.4008 13.348 79.3654 13.4329 79.3654 13.5213C79.393 13.958 79.3042 14.3942 79.1076 14.788C78.9109 15.1817 78.6131 15.5197 78.2427 15.7694C77.4037 16.2062 76.4519 16.3972 75.503 16.3189C74.0347 16.2601 72.574 16.083 71.136 15.7894C69.6529 15.5396 68.1594 15.2598 66.666 15.1499C65.3424 15.0316 64.0083 15.0887 62.7006 15.3198C61.8972 15.4696 60.6407 15.7394 59.415 16.0391C58.622 16.239 57.8495 16.4488 57.2418 16.6486C57.2 16.6577 57.1606 16.675 57.1261 16.6996C57.0915 16.7242 57.0627 16.7555 57.0413 16.7915C57.0199 16.8275 57.0065 16.8674 57.0018 16.9087C56.9972 16.95 57.0014 16.9918 57.0143 17.0315C57.0272 17.0711 57.0485 17.1077 57.0767 17.1389C57.105 17.1701 57.1396 17.1953 57.1785 17.2129C57.2173 17.2304 57.2594 17.24 57.3023 17.2409C57.3451 17.2418 57.3876 17.234 57.4272 17.2181C58.0246 17.0483 58.7868 16.8884 59.5798 16.7385C60.7849 16.5087 62.0517 16.3189 62.8551 16.219C64.0866 16.0746 65.3315 16.0746 66.563 16.219C68.0152 16.3788 69.3954 16.6286 70.8682 16.8085C72.4015 17.0555 73.9497 17.2056 75.503 17.2581C76.6312 17.3054 77.7467 17.0122 78.6959 16.4188C79.178 16.0964 79.5628 15.6553 79.8108 15.1407C80.0588 14.6262 80.161 14.0569 80.107 13.4913C80.1033 13.4447 80.0897 13.3994 80.0671 13.3581C80.0445 13.3169 80.0134 13.2806 79.9757 13.2515C79.938 13.2224 79.8945 13.2012 79.848 13.1892C79.8015 13.1772 79.7529 13.1746 79.7053 13.1816Z" stroke="#A9D953" stroke-width="0.3"/>
</g>
</svg>
