<svg width="51" height="78" viewBox="0 0 51 78" fill="none" xmlns="http://www.w3.org/2000/svg">
<path d="M25.5 2.5C28.4547 2.5 31.3806 3.08198 34.1104 4.21271C36.8402 5.34344 39.3206 7.00078 41.4099 9.0901C43.4992 11.1794 45.1566 13.6598 46.2873 16.3896C47.418 19.1195 48 22.0453 48 25C48 27.9547 47.418 30.8806 46.2873 33.6104C45.1566 36.3402 43.4992 38.8206 41.4099 40.9099C39.3206 42.9992 36.8402 44.6566 34.1104 45.7873C31.3805 46.918 28.4547 47.5 25.5 47.5C22.5452 47.5 19.6194 46.918 16.8896 45.7873C14.1598 44.6566 11.6794 42.9992 9.59009 40.9099C7.50077 38.8206 5.84344 36.3402 4.71271 33.6104C3.58198 30.8805 3 27.9547 3 25C3 22.0452 3.58198 19.1194 4.71272 16.3896C5.84345 13.6598 7.50079 11.1794 9.59011 9.09009C11.6794 7.00077 14.1598 5.34343 16.8896 4.21271C19.6195 3.08198 22.5453 2.5 25.5 2.5L25.5 2.5Z" stroke="#FDF2D7" stroke-width="5"/>
<path d="M21.5929 2.84183C24.6211 2.30787 27.7267 2.40028 30.7178 3.11336C33.7089 3.82644 36.5221 5.14505 38.9837 6.98778C41.4453 8.83051 43.5031 11.1582 45.03 13.8273C46.5569 16.4963 47.5205 19.45 47.8613 22.506" stroke="#F3C75C" stroke-width="5" stroke-linecap="round" stroke-linejoin="round"/>
<path d="M14.8363 24.208L14.4103 22.774C14.9543 22.51 15.4983 22.248 16.0423 21.988C16.5863 21.724 17.1303 21.46 17.6743 21.196L17.6083 22.846C17.1443 23.074 16.6823 23.302 16.2223 23.53C15.7623 23.754 15.3003 23.98 14.8363 24.208ZM16.7203 29.5C16.7203 29.072 16.7203 28.658 16.7203 28.258C16.7203 27.854 16.7203 27.404 16.7203 26.908V24.484C16.7203 24.072 16.7203 23.662 16.7203 23.254C16.7203 22.842 16.7203 22.428 16.7203 22.012L17.6743 21.196L18.5683 21.25C18.5683 21.718 18.5683 22.192 18.5683 22.672C18.5683 23.148 18.5683 23.632 18.5683 24.124V26.908C18.5683 27.404 18.5683 27.854 18.5683 28.258C18.5683 28.658 18.5683 29.072 18.5683 29.5H16.7203ZM22.8901 29.656C22.6101 29.656 22.3341 29.64 22.0621 29.608C21.7941 29.576 21.5361 29.532 21.2881 29.476C21.0401 29.416 20.8101 29.348 20.5981 29.272C20.3861 29.196 20.1961 29.116 20.0281 29.032L20.1661 27.352C20.3821 27.464 20.5981 27.566 20.8141 27.658C21.0341 27.75 21.2521 27.83 21.4681 27.898C21.6881 27.962 21.9021 28.012 22.1101 28.048C22.3181 28.084 22.5201 28.102 22.7161 28.102C23.2281 28.102 23.6021 27.988 23.8381 27.76C24.0741 27.532 24.1921 27.212 24.1921 26.8C24.1921 26.504 24.1301 26.264 24.0061 26.08C23.8861 25.892 23.7141 25.754 23.4901 25.666C23.2701 25.578 23.0121 25.534 22.7161 25.534C22.4761 25.534 22.2361 25.562 21.9961 25.618C21.7601 25.674 21.5221 25.778 21.2821 25.93L20.4901 25.87V24.49C20.4901 23.91 20.4901 23.348 20.4901 22.804C20.4901 22.26 20.4901 21.74 20.4901 21.244H25.6741V22.828C25.2061 22.828 24.7321 22.828 24.2521 22.828C23.7761 22.828 23.3041 22.828 22.8361 22.828H21.6481L22.2001 22.246C22.2001 22.55 22.1961 22.854 22.1881 23.158C22.1841 23.462 22.1781 23.764 22.1701 24.064L22.1641 24.49H22.3081C22.5121 24.39 22.7241 24.314 22.9441 24.262C23.1681 24.21 23.3981 24.184 23.6341 24.184C24.0901 24.184 24.5041 24.28 24.8761 24.472C25.2521 24.664 25.5501 24.954 25.7701 25.342C25.9901 25.726 26.1001 26.204 26.1001 26.776C26.1001 27.348 25.9821 27.85 25.7461 28.282C25.5141 28.714 25.1601 29.052 24.6841 29.296C24.2121 29.536 23.6141 29.656 22.8901 29.656ZM28.8542 29.5C29.1142 29.06 29.3702 28.628 29.6222 28.204C29.8742 27.776 30.1602 27.29 30.4802 26.746L32.2382 23.77C32.4582 23.398 32.6602 23.056 32.8442 22.744C33.0282 22.428 33.2062 22.126 33.3782 21.838C33.5502 21.546 33.7262 21.248 33.9062 20.944H35.4902C35.3142 21.248 35.1402 21.546 34.9682 21.838C34.7962 22.126 34.6162 22.428 34.4282 22.744C34.2442 23.056 34.0422 23.398 33.8222 23.77L32.0642 26.746C31.7442 27.29 31.4582 27.776 31.2062 28.204C30.9542 28.628 30.6982 29.06 30.4382 29.5H28.8542ZM29.2922 25.144C28.8202 25.144 28.4042 25.056 28.0442 24.88C27.6882 24.704 27.4082 24.452 27.2042 24.124C27.0042 23.796 26.9042 23.406 26.9042 22.954C26.9042 22.538 27.0042 22.166 27.2042 21.838C27.4082 21.51 27.6882 21.25 28.0442 21.058C28.4042 20.866 28.8222 20.77 29.2982 20.77C29.7702 20.77 30.1842 20.866 30.5402 21.058C30.9002 21.25 31.1802 21.51 31.3802 21.838C31.5802 22.166 31.6802 22.538 31.6802 22.954C31.6802 23.406 31.5802 23.796 31.3802 24.124C31.1802 24.452 30.9002 24.704 30.5402 24.88C30.1842 25.056 29.7682 25.144 29.2922 25.144ZM29.2922 24.028C29.6282 24.028 29.8882 23.934 30.0722 23.746C30.2602 23.554 30.3542 23.294 30.3542 22.966C30.3542 22.766 30.3122 22.586 30.2282 22.426C30.1442 22.262 30.0222 22.132 29.8622 22.036C29.7062 21.94 29.5182 21.892 29.2982 21.892C28.9662 21.892 28.7042 21.994 28.5122 22.198C28.3242 22.398 28.2302 22.654 28.2302 22.966C28.2302 23.294 28.3242 23.554 28.5122 23.746C28.7042 23.934 28.9642 24.028 29.2922 24.028ZM35.0582 29.662C34.5822 29.662 34.1642 29.574 33.8042 29.398C33.4482 29.222 33.1702 28.97 32.9702 28.642C32.7702 28.314 32.6702 27.924 32.6702 27.472C32.6702 27.056 32.7702 26.684 32.9702 26.356C33.1702 26.028 33.4502 25.768 33.8102 25.576C34.1702 25.384 34.5862 25.288 35.0582 25.288C35.5342 25.288 35.9502 25.384 36.3062 25.576C36.6662 25.768 36.9462 26.028 37.1462 26.356C37.3462 26.684 37.4462 27.056 37.4462 27.472C37.4462 27.924 37.3462 28.314 37.1462 28.642C36.9462 28.97 36.6662 29.222 36.3062 29.398C35.9462 29.574 35.5302 29.662 35.0582 29.662ZM35.0582 28.54C35.3902 28.54 35.6502 28.446 35.8382 28.258C36.0262 28.07 36.1202 27.812 36.1202 27.484C36.1202 27.28 36.0762 27.098 35.9882 26.938C35.9042 26.778 35.7842 26.65 35.6282 26.554C35.4722 26.458 35.2822 26.41 35.0582 26.41C34.7302 26.41 34.4702 26.512 34.2782 26.716C34.0902 26.916 33.9962 27.172 33.9962 27.484C33.9962 27.812 34.0902 28.07 34.2782 28.258C34.4702 28.446 34.7302 28.54 35.0582 28.54Z" fill="#040E07"/>
<path d="M6.189 74.5C6.52033 74.08 6.854 73.66 7.19 73.24C7.526 72.82 7.85733 72.4023 8.184 71.987L9.367 70.433L9.311 71.238L8.331 70.013C7.99967 69.5977 7.66833 69.1847 7.337 68.774C7.01033 68.3633 6.679 67.948 6.343 67.528L8.373 67.472C8.60633 67.7893 8.83733 68.109 9.066 68.431C9.29467 68.7483 9.52567 69.0657 9.759 69.383L10.501 70.405H11.145V71.609H10.522L9.689 72.722C9.46967 73.0207 9.25033 73.317 9.031 73.611C8.81167 73.905 8.59233 74.2013 8.373 74.5H6.189ZM10.949 74.5C10.949 74.038 10.949 73.5947 10.949 73.17C10.949 72.7407 10.949 72.2833 10.949 71.798V70.482C10.949 69.9593 10.949 69.46 10.949 68.984C10.949 68.508 10.949 68.0227 10.949 67.528H12.671C12.671 68.0227 12.671 68.508 12.671 68.984C12.671 69.46 12.671 69.9593 12.671 70.482V71.798C12.671 72.2833 12.671 72.7407 12.671 73.17C12.671 73.5947 12.671 74.038 12.671 74.5H10.949ZM15.24 74.5C15.0067 74.192 14.7803 73.8933 14.561 73.604C14.3463 73.31 14.1247 73.0137 13.896 72.715L13.07 71.609H12.475V70.405H13.119L13.84 69.39C14.0593 69.082 14.281 68.7717 14.505 68.459C14.729 68.1463 14.9483 67.836 15.163 67.528H17.242C16.9153 67.9433 16.5887 68.3587 16.262 68.774C15.9353 69.1847 15.611 69.5953 15.289 70.006L14.316 71.238L14.225 70.433L15.408 71.98C15.744 72.3953 16.08 72.8153 16.416 73.24C16.7567 73.66 17.095 74.08 17.431 74.5H15.24ZM18.5241 74.5C18.5241 73.9913 18.5241 73.5037 18.5241 73.037C18.5241 72.5657 18.5241 72.0407 18.5241 71.462V70.762C18.5241 70.314 18.5241 69.9103 18.5241 69.551C18.5241 69.1917 18.5241 68.8487 18.5241 68.522C18.5241 68.1953 18.5241 67.864 18.5241 67.528L20.2391 67.479C20.2391 67.7917 20.2391 68.102 20.2391 68.41C20.2391 68.718 20.2391 69.0447 20.2391 69.39C20.2391 69.7307 20.2391 70.111 20.2391 70.531V72.071H20.3511L21.5061 70.09C21.7628 69.6607 22.0148 69.2313 22.2621 68.802C22.5141 68.368 22.7614 67.9433 23.0041 67.528H24.8311C24.8311 67.864 24.8311 68.1953 24.8311 68.522C24.8311 68.8487 24.8311 69.1917 24.8311 69.551C24.8311 69.9103 24.8311 70.314 24.8311 70.762V71.462C24.8311 72.0407 24.8311 72.5657 24.8311 73.037C24.8311 73.5037 24.8311 73.9913 24.8311 74.5H23.1301C23.1301 74.0053 23.1301 73.527 23.1301 73.065C23.1301 72.5983 23.1301 72.0827 23.1301 71.518V69.95H23.0041L21.8701 71.903C21.6181 72.3417 21.3661 72.778 21.1141 73.212C20.8621 73.646 20.6101 74.0753 20.3581 74.5H18.5241ZM26.6452 77.244C26.6452 76.74 26.6452 76.243 26.6452 75.753C26.6452 75.263 26.6452 74.7287 26.6452 74.15V70.762C26.6452 70.2347 26.6452 69.7003 26.6452 69.159C26.6452 68.6177 26.6452 68.074 26.6452 67.528L28.2342 67.437L28.2832 68.375H28.4372C28.5772 68.1697 28.7475 67.99 28.9482 67.836C29.1535 67.6773 29.3869 67.556 29.6482 67.472C29.9095 67.388 30.1965 67.346 30.5092 67.346C31.1299 67.346 31.6549 67.507 32.0842 67.829C32.5135 68.1463 32.8379 68.5827 33.0572 69.138C33.2765 69.6887 33.3862 70.3093 33.3862 71C33.3862 71.6487 33.2835 72.253 33.0782 72.813C32.8729 73.373 32.5579 73.8233 32.1332 74.164C31.7085 74.5047 31.1742 74.675 30.5302 74.675C30.2362 74.675 29.9679 74.6353 29.7252 74.556C29.4872 74.4813 29.2702 74.3717 29.0742 74.227C28.8782 74.0823 28.7009 73.9073 28.5422 73.702H28.4232V74.241C28.4232 74.773 28.4232 75.27 28.4232 75.732C28.4232 76.1987 28.4232 76.684 28.4232 77.188L26.6452 77.244ZM29.8862 73.142C30.2735 73.142 30.5909 73.0417 30.8382 72.841C31.0902 72.6357 31.2745 72.372 31.3912 72.05C31.5079 71.728 31.5662 71.3827 31.5662 71.014C31.5662 70.6267 31.5032 70.2743 31.3772 69.957C31.2559 69.635 31.0692 69.3783 30.8172 69.187C30.5699 68.991 30.2549 68.893 29.8722 68.893C29.6809 68.893 29.4965 68.9233 29.3192 68.984C29.1419 69.04 28.9762 69.124 28.8222 69.236C28.6682 69.3433 28.5352 69.4763 28.4232 69.635V72.246C28.5305 72.428 28.6542 72.5867 28.7942 72.722C28.9342 72.8573 29.0952 72.9623 29.2772 73.037C29.4592 73.107 29.6622 73.142 29.8862 73.142ZM34.862 74.5C34.862 73.9913 34.862 73.5037 34.862 73.037C34.862 72.5657 34.862 72.0407 34.862 71.462V70.762C34.862 70.314 34.862 69.9103 34.862 69.551C34.862 69.1917 34.862 68.8487 34.862 68.522C34.862 68.1953 34.862 67.864 34.862 67.528L36.619 67.472C36.619 67.948 36.619 68.41 36.619 68.858C36.619 69.306 36.619 69.7867 36.619 70.3C36.619 70.8227 36.619 71.3103 36.619 71.763C36.619 72.2157 36.619 72.6823 36.619 73.163H37.662C37.942 73.163 38.1963 73.1327 38.425 73.072C38.6537 73.0113 38.8333 72.897 38.964 72.729C39.0993 72.5563 39.167 72.309 39.167 71.987C39.167 71.7537 39.1297 71.567 39.055 71.427C38.9803 71.2823 38.88 71.1727 38.754 71.098C38.6327 71.0233 38.495 70.9743 38.341 70.951C38.1917 70.923 38.04 70.909 37.886 70.909H36.388L35.954 69.572C36.2293 69.572 36.5677 69.572 36.969 69.572C37.3703 69.572 37.746 69.572 38.096 69.572C38.7167 69.572 39.2393 69.6513 39.664 69.81C40.0933 69.9687 40.4177 70.223 40.637 70.573C40.8563 70.923 40.966 71.3873 40.966 71.966C40.966 72.47 40.8727 72.9133 40.686 73.296C40.504 73.674 40.2077 73.9703 39.797 74.185C39.3863 74.395 38.838 74.5 38.152 74.5C37.4847 74.5 36.8733 74.5 36.318 74.5C35.7627 74.5 35.2773 74.5 34.862 74.5ZM41.953 74.5C41.953 73.996 41.953 73.5083 41.953 73.037C41.953 72.5657 41.953 72.0407 41.953 71.462V70.762C41.953 70.314 41.953 69.9103 41.953 69.551C41.953 69.187 41.953 68.844 41.953 68.522C41.953 68.1953 41.953 67.864 41.953 67.528L43.731 67.472C43.731 67.8127 43.731 68.1487 43.731 68.48C43.731 68.8113 43.731 69.1613 43.731 69.53C43.731 69.894 43.731 70.3047 43.731 70.762V71.462C43.731 72.0407 43.731 72.5657 43.731 73.037C43.731 73.5083 43.731 73.996 43.731 74.5H41.953Z" fill="#F3C75C"/>
</svg>
