<svg width="217" height="82" viewBox="0 0 217 82" fill="none" xmlns="http://www.w3.org/2000/svg">
<path d="M100.062 18.5927L109.675 29.3455H106.728L97.0563 18.5927L105.895 9.29799H108.871L100.062 18.5927ZM96.7885 29.3455H94.4672V9.29799H96.7885V29.3455ZM126.156 9.29799C127.128 9.29799 128.001 9.43974 128.775 9.72324C129.549 10.0067 130.203 10.4117 130.739 10.9382C131.295 11.4445 131.721 12.052 132.019 12.7607C132.316 13.4695 132.465 14.2491 132.465 15.0996C132.465 16.4766 132.098 17.6612 131.364 18.6535C130.63 19.6255 129.608 20.2937 128.299 20.6582L134.608 29.3455H131.9L125.769 20.9316H121.573V29.3455H119.252V9.29799H126.156ZM121.573 11.4242V18.8054H126.067C127.376 18.8054 128.368 18.4712 129.043 17.803C129.717 17.1145 130.055 16.2235 130.055 15.13C130.055 14.0567 129.717 13.1759 129.043 12.4874C128.368 11.7786 127.376 11.4242 126.067 11.4242H121.573ZM159.846 29.3455H157.346L155.65 25.2752H146.067L144.401 29.3455H141.931L150.472 8.96387H151.305L159.846 29.3455ZM146.93 23.149H154.787L150.888 13.3379L146.93 23.149ZM174.608 29.6796H173.774L165.233 9.29799H167.822L174.191 25.0019L180.56 9.29799H183.149L174.608 29.6796ZM206.692 11.4242H199.787V29.3455H197.466V11.4242H190.562V9.29799H206.692V11.4242ZM103.395 49.4639C105.082 49.4639 106.599 49.8284 107.948 50.5574C109.317 51.2864 110.458 52.2887 111.371 53.5645L109.645 54.9617C108.911 53.929 108.018 53.119 106.966 52.5317C105.935 51.9445 104.744 51.6509 103.395 51.6509C102.264 51.6509 101.213 51.8635 100.241 52.2887C99.2883 52.6937 98.4649 53.2607 97.7705 53.9897C97.096 54.7187 96.5603 55.5794 96.1635 56.5716C95.7865 57.5639 95.5981 58.6371 95.5981 59.7914C95.5981 60.9659 95.7965 62.0594 96.1933 63.0719C96.5901 64.0641 97.1357 64.9349 97.8301 65.6841C98.5245 66.4131 99.3577 66.9902 100.33 67.4155C101.302 67.8407 102.364 68.0534 103.514 68.0534C105.002 68.0534 106.302 67.7192 107.413 67.051C108.524 66.3827 109.397 65.5221 110.032 64.4691V61.7657H103.365V59.6395H112.353V64.9855C111.936 65.755 111.411 66.4637 110.776 67.1117C110.161 67.7395 109.466 68.2862 108.692 68.752C107.919 69.1975 107.085 69.5519 106.193 69.8151C105.3 70.0581 104.367 70.1796 103.395 70.1796C101.967 70.1796 100.627 69.9164 99.3776 69.3899C98.1277 68.8431 97.0464 68.1141 96.1337 67.2029C95.2211 66.2714 94.4969 65.1779 93.9613 63.9224C93.4454 62.6466 93.1875 61.2797 93.1875 59.8217C93.1875 58.3637 93.4454 57.007 93.9613 55.7515C94.4969 54.4757 95.2211 53.3721 96.1337 52.4406C97.0662 51.5091 98.1475 50.7801 99.3776 50.2536C100.627 49.7271 101.967 49.4639 103.395 49.4639ZM129.527 49.798C130.499 49.798 131.372 49.9397 132.146 50.2232C132.92 50.5067 133.574 50.9117 134.11 51.4382C134.666 51.9445 135.092 52.552 135.39 53.2607C135.687 53.9695 135.836 54.7491 135.836 55.5996C135.836 56.9766 135.469 58.1612 134.735 59.1535C134.001 60.1255 132.979 60.7937 131.67 61.1582L137.979 69.8455H135.271L129.14 61.4316H124.944V69.8455H122.623V49.798H129.527ZM124.944 51.9242V59.3054H129.438C130.747 59.3054 131.739 58.9712 132.414 58.303C133.088 57.6145 133.425 56.7235 133.425 55.63C133.425 54.5567 133.088 53.6759 132.414 52.9874C131.739 52.2786 130.747 51.9242 129.438 51.9242H124.944ZM155.55 49.4639C156.959 49.4639 158.278 49.7271 159.508 50.2536C160.738 50.7801 161.81 51.5091 162.722 52.4406C163.655 53.3721 164.389 54.4757 164.925 55.7515C165.46 57.007 165.728 58.3637 165.728 59.8217C165.728 61.2797 165.46 62.6466 164.925 63.9224C164.389 65.1779 163.655 66.2714 162.722 67.2029C161.81 68.1344 160.738 68.8634 159.508 69.3899C158.278 69.9164 156.959 70.1796 155.55 70.1796C154.122 70.1796 152.792 69.9164 151.562 69.3899C150.332 68.8431 149.251 68.1141 148.319 67.2029C147.406 66.2714 146.682 65.1779 146.146 63.9224C145.63 62.6466 145.372 61.2797 145.372 59.8217C145.372 58.3637 145.63 57.007 146.146 55.7515C146.682 54.4757 147.406 53.3721 148.319 52.4406C149.251 51.5091 150.332 50.7801 151.562 50.2536C152.812 49.7271 154.142 49.4639 155.55 49.4639ZM155.58 51.6509C154.449 51.6509 153.407 51.8635 152.455 52.2887C151.503 52.6937 150.679 53.2607 149.985 53.9897C149.291 54.7187 148.745 55.5794 148.348 56.5716C147.971 57.5639 147.783 58.6371 147.783 59.7914C147.783 60.9659 147.971 62.0594 148.348 63.0719C148.745 64.0641 149.291 64.9247 149.985 65.6537C150.679 66.3827 151.503 66.9599 152.455 67.3851C153.407 67.7901 154.449 67.9926 155.58 67.9926C156.691 67.9926 157.713 67.7901 158.645 67.3851C159.598 66.9599 160.421 66.3827 161.115 65.6537C161.81 64.9247 162.345 64.0641 162.722 63.0719C163.119 62.0594 163.318 60.9659 163.318 59.7914C163.318 58.6371 163.119 57.5639 162.722 56.5716C162.345 55.5794 161.81 54.7187 161.115 53.9897C160.421 53.2607 159.598 52.6937 158.645 52.2887C157.713 51.8635 156.691 51.6509 155.58 51.6509ZM191.18 61.8872C191.18 63.2237 190.982 64.4084 190.585 65.4411C190.188 66.4739 189.643 67.3446 188.948 68.0534C188.254 68.7419 187.431 69.2684 186.478 69.6329C185.526 69.9974 184.494 70.1796 183.383 70.1796C182.252 70.1796 181.211 69.9974 180.258 69.6329C179.306 69.2684 178.483 68.7419 177.788 68.0534C177.094 67.3446 176.548 66.4739 176.152 65.4411C175.775 64.4084 175.586 63.2237 175.586 61.8872V49.798H177.907V62.0391C177.907 63.0516 178.046 63.9325 178.324 64.6817C178.622 65.431 179.009 66.0486 179.485 66.5346C179.981 67.0206 180.556 67.3851 181.211 67.6281C181.885 67.8711 182.609 67.9926 183.383 67.9926C184.137 67.9926 184.841 67.8711 185.496 67.6281C186.171 67.3851 186.756 67.0206 187.252 66.5346C187.748 66.0486 188.135 65.431 188.413 64.6817C188.71 63.9325 188.859 63.0516 188.859 62.0391V49.798H191.18V61.8872ZM209.228 49.798C210.2 49.798 211.073 49.9397 211.847 50.2232C212.621 50.5067 213.275 50.9117 213.811 51.4382C214.367 51.9445 214.793 52.552 215.091 53.2607C215.388 53.9695 215.537 54.7491 215.537 55.5996C215.537 56.4501 215.388 57.2399 215.091 57.9689C214.793 58.6776 214.367 59.2952 213.811 59.8217C213.275 60.328 212.621 60.733 211.847 61.0367C211.073 61.3202 210.2 61.462 209.228 61.462H204.645V69.8455H202.324V49.798H209.228ZM204.645 51.9242V59.3357H209.168C210.478 59.3357 211.46 58.9915 212.115 58.303C212.789 57.6145 213.126 56.7235 213.126 55.63C213.126 54.5567 212.789 53.6759 212.115 52.9874C211.46 52.2786 210.478 51.9242 209.168 51.9242H204.645Z" fill="#040E07"/>
<path fill-rule="evenodd" clip-rule="evenodd" d="M1.19231 9.72852C1.8508 9.72852 2.38461 10.2734 2.38461 10.9455V68.7503C2.38461 69.4223 1.8508 69.9672 1.19231 69.9672C0.533814 69.9672 0 69.4223 0 68.7503V10.9455C0 10.2734 0.533814 9.72852 1.19231 9.72852ZM9.53845 9.72852C10.197 9.72852 10.7308 10.2734 10.7308 10.9455V68.7503C10.7308 69.4223 10.197 69.9672 9.53845 69.9672C8.87995 69.9672 8.34613 69.4223 8.34613 68.7503V10.9455C8.34613 10.2734 8.87995 9.72852 9.53845 9.72852ZM17.8846 9.72852C18.5431 9.72852 19.0769 10.2734 19.0769 10.9455V68.7503C19.0769 69.4223 18.5431 69.9672 17.8846 69.9672C17.2261 69.9672 16.6923 69.4223 16.6923 68.7503V10.9455C16.6923 10.2734 17.2261 9.72852 17.8846 9.72852ZM26.2308 9.72852C26.8893 9.72852 27.4231 10.2734 27.4231 10.9455V68.7503C27.4231 69.4223 26.8893 69.9672 26.2308 69.9672C25.5723 69.9672 25.0385 69.4223 25.0385 68.7503V10.9455C25.0385 10.2734 25.5723 9.72852 26.2308 9.72852Z" fill="#040E07"/>
<path fill-rule="evenodd" clip-rule="evenodd" d="M39.345 10.1035C39.8107 10.5787 39.8107 11.3493 39.345 11.8245L32.801 18.5038C32.3354 18.979 31.5805 18.979 31.1148 18.5038C30.6492 18.0285 30.6492 17.258 31.1148 16.7827L37.6588 10.1035C38.1244 9.62826 38.8793 9.62826 39.345 10.1035Z" fill="#040E07"/>
<path fill-rule="evenodd" clip-rule="evenodd" d="M39.6207 69.5887C40.0738 69.1008 40.0537 68.3306 39.576 67.868L32.7783 61.2889C32.3005 60.8265 31.5459 60.847 31.0928 61.3347C30.6397 61.8224 30.6597 62.5927 31.1375 63.0551L37.9351 69.6342C38.413 70.0968 39.1676 70.0759 39.6207 69.5887Z" fill="#040E07"/>
<path fill-rule="evenodd" clip-rule="evenodd" d="M49.7302 10.0881C50.1942 10.565 50.1914 11.3355 49.7241 11.8091L33.4464 28.3031C32.9791 28.7767 32.2241 28.7739 31.7602 28.2969C31.2963 27.8199 31.299 27.0494 31.7663 26.5759L48.0441 10.0818C48.5114 9.60833 49.2663 9.61111 49.7302 10.0881Z" fill="#040E07"/>
<path fill-rule="evenodd" clip-rule="evenodd" d="M49.7333 69.6044C50.1955 69.126 50.19 68.3553 49.7211 67.8838L33.4433 51.5085C32.9744 51.0366 32.2195 51.0422 31.7572 51.5209C31.295 51.9996 31.3004 52.7701 31.7694 53.2419L48.0471 69.6171C48.5161 70.0885 49.2711 70.0835 49.7333 69.6044Z" fill="#040E07"/>
<path fill-rule="evenodd" clip-rule="evenodd" d="M61.6492 22.8668C62.1129 23.3439 62.1098 24.1144 61.6424 24.5878L45.657 40.7718C45.1895 41.2451 44.4346 41.242 43.9708 40.7648C43.5071 40.2876 43.5102 39.5171 43.9776 39.0438L59.963 22.8598C60.4306 22.3865 61.1855 22.3896 61.6492 22.8668Z" fill="#040E07"/>
<path fill-rule="evenodd" clip-rule="evenodd" d="M61.6523 56.8263C62.1141 56.3474 62.1085 55.5769 61.6393 55.1053L45.6539 39.0403C45.1846 38.5687 44.4297 38.5746 43.9677 39.0535C43.5057 39.5325 43.5116 40.303 43.9808 40.7745L59.9662 56.8396C60.4354 57.3112 61.1903 57.3052 61.6523 56.8263Z" fill="#040E07"/>
<path fill-rule="evenodd" clip-rule="evenodd" d="M61.6233 35.0142C62.0984 35.4793 62.1145 36.2496 61.659 36.7348L57.889 40.7493C57.4333 41.2346 56.6786 41.2509 56.2032 40.7858C55.7278 40.3207 55.7118 39.5504 56.1675 39.0652L59.9374 35.0507C60.3931 34.5654 61.1479 34.5491 61.6233 35.0142Z" fill="#040E07"/>
<path fill-rule="evenodd" clip-rule="evenodd" d="M61.6361 44.6688C62.1046 44.1965 62.1089 43.426 61.6465 42.9478L57.8765 39.0522C57.4137 38.574 56.6588 38.5693 56.1904 39.0416C55.7219 39.5139 55.7172 40.2844 56.1799 40.7626L59.95 44.6582C60.4127 45.1363 61.1676 45.1412 61.6361 44.6688Z" fill="#040E07"/>
<path fill-rule="evenodd" clip-rule="evenodd" d="M61.6476 10.0823C62.1148 10.556 62.1173 11.3266 61.6528 11.8033L33.4521 40.7652C32.9879 41.2419 32.233 41.2443 31.7659 40.7706C31.2988 40.2968 31.2965 39.5263 31.7607 39.0496L59.9615 10.0876C60.4257 9.61087 61.1806 9.60853 61.6476 10.0823Z" fill="#040E07"/>
<path fill-rule="evenodd" clip-rule="evenodd" d="M61.6494 69.6121C62.1154 69.1369 62.116 68.3667 61.6511 67.8909L33.4503 39.0478C32.9852 38.572 32.2302 38.5712 31.7642 39.046C31.2981 39.5207 31.2972 40.2912 31.7624 40.767L59.9632 69.6102C60.4283 70.0861 61.1833 70.0867 61.6494 69.6121Z" fill="#040E07"/>
</svg>
