<svg width="64" height="33" viewBox="0 0 64 33" fill="none" xmlns="http://www.w3.org/2000/svg">
<g clip-path="url(#clip0_2601_28054)">
<path d="M0 4.23633C0 2.02719 2.5868 0.236328 5.77778 0.236328H63.5556C66.7465 0.236328 69.3333 2.02719 69.3333 4.23633V28.2363C69.3333 30.4455 66.7465 32.2363 63.5556 32.2363H5.77778C2.5868 32.2363 0 30.4455 0 28.2363V4.23633Z" fill="#F2F9E5"/>
<path d="M47.8884 10H40.1875C40.6361 12.5421 43.1034 14.9346 45.795 14.9346H51.9258C52.0006 14.7103 52.0006 14.3364 52.0006 14.1121C52.0006 11.8692 50.1314 10 47.8884 10Z" fill="url(#paint0_linear_2601_28054)"/>
<path d="M40.8672 15.3828V21.5884H44.6055V18.2987H47.8952C49.6896 18.2987 51.2597 17.0277 51.7831 15.3828H40.8672Z" fill="#4FAD50"/>
<path d="M27.6953 10V21.514H30.9851C30.9851 21.514 31.8075 21.514 32.2561 20.6916C34.4991 16.2804 35.1719 14.9346 35.1719 14.9346H35.6206V21.514H39.3589V10H36.0692C36.0692 10 35.2467 10.0748 34.7981 10.8224C32.929 14.6355 31.8822 16.5794 31.8822 16.5794H31.4336V10H27.6953Z" fill="#4FAD50"/>
<path d="M12 21.5882V10.0742H15.7383C15.7383 10.0742 16.7851 10.0742 17.3832 11.7191C18.8785 16.0555 19.0281 16.6537 19.0281 16.6537C19.0281 16.6537 19.3271 15.6069 20.6729 11.7191C21.271 10.0742 22.3178 10.0742 22.3178 10.0742H26.0561V21.5882H22.3178V15.3826H21.8692L19.7757 21.5882H18.1309L16.0374 15.3826H15.5888V21.5882H12Z" fill="#4FAD50"/>
</g>
<defs>
<linearGradient id="paint0_linear_2601_28054" x1="40.1742" y1="12.5027" x2="51.9741" y2="12.5027" gradientUnits="userSpaceOnUse">
<stop stop-color="#27B1E6"/>
<stop offset="1" stop-color="#148ACA"/>
</linearGradient>
<clipPath id="clip0_2601_28054">
<rect y="0.118164" width="64" height="32" rx="6" fill="white"/>
</clipPath>
</defs>
</svg>
