<svg width="51" height="78" viewBox="0 0 51 78" fill="none" xmlns="http://www.w3.org/2000/svg">
<path d="M25.5 2.5C28.4547 2.5 31.3806 3.08198 34.1104 4.21271C36.8402 5.34344 39.3206 7.00078 41.4099 9.0901C43.4992 11.1794 45.1566 13.6598 46.2873 16.3896C47.418 19.1195 48 22.0453 48 25C48 27.9547 47.418 30.8806 46.2873 33.6104C45.1566 36.3402 43.4992 38.8206 41.4099 40.9099C39.3206 42.9992 36.8402 44.6566 34.1104 45.7873C31.3805 46.918 28.4547 47.5 25.5 47.5C22.5452 47.5 19.6194 46.918 16.8896 45.7873C14.1598 44.6566 11.6794 42.9992 9.59009 40.9099C7.50077 38.8206 5.84344 36.3402 4.71271 33.6104C3.58198 30.8805 3 27.9547 3 25C3 22.0452 3.58198 19.1194 4.71272 16.3896C5.84345 13.6598 7.50079 11.1794 9.59011 9.09009C11.6794 7.00077 14.1598 5.34343 16.8896 4.21271C19.6195 3.08198 22.5453 2.5 25.5 2.5L25.5 2.5Z" stroke="#DDF0BA" stroke-width="5"/>
<path d="M21.5929 2.84183C24.8846 2.26142 28.2642 2.42167 31.4862 3.31093C34.7082 4.2002 37.6915 5.79613 40.2195 7.98276C42.7475 10.1694 44.7565 12.8918 46.1006 15.952C47.4447 19.0123 48.0901 22.3336 47.9899 25.6746C47.8897 29.0155 47.0464 32.2921 45.5213 35.2664C43.9962 38.2406 41.8276 40.8377 39.1731 42.8688C36.5187 44.9 33.445 46.3143 30.1755 47.0089C26.906 47.7034 23.5229 47.6608 20.2719 46.8842" stroke="#9BD03D" stroke-width="5" stroke-linecap="round" stroke-linejoin="round"/>
<path d="M16.685 29.656C16.405 29.656 16.129 29.64 15.857 29.608C15.589 29.576 15.331 29.532 15.083 29.476C14.835 29.416 14.605 29.348 14.393 29.272C14.181 29.196 13.991 29.116 13.823 29.032L13.961 27.352C14.177 27.464 14.393 27.566 14.609 27.658C14.829 27.75 15.047 27.83 15.263 27.898C15.483 27.962 15.697 28.012 15.905 28.048C16.113 28.084 16.315 28.102 16.511 28.102C17.023 28.102 17.397 27.988 17.633 27.76C17.869 27.532 17.987 27.212 17.987 26.8C17.987 26.504 17.925 26.264 17.801 26.08C17.681 25.892 17.509 25.754 17.285 25.666C17.065 25.578 16.807 25.534 16.511 25.534C16.271 25.534 16.031 25.562 15.791 25.618C15.555 25.674 15.317 25.778 15.077 25.93L14.285 25.87V24.49C14.285 23.91 14.285 23.348 14.285 22.804C14.285 22.26 14.285 21.74 14.285 21.244H19.469V22.828C19.001 22.828 18.527 22.828 18.047 22.828C17.571 22.828 17.099 22.828 16.631 22.828H15.443L15.995 22.246C15.995 22.55 15.991 22.854 15.983 23.158C15.979 23.462 15.973 23.764 15.965 24.064L15.959 24.49H16.103C16.307 24.39 16.519 24.314 16.739 24.262C16.963 24.21 17.193 24.184 17.429 24.184C17.885 24.184 18.299 24.28 18.671 24.472C19.047 24.664 19.345 24.954 19.565 25.342C19.785 25.726 19.895 26.204 19.895 26.776C19.895 27.348 19.777 27.85 19.541 28.282C19.309 28.714 18.955 29.052 18.479 29.296C18.007 29.536 17.409 29.656 16.685 29.656ZM23.7231 29.656C23.4351 29.656 23.1531 29.64 22.8771 29.608C22.6051 29.576 22.3431 29.532 22.0911 29.476C21.8431 29.416 21.6111 29.348 21.3951 29.272C21.1831 29.196 20.9911 29.116 20.8191 29.032L20.9571 27.352C21.1731 27.464 21.3911 27.566 21.6111 27.658C21.8311 27.75 22.0491 27.83 22.2651 27.898C22.4851 27.962 22.7011 28.012 22.9131 28.048C23.1291 28.084 23.3351 28.102 23.5311 28.102C24.0511 28.102 24.4231 28.006 24.6471 27.814C24.8711 27.618 24.9831 27.368 24.9831 27.064C24.9831 26.708 24.8391 26.44 24.5511 26.26C24.2631 26.076 23.8511 25.984 23.3151 25.984C23.1391 25.984 22.9671 25.984 22.7991 25.984C22.6351 25.984 22.4691 25.984 22.3011 25.984V24.628C22.4491 24.628 22.5971 24.628 22.7451 24.628C22.8971 24.628 23.0491 24.628 23.2011 24.628C23.5651 24.628 23.8611 24.586 24.0891 24.502C24.3171 24.414 24.4831 24.292 24.5871 24.136C24.6951 23.98 24.7491 23.798 24.7491 23.59C24.7491 23.27 24.6311 23.032 24.3951 22.876C24.1631 22.716 23.8551 22.636 23.4711 22.636C23.2831 22.636 23.0891 22.656 22.8891 22.696C22.6931 22.736 22.4951 22.792 22.2951 22.864C22.0951 22.932 21.8971 23.014 21.7011 23.11C21.5051 23.206 21.3151 23.314 21.1311 23.434L20.9631 21.73C21.1431 21.642 21.3411 21.558 21.5571 21.478C21.7731 21.398 22.0031 21.328 22.2471 21.268C22.4911 21.208 22.7431 21.16 23.0031 21.124C23.2631 21.088 23.5231 21.07 23.7831 21.07C24.3911 21.07 24.9091 21.158 25.3371 21.334C25.7651 21.506 26.0911 21.752 26.3151 22.072C26.5431 22.388 26.6571 22.762 26.6571 23.194C26.6571 23.538 26.5891 23.836 26.4531 24.088C26.3171 24.34 26.1331 24.546 25.9011 24.706C25.6731 24.862 25.4191 24.97 25.1391 25.03V25.174C25.3511 25.214 25.5611 25.284 25.7691 25.384C25.9771 25.48 26.1651 25.612 26.3331 25.78C26.5011 25.948 26.6351 26.152 26.7351 26.392C26.8351 26.632 26.8851 26.914 26.8851 27.238C26.8851 27.702 26.7711 28.118 26.5431 28.486C26.3191 28.85 25.9731 29.136 25.5051 29.344C25.0411 29.552 24.4471 29.656 23.7231 29.656ZM29.6335 29.5C29.8935 29.06 30.1495 28.628 30.4015 28.204C30.6535 27.776 30.9395 27.29 31.2595 26.746L33.0175 23.77C33.2375 23.398 33.4395 23.056 33.6235 22.744C33.8075 22.428 33.9855 22.126 34.1575 21.838C34.3295 21.546 34.5055 21.248 34.6855 20.944H36.2695C36.0935 21.248 35.9195 21.546 35.7475 21.838C35.5755 22.126 35.3955 22.428 35.2075 22.744C35.0235 23.056 34.8215 23.398 34.6015 23.77L32.8435 26.746C32.5235 27.29 32.2375 27.776 31.9855 28.204C31.7335 28.628 31.4775 29.06 31.2175 29.5H29.6335ZM30.0715 25.144C29.5995 25.144 29.1835 25.056 28.8235 24.88C28.4675 24.704 28.1875 24.452 27.9835 24.124C27.7835 23.796 27.6835 23.406 27.6835 22.954C27.6835 22.538 27.7835 22.166 27.9835 21.838C28.1875 21.51 28.4675 21.25 28.8235 21.058C29.1835 20.866 29.6015 20.77 30.0775 20.77C30.5495 20.77 30.9635 20.866 31.3195 21.058C31.6795 21.25 31.9595 21.51 32.1595 21.838C32.3595 22.166 32.4595 22.538 32.4595 22.954C32.4595 23.406 32.3595 23.796 32.1595 24.124C31.9595 24.452 31.6795 24.704 31.3195 24.88C30.9635 25.056 30.5475 25.144 30.0715 25.144ZM30.0715 24.028C30.4075 24.028 30.6675 23.934 30.8515 23.746C31.0395 23.554 31.1335 23.294 31.1335 22.966C31.1335 22.766 31.0915 22.586 31.0075 22.426C30.9235 22.262 30.8015 22.132 30.6415 22.036C30.4855 21.94 30.2975 21.892 30.0775 21.892C29.7455 21.892 29.4835 21.994 29.2915 22.198C29.1035 22.398 29.0095 22.654 29.0095 22.966C29.0095 23.294 29.1035 23.554 29.2915 23.746C29.4835 23.934 29.7435 24.028 30.0715 24.028ZM35.8375 29.662C35.3615 29.662 34.9435 29.574 34.5835 29.398C34.2275 29.222 33.9495 28.97 33.7495 28.642C33.5495 28.314 33.4495 27.924 33.4495 27.472C33.4495 27.056 33.5495 26.684 33.7495 26.356C33.9495 26.028 34.2295 25.768 34.5895 25.576C34.9495 25.384 35.3655 25.288 35.8375 25.288C36.3135 25.288 36.7295 25.384 37.0855 25.576C37.4455 25.768 37.7255 26.028 37.9255 26.356C38.1255 26.684 38.2255 27.056 38.2255 27.472C38.2255 27.924 38.1255 28.314 37.9255 28.642C37.7255 28.97 37.4455 29.222 37.0855 29.398C36.7255 29.574 36.3095 29.662 35.8375 29.662ZM35.8375 28.54C36.1695 28.54 36.4295 28.446 36.6175 28.258C36.8055 28.07 36.8995 27.812 36.8995 27.484C36.8995 27.28 36.8555 27.098 36.7675 26.938C36.6835 26.778 36.5635 26.65 36.4075 26.554C36.2515 26.458 36.0615 26.41 35.8375 26.41C35.5095 26.41 35.2495 26.512 35.0575 26.716C34.8695 26.916 34.7755 27.172 34.7755 27.484C34.7755 27.812 34.8695 28.07 35.0575 28.258C35.2495 28.446 35.5095 28.54 35.8375 28.54Z" fill="#040E07"/>
<path d="M9.368 74.675C8.60733 74.675 7.94467 74.5047 7.38 74.164C6.82 73.8233 6.38833 73.296 6.085 72.582C5.78167 71.868 5.63 70.951 5.63 69.831C5.63 68.7343 5.75367 67.7987 6.001 67.024C6.253 66.2447 6.66367 65.6333 7.233 65.19C7.80233 64.7467 8.57233 64.4807 9.543 64.392C9.65033 64.3827 9.82067 64.3663 10.054 64.343C10.2873 64.3197 10.5463 64.294 10.831 64.266C11.1157 64.238 11.398 64.2123 11.678 64.189C11.9627 64.161 12.21 64.1377 12.42 64.119L12.553 65.764C12.3383 65.7827 12.0863 65.8037 11.797 65.827C11.5077 65.8503 11.216 65.8737 10.922 65.897C10.6327 65.9203 10.376 65.9413 10.152 65.96C9.928 65.9787 9.774 65.9927 9.69 66.002C9.074 66.0627 8.584 66.226 8.22 66.492C7.86067 66.758 7.604 67.1547 7.45 67.682C7.30067 68.2093 7.22133 68.8907 7.212 69.726L7.52 69.908C7.52 70.412 7.55967 70.867 7.639 71.273C7.71833 71.679 7.83733 72.0267 7.996 72.316C8.15467 72.6007 8.346 72.82 8.57 72.974C8.79867 73.128 9.06233 73.205 9.361 73.205C9.74833 73.205 10.0657 73.107 10.313 72.911C10.565 72.715 10.7517 72.4537 10.873 72.127C10.999 71.8003 11.062 71.4387 11.062 71.042C11.062 70.6687 11.006 70.3327 10.894 70.034C10.7867 69.7307 10.6117 69.4903 10.369 69.313C10.131 69.131 9.81833 69.04 9.431 69.04C9.235 69.04 9.018 69.0797 8.78 69.159C8.54667 69.2383 8.30867 69.3643 8.066 69.537C7.828 69.7097 7.604 69.9383 7.394 70.223C7.24 70.1063 7.13733 69.9617 7.086 69.789C7.03467 69.6163 7.016 69.446 7.03 69.278C7.044 69.1053 7.072 68.963 7.114 68.851H7.38C7.604 68.5757 7.85833 68.354 8.143 68.186C8.43233 68.018 8.74033 67.8943 9.067 67.815C9.39367 67.731 9.72267 67.689 10.054 67.689C10.6887 67.689 11.216 67.8313 11.636 68.116C12.056 68.396 12.3687 68.7857 12.574 69.285C12.784 69.7797 12.889 70.3467 12.889 70.986C12.889 71.7047 12.749 72.3417 12.469 72.897C12.1937 73.4523 11.7923 73.8887 11.265 74.206C10.7423 74.5187 10.11 74.675 9.368 74.675ZM17.8032 74.675C16.9259 74.675 16.2072 74.5163 15.6472 74.199C15.0872 73.8817 14.6742 73.4453 14.4082 72.89C14.1422 72.3347 14.0092 71.7 14.0092 70.986C14.0092 70.2767 14.1352 69.649 14.3872 69.103C14.6439 68.5523 15.0196 68.123 15.5142 67.815C16.0089 67.507 16.6156 67.353 17.3342 67.353C17.9549 67.353 18.4846 67.4673 18.9232 67.696C19.3666 67.92 19.7072 68.2583 19.9452 68.711C20.1832 69.159 20.3022 69.7237 20.3022 70.405C20.3022 70.587 20.2976 70.7503 20.2882 70.895C20.2836 71.0397 20.2696 71.182 20.2462 71.322L18.6992 70.699C18.7086 70.6337 18.7156 70.5683 18.7202 70.503C18.7249 70.433 18.7272 70.3677 18.7272 70.307C18.7272 69.7937 18.5989 69.3923 18.3422 69.103C18.0856 68.809 17.7542 68.662 17.3482 68.662C17.0402 68.662 16.7696 68.7507 16.5362 68.928C16.3029 69.1007 16.1186 69.3433 15.9832 69.656C15.8479 69.9687 15.7802 70.3303 15.7802 70.741V71.014C15.7802 71.4667 15.8596 71.8563 16.0182 72.183C16.1769 72.505 16.4219 72.7547 16.7532 72.932C17.0846 73.1047 17.5022 73.191 18.0062 73.191C18.2022 73.191 18.4216 73.1747 18.6642 73.142C18.9116 73.1047 19.1612 73.0487 19.4132 72.974C19.6652 72.8993 19.9009 72.8037 20.1202 72.687L20.1762 74.213C19.9989 74.3017 19.7912 74.381 19.5532 74.451C19.3152 74.521 19.0492 74.5747 18.7552 74.612C18.4612 74.654 18.1439 74.675 17.8032 74.675ZM14.7092 71.322V70.209L19.1962 70.132L20.2462 70.531V71.322H14.7092ZM21.945 74.647C21.847 74.647 21.7374 74.6423 21.616 74.633C21.4994 74.6237 21.385 74.6097 21.273 74.591C21.1657 74.577 21.07 74.556 20.986 74.528L21.063 73.044C21.1377 73.058 21.21 73.0697 21.28 73.079C21.3547 73.0837 21.413 73.086 21.455 73.086C21.6837 73.086 21.8657 72.9997 22.001 72.827C22.141 72.6543 22.2484 72.4257 22.323 72.141C22.3977 71.8517 22.4537 71.5343 22.491 71.189C22.5284 70.839 22.5564 70.489 22.575 70.139C22.603 69.691 22.631 69.2477 22.659 68.809C22.6917 68.3657 22.722 67.9387 22.75 67.528H28.175C28.175 67.864 28.175 68.1953 28.175 68.522C28.175 68.844 28.175 69.187 28.175 69.551C28.175 69.9103 28.175 70.314 28.175 70.762V71.462C28.175 72.0407 28.175 72.5657 28.175 73.037C28.175 73.5083 28.175 73.996 28.175 74.5H26.397C26.397 73.996 26.397 73.5083 26.397 73.037C26.397 72.5657 26.397 72.0407 26.397 71.462V70.762C26.397 70.3513 26.397 69.9827 26.397 69.656C26.397 69.3293 26.397 69.019 26.397 68.725C26.397 68.431 26.397 68.1253 26.397 67.808L27.454 68.935H23.471L24.332 67.808C24.3087 68.116 24.2854 68.4427 24.262 68.788C24.2387 69.1287 24.213 69.4693 24.185 69.81C24.1617 70.146 24.1384 70.4727 24.115 70.79C24.073 71.3407 24.017 71.8517 23.947 72.323C23.8817 72.7897 23.7767 73.198 23.632 73.548C23.4874 73.8933 23.2797 74.164 23.009 74.36C22.743 74.5513 22.3884 74.647 21.945 74.647ZM29.9928 74.5C29.9928 73.996 29.9928 73.5083 29.9928 73.037C29.9928 72.5657 29.9928 72.0407 29.9928 71.462V70.692C29.9928 70.244 29.9928 69.845 29.9928 69.495C29.9928 69.145 29.9928 68.8137 29.9928 68.501C29.9928 68.1883 29.9928 67.864 29.9928 67.528L31.7708 67.472C31.7708 67.9713 31.7708 68.466 31.7708 68.956C31.7708 69.4413 31.7708 69.95 31.7708 70.482V71.798C31.7708 72.2833 31.7708 72.7407 31.7708 73.17C31.7708 73.5947 31.7708 74.038 31.7708 74.5H29.9928ZM34.5078 74.5C34.2698 74.2013 34.0272 73.905 33.7798 73.611C33.5372 73.3123 33.2922 73.0183 33.0448 72.729L32.1208 71.609H31.6098V70.405H32.1698L32.9678 69.39C33.2152 69.082 33.4602 68.7717 33.7028 68.459C33.9502 68.1463 34.1952 67.836 34.4378 67.528H36.5308C36.1762 67.9433 35.8215 68.3587 35.4668 68.774C35.1122 69.1893 34.7598 69.6023 34.4098 70.013L33.3598 71.238L33.2828 70.433L34.5498 71.98C34.9138 72.4 35.2755 72.8223 35.6348 73.247C35.9988 73.667 36.3605 74.0847 36.7198 74.5H34.5078ZM37.8132 74.5C37.8132 73.9913 37.8132 73.5037 37.8132 73.037C37.8132 72.5657 37.8132 72.0407 37.8132 71.462V70.762C37.8132 70.314 37.8132 69.9103 37.8132 69.551C37.8132 69.1917 37.8132 68.8487 37.8132 68.522C37.8132 68.1953 37.8132 67.864 37.8132 67.528L39.5282 67.479C39.5282 67.7917 39.5282 68.102 39.5282 68.41C39.5282 68.718 39.5282 69.0447 39.5282 69.39C39.5282 69.7307 39.5282 70.111 39.5282 70.531V72.071H39.6402L40.7952 70.09C41.0518 69.6607 41.3038 69.2313 41.5512 68.802C41.8032 68.368 42.0505 67.9433 42.2932 67.528H44.1202C44.1202 67.864 44.1202 68.1953 44.1202 68.522C44.1202 68.8487 44.1202 69.1917 44.1202 69.551C44.1202 69.9103 44.1202 70.314 44.1202 70.762V71.462C44.1202 72.0407 44.1202 72.5657 44.1202 73.037C44.1202 73.5037 44.1202 73.9913 44.1202 74.5H42.4192C42.4192 74.0053 42.4192 73.527 42.4192 73.065C42.4192 72.5983 42.4192 72.0827 42.4192 71.518V69.95H42.2932L41.1592 71.903C40.9072 72.3417 40.6552 72.778 40.4032 73.212C40.1512 73.646 39.8992 74.0753 39.6472 74.5H37.8132Z" fill="#9BD03D"/>
</svg>
