<svg width="20" height="20" viewBox="0 0 20 20" fill="none" xmlns="http://www.w3.org/2000/svg">
<path d="M15.2812 5.03483H11.1146C10.8299 5.03483 10.5938 4.79872 10.5938 4.514C10.5938 4.22928 10.8299 3.99316 11.1146 3.99316H15.2812C15.566 3.99316 15.8021 4.22928 15.8021 4.514C15.8021 4.79872 15.566 5.03483 15.2812 5.03483Z" fill="#4F5651"/>
<path d="M4.1658 5.03483H1.38802C1.1033 5.03483 0.867188 4.79872 0.867188 4.514C0.867188 4.22928 1.1033 3.99316 1.38802 3.99316H4.1658C4.45052 3.99316 4.68663 4.22928 4.68663 4.514C4.68663 4.79872 4.45052 5.03483 4.1658 5.03483Z" fill="#4F5651"/>
<path d="M6.94358 7.46528C5.31858 7.46528 3.99219 6.13889 3.99219 4.51389C3.99219 2.88889 5.31858 1.5625 6.94358 1.5625C8.56858 1.5625 9.89497 2.88889 9.89497 4.51389C9.89497 6.13889 8.56858 7.46528 6.94358 7.46528ZM6.94358 2.60417C5.88802 2.60417 5.03385 3.45833 5.03385 4.51389C5.03385 5.56944 5.88802 6.42361 6.94358 6.42361C7.99913 6.42361 8.8533 5.56944 8.8533 4.51389C8.8533 3.45833 7.99913 2.60417 6.94358 2.60417Z" fill="#4F5651"/>
<path d="M15.2752 12.6735H12.4974C12.2127 12.6735 11.9766 12.4374 11.9766 12.1527C11.9766 11.8679 12.2127 11.6318 12.4974 11.6318H15.2752C15.5599 11.6318 15.796 11.8679 15.796 12.1527C15.796 12.4374 15.5599 12.6735 15.2752 12.6735Z" fill="#4F5651"/>
<path d="M5.55469 12.6735H1.38802C1.1033 12.6735 0.867188 12.4374 0.867188 12.1527C0.867188 11.8679 1.1033 11.6318 1.38802 11.6318H5.55469C5.83941 11.6318 6.07552 11.8679 6.07552 12.1527C6.07552 12.4374 5.83941 12.6735 5.55469 12.6735Z" fill="#4F5651"/>
<path d="M9.72483 15.1039C8.09983 15.1039 6.77344 13.7776 6.77344 12.1526C6.77344 10.5276 8.09983 9.20117 9.72483 9.20117C11.3498 9.20117 12.6762 10.5276 12.6762 12.1526C12.6762 13.7776 11.3498 15.1039 9.72483 15.1039ZM9.72483 10.2428C8.66927 10.2428 7.8151 11.097 7.8151 12.1526C7.8151 13.2081 8.66927 14.0623 9.72483 14.0623C10.7804 14.0623 11.6345 13.2081 11.6345 12.1526C11.6345 11.097 10.7804 10.2428 9.72483 10.2428Z" fill="#4F5651"/>
</svg>
