<svg width="60" height="60" viewBox="0 0 60 60" fill="none" xmlns="http://www.w3.org/2000/svg">
<rect width="60" height="60" rx="30" fill="#F2F9E5"/>
<rect x="8" y="8" width="44" height="44" rx="22" fill="#A9D953"/>
<path d="M25.0778 39.808C27.7858 39.808 29.9818 37.612 29.9818 34.904C29.9818 32.196 27.7868 30 25.0778 30C22.3688 30 20.1738 32.196 20.1738 34.904" stroke="white" stroke-width="1.5" stroke-linecap="round" stroke-linejoin="round"/>
<path d="M25.083 39.8128C24.345 39.8128 23.646 39.6498 23.018 39.3588L20 39.9998L20.631 36.9758C20.338 36.3458 20.174 35.6438 20.174 34.9038" stroke="white" stroke-width="1.5" stroke-linecap="round" stroke-linejoin="round"/>
<path d="M24.557 30.0278C24.199 29.2068 24 28.3118 24 27.3728C24 23.3558 27.598 20.1328 32 20.1328C36.402 20.1328 40 23.3558 40 27.3728C40 29.7468 38.738 31.8368 36.801 33.1548C36.802 33.9108 36.8 34.9298 36.8 35.9998L33.661 34.4538C33.124 34.5568 32.569 34.6128 32 34.6128C31.293 34.6128 30.607 34.5288 29.953 34.3718" stroke="white" stroke-width="1.5" stroke-linecap="round" stroke-linejoin="round"/>
</svg>
