<svg width="40" height="41" viewBox="0 0 40 41" fill="none" xmlns="http://www.w3.org/2000/svg">
<rect y="0.236328" width="40" height="40" rx="20" fill="#2787F5"/>
<path fill-rule="evenodd" clip-rule="evenodd" d="M31.6733 14.4769C31.8423 13.9481 31.6733 13.5596 30.8688 13.5596H28.2084C27.532 13.5596 27.2202 13.8952 27.051 14.2653C27.051 14.2653 25.6982 17.3587 23.7817 19.368C23.1616 19.9496 22.8798 20.1347 22.5416 20.1347C22.3725 20.1347 22.1277 19.9496 22.1277 19.4209V14.4769C22.1277 13.8424 21.9314 13.5596 21.3676 13.5596H17.1872C16.7644 13.5596 16.5102 13.8541 16.5102 14.1332C16.5102 14.7347 17.4684 14.8734 17.5672 16.5655V20.2405C17.5672 21.0462 17.4121 21.1923 17.0739 21.1923C16.172 21.1923 13.9782 18.0851 12.6771 14.5298C12.4221 13.8387 12.1664 13.5596 11.4865 13.5596H8.82618C8.06609 13.5596 7.91406 13.8952 7.91406 14.2653C7.91406 14.9263 8.81597 18.2047 12.1135 22.5406C14.3118 25.5017 17.4091 27.1068 20.2275 27.1068C21.9185 27.1068 22.1277 26.7503 22.1277 26.1362V23.8983C22.1277 23.1853 22.2879 23.043 22.8234 23.043C23.218 23.043 23.8944 23.228 25.4728 24.6557C27.2765 26.3477 27.5739 27.1068 28.5885 27.1068H31.2488C32.0089 27.1068 32.3889 26.7503 32.1697 26.0468C31.9298 25.3456 31.0686 24.3282 29.9258 23.1223C29.3058 22.4349 28.3757 21.6946 28.0938 21.3244C27.6993 20.8486 27.812 20.637 28.0938 20.214C28.0938 20.214 31.3351 15.931 31.6733 14.4769Z" fill="white"/>
</svg>
