<svg width="40" height="40" viewBox="0 0 40 40" fill="none" xmlns="http://www.w3.org/2000/svg">
<rect width="40" height="40" rx="20" fill="#00D95F"/>
<path d="M10 29.26L11.435 23.9245C10.2777 21.846 9.91003 19.4206 10.3994 17.0934C10.8888 14.7662 12.2024 12.6932 14.0992 11.2548C15.996 9.81643 18.3487 9.10919 20.7256 9.26285C23.1026 9.41651 25.3443 10.4208 27.0394 12.0913C28.7345 13.7619 29.7694 15.9867 29.9541 18.3575C30.1387 20.7283 29.4608 23.0861 28.0447 24.9982C26.6286 26.9103 24.5694 28.2485 22.2448 28.7671C19.9202 29.2857 17.4863 28.9501 15.3896 27.8217L10 29.26ZM15.6494 25.8252L15.9827 26.0226C17.5014 26.9212 19.2752 27.2931 21.0277 27.0803C22.7802 26.8674 24.4129 26.0818 25.6715 24.8458C26.9301 23.6098 27.7437 21.9929 27.9857 20.2471C28.2277 18.5012 27.8844 16.7245 27.0093 15.1937C26.1342 13.663 24.7765 12.4643 23.1478 11.7843C21.519 11.1044 19.7108 10.9814 18.0047 11.4346C16.2986 11.8878 14.7907 12.8916 13.7158 14.2898C12.6409 15.6879 12.0594 17.4018 12.062 19.1642C12.0606 20.6256 12.4654 22.0587 13.2315 23.3041L13.4405 23.6481L12.6383 26.6261L15.6494 25.8252Z" fill="white"/>
<path fill-rule="evenodd" clip-rule="evenodd" d="M23.7365 20.5339C23.5411 20.3765 23.3123 20.2658 23.0675 20.2101C22.8228 20.1544 22.5685 20.1552 22.3241 20.2124C21.9569 20.3647 21.7196 20.94 21.4823 21.2276C21.4323 21.2965 21.3588 21.3449 21.2756 21.3636C21.1924 21.3823 21.1052 21.37 21.0304 21.3291C19.686 20.8034 18.5591 19.8394 17.8328 18.5937C17.7709 18.5159 17.7415 18.4172 17.751 18.3184C17.7605 18.2195 17.8081 18.1281 17.8837 18.0635C18.1483 17.802 18.3426 17.478 18.4486 17.1216C18.4721 16.7285 18.3819 16.337 18.1887 15.9936C18.0394 15.5123 17.7551 15.0837 17.3696 14.7584C17.1707 14.6692 16.9502 14.6392 16.7347 14.6722C16.5192 14.7053 16.3178 14.7998 16.1549 14.9446C15.8722 15.1881 15.6477 15.4919 15.4981 15.8335C15.3485 16.1752 15.2776 16.546 15.2906 16.9186C15.2914 17.1278 15.318 17.3362 15.3697 17.539C15.5008 18.0262 15.7026 18.4918 15.9685 18.9208C16.1604 19.2495 16.3697 19.5676 16.5956 19.874C17.3298 20.8802 18.2526 21.7345 19.313 22.3894C19.845 22.7223 20.4137 22.9929 21.0078 23.196C21.6249 23.4752 22.3062 23.5824 22.9794 23.5062C23.363 23.4482 23.7264 23.297 24.0377 23.0659C24.349 22.8348 24.5987 22.5308 24.7647 22.1808C24.8622 21.9693 24.8918 21.7329 24.8494 21.504C24.7477 21.0358 24.1206 20.7595 23.7365 20.5339Z" fill="white"/>
</svg>
