<svg width="51" height="78" viewBox="0 0 51 78" fill="none" xmlns="http://www.w3.org/2000/svg">
<path d="M25.5 3C28.4547 3 31.3806 3.58198 34.1104 4.71271C36.8402 5.84344 39.3206 7.50078 41.4099 9.5901C43.4992 11.6794 45.1566 14.1598 46.2873 16.8896C47.418 19.6195 48 22.5453 48 25.5C48 28.4547 47.418 31.3806 46.2873 34.1104C45.1566 36.8402 43.4992 39.3206 41.4099 41.4099C39.3206 43.4992 36.8402 45.1566 34.1104 46.2873C31.3805 47.418 28.4547 48 25.5 48C22.5452 48 19.6194 47.418 16.8896 46.2873C14.1598 45.1566 11.6794 43.4992 9.59009 41.4099C7.50077 39.3206 5.84344 36.8402 4.71271 34.1104C3.58198 31.3805 3 28.4547 3 25.5C3 22.5452 3.58198 19.6194 4.71272 16.8896C5.84345 14.1598 7.50079 11.6794 9.59011 9.59009C11.6794 7.50077 14.1598 5.84343 16.8896 4.71271C19.6195 3.58198 22.5453 3 25.5 3L25.5 3Z" stroke="#DDF0BA" stroke-width="5"/>
<path d="M21.5929 3.34183C24.8846 2.76142 28.2642 2.92167 31.4862 3.81093C34.7082 4.7002 37.6915 6.29613 40.2195 8.48276C42.7475 10.6694 44.7565 13.3918 46.1006 16.452C47.4447 19.5123 48.0901 22.8336 47.9899 26.1746C47.8897 29.5155 47.0464 32.7921 45.5213 35.7664C43.9962 38.7406 41.8276 41.3377 39.1731 43.3688C36.5187 45.4 33.445 46.8143 30.1755 47.5089C26.906 48.2034 23.5229 48.1608 20.2719 47.3842" stroke="#9BD03D" stroke-width="5" stroke-linecap="round" stroke-linejoin="round"/>
<path d="M16.685 30.156C16.405 30.156 16.129 30.14 15.857 30.108C15.589 30.076 15.331 30.032 15.083 29.976C14.835 29.916 14.605 29.848 14.393 29.772C14.181 29.696 13.991 29.616 13.823 29.532L13.961 27.852C14.177 27.964 14.393 28.066 14.609 28.158C14.829 28.25 15.047 28.33 15.263 28.398C15.483 28.462 15.697 28.512 15.905 28.548C16.113 28.584 16.315 28.602 16.511 28.602C17.023 28.602 17.397 28.488 17.633 28.26C17.869 28.032 17.987 27.712 17.987 27.3C17.987 27.004 17.925 26.764 17.801 26.58C17.681 26.392 17.509 26.254 17.285 26.166C17.065 26.078 16.807 26.034 16.511 26.034C16.271 26.034 16.031 26.062 15.791 26.118C15.555 26.174 15.317 26.278 15.077 26.43L14.285 26.37V24.99C14.285 24.41 14.285 23.848 14.285 23.304C14.285 22.76 14.285 22.24 14.285 21.744H19.469V23.328C19.001 23.328 18.527 23.328 18.047 23.328C17.571 23.328 17.099 23.328 16.631 23.328H15.443L15.995 22.746C15.995 23.05 15.991 23.354 15.983 23.658C15.979 23.962 15.973 24.264 15.965 24.564L15.959 24.99H16.103C16.307 24.89 16.519 24.814 16.739 24.762C16.963 24.71 17.193 24.684 17.429 24.684C17.885 24.684 18.299 24.78 18.671 24.972C19.047 25.164 19.345 25.454 19.565 25.842C19.785 26.226 19.895 26.704 19.895 27.276C19.895 27.848 19.777 28.35 19.541 28.782C19.309 29.214 18.955 29.552 18.479 29.796C18.007 30.036 17.409 30.156 16.685 30.156ZM23.7231 30.156C23.4351 30.156 23.1531 30.14 22.8771 30.108C22.6051 30.076 22.3431 30.032 22.0911 29.976C21.8431 29.916 21.6111 29.848 21.3951 29.772C21.1831 29.696 20.9911 29.616 20.8191 29.532L20.9571 27.852C21.1731 27.964 21.3911 28.066 21.6111 28.158C21.8311 28.25 22.0491 28.33 22.2651 28.398C22.4851 28.462 22.7011 28.512 22.9131 28.548C23.1291 28.584 23.3351 28.602 23.5311 28.602C24.0511 28.602 24.4231 28.506 24.6471 28.314C24.8711 28.118 24.9831 27.868 24.9831 27.564C24.9831 27.208 24.8391 26.94 24.5511 26.76C24.2631 26.576 23.8511 26.484 23.3151 26.484C23.1391 26.484 22.9671 26.484 22.7991 26.484C22.6351 26.484 22.4691 26.484 22.3011 26.484V25.128C22.4491 25.128 22.5971 25.128 22.7451 25.128C22.8971 25.128 23.0491 25.128 23.2011 25.128C23.5651 25.128 23.8611 25.086 24.0891 25.002C24.3171 24.914 24.4831 24.792 24.5871 24.636C24.6951 24.48 24.7491 24.298 24.7491 24.09C24.7491 23.77 24.6311 23.532 24.3951 23.376C24.1631 23.216 23.8551 23.136 23.4711 23.136C23.2831 23.136 23.0891 23.156 22.8891 23.196C22.6931 23.236 22.4951 23.292 22.2951 23.364C22.0951 23.432 21.8971 23.514 21.7011 23.61C21.5051 23.706 21.3151 23.814 21.1311 23.934L20.9631 22.23C21.1431 22.142 21.3411 22.058 21.5571 21.978C21.7731 21.898 22.0031 21.828 22.2471 21.768C22.4911 21.708 22.7431 21.66 23.0031 21.624C23.2631 21.588 23.5231 21.57 23.7831 21.57C24.3911 21.57 24.9091 21.658 25.3371 21.834C25.7651 22.006 26.0911 22.252 26.3151 22.572C26.5431 22.888 26.6571 23.262 26.6571 23.694C26.6571 24.038 26.5891 24.336 26.4531 24.588C26.3171 24.84 26.1331 25.046 25.9011 25.206C25.6731 25.362 25.4191 25.47 25.1391 25.53V25.674C25.3511 25.714 25.5611 25.784 25.7691 25.884C25.9771 25.98 26.1651 26.112 26.3331 26.28C26.5011 26.448 26.6351 26.652 26.7351 26.892C26.8351 27.132 26.8851 27.414 26.8851 27.738C26.8851 28.202 26.7711 28.618 26.5431 28.986C26.3191 29.35 25.9731 29.636 25.5051 29.844C25.0411 30.052 24.4471 30.156 23.7231 30.156ZM29.6335 30C29.8935 29.56 30.1495 29.128 30.4015 28.704C30.6535 28.276 30.9395 27.79 31.2595 27.246L33.0175 24.27C33.2375 23.898 33.4395 23.556 33.6235 23.244C33.8075 22.928 33.9855 22.626 34.1575 22.338C34.3295 22.046 34.5055 21.748 34.6855 21.444H36.2695C36.0935 21.748 35.9195 22.046 35.7475 22.338C35.5755 22.626 35.3955 22.928 35.2075 23.244C35.0235 23.556 34.8215 23.898 34.6015 24.27L32.8435 27.246C32.5235 27.79 32.2375 28.276 31.9855 28.704C31.7335 29.128 31.4775 29.56 31.2175 30H29.6335ZM30.0715 25.644C29.5995 25.644 29.1835 25.556 28.8235 25.38C28.4675 25.204 28.1875 24.952 27.9835 24.624C27.7835 24.296 27.6835 23.906 27.6835 23.454C27.6835 23.038 27.7835 22.666 27.9835 22.338C28.1875 22.01 28.4675 21.75 28.8235 21.558C29.1835 21.366 29.6015 21.27 30.0775 21.27C30.5495 21.27 30.9635 21.366 31.3195 21.558C31.6795 21.75 31.9595 22.01 32.1595 22.338C32.3595 22.666 32.4595 23.038 32.4595 23.454C32.4595 23.906 32.3595 24.296 32.1595 24.624C31.9595 24.952 31.6795 25.204 31.3195 25.38C30.9635 25.556 30.5475 25.644 30.0715 25.644ZM30.0715 24.528C30.4075 24.528 30.6675 24.434 30.8515 24.246C31.0395 24.054 31.1335 23.794 31.1335 23.466C31.1335 23.266 31.0915 23.086 31.0075 22.926C30.9235 22.762 30.8015 22.632 30.6415 22.536C30.4855 22.44 30.2975 22.392 30.0775 22.392C29.7455 22.392 29.4835 22.494 29.2915 22.698C29.1035 22.898 29.0095 23.154 29.0095 23.466C29.0095 23.794 29.1035 24.054 29.2915 24.246C29.4835 24.434 29.7435 24.528 30.0715 24.528ZM35.8375 30.162C35.3615 30.162 34.9435 30.074 34.5835 29.898C34.2275 29.722 33.9495 29.47 33.7495 29.142C33.5495 28.814 33.4495 28.424 33.4495 27.972C33.4495 27.556 33.5495 27.184 33.7495 26.856C33.9495 26.528 34.2295 26.268 34.5895 26.076C34.9495 25.884 35.3655 25.788 35.8375 25.788C36.3135 25.788 36.7295 25.884 37.0855 26.076C37.4455 26.268 37.7255 26.528 37.9255 26.856C38.1255 27.184 38.2255 27.556 38.2255 27.972C38.2255 28.424 38.1255 28.814 37.9255 29.142C37.7255 29.47 37.4455 29.722 37.0855 29.898C36.7255 30.074 36.3095 30.162 35.8375 30.162ZM35.8375 29.04C36.1695 29.04 36.4295 28.946 36.6175 28.758C36.8055 28.57 36.8995 28.312 36.8995 27.984C36.8995 27.78 36.8555 27.598 36.7675 27.438C36.6835 27.278 36.5635 27.15 36.4075 27.054C36.2515 26.958 36.0615 26.91 35.8375 26.91C35.5095 26.91 35.2495 27.012 35.0575 27.216C34.8695 27.416 34.7755 27.672 34.7755 27.984C34.7755 28.312 34.8695 28.57 35.0575 28.758C35.2495 28.946 35.5095 29.04 35.8375 29.04Z" fill="#040E07"/>
<path d="M9.368 75.175C8.60733 75.175 7.94467 75.0047 7.38 74.664C6.82 74.3233 6.38833 73.796 6.085 73.082C5.78167 72.368 5.63 71.451 5.63 70.331C5.63 69.2343 5.75367 68.2987 6.001 67.524C6.253 66.7447 6.66367 66.1333 7.233 65.69C7.80233 65.2467 8.57233 64.9807 9.543 64.892C9.65033 64.8827 9.82067 64.8663 10.054 64.843C10.2873 64.8197 10.5463 64.794 10.831 64.766C11.1157 64.738 11.398 64.7123 11.678 64.689C11.9627 64.661 12.21 64.6377 12.42 64.619L12.553 66.264C12.3383 66.2827 12.0863 66.3037 11.797 66.327C11.5077 66.3503 11.216 66.3737 10.922 66.397C10.6327 66.4203 10.376 66.4413 10.152 66.46C9.928 66.4787 9.774 66.4927 9.69 66.502C9.074 66.5627 8.584 66.726 8.22 66.992C7.86067 67.258 7.604 67.6547 7.45 68.182C7.30067 68.7093 7.22133 69.3907 7.212 70.226L7.52 70.408C7.52 70.912 7.55967 71.367 7.639 71.773C7.71833 72.179 7.83733 72.5267 7.996 72.816C8.15467 73.1007 8.346 73.32 8.57 73.474C8.79867 73.628 9.06233 73.705 9.361 73.705C9.74833 73.705 10.0657 73.607 10.313 73.411C10.565 73.215 10.7517 72.9537 10.873 72.627C10.999 72.3003 11.062 71.9387 11.062 71.542C11.062 71.1687 11.006 70.8327 10.894 70.534C10.7867 70.2307 10.6117 69.9903 10.369 69.813C10.131 69.631 9.81833 69.54 9.431 69.54C9.235 69.54 9.018 69.5797 8.78 69.659C8.54667 69.7383 8.30867 69.8643 8.066 70.037C7.828 70.2097 7.604 70.4383 7.394 70.723C7.24 70.6063 7.13733 70.4617 7.086 70.289C7.03467 70.1163 7.016 69.946 7.03 69.778C7.044 69.6053 7.072 69.463 7.114 69.351H7.38C7.604 69.0757 7.85833 68.854 8.143 68.686C8.43233 68.518 8.74033 68.3943 9.067 68.315C9.39367 68.231 9.72267 68.189 10.054 68.189C10.6887 68.189 11.216 68.3313 11.636 68.616C12.056 68.896 12.3687 69.2857 12.574 69.785C12.784 70.2797 12.889 70.8467 12.889 71.486C12.889 72.2047 12.749 72.8417 12.469 73.397C12.1937 73.9523 11.7923 74.3887 11.265 74.706C10.7423 75.0187 10.11 75.175 9.368 75.175ZM17.8032 75.175C16.9259 75.175 16.2072 75.0163 15.6472 74.699C15.0872 74.3817 14.6742 73.9453 14.4082 73.39C14.1422 72.8347 14.0092 72.2 14.0092 71.486C14.0092 70.7767 14.1352 70.149 14.3872 69.603C14.6439 69.0523 15.0196 68.623 15.5142 68.315C16.0089 68.007 16.6156 67.853 17.3342 67.853C17.9549 67.853 18.4846 67.9673 18.9232 68.196C19.3666 68.42 19.7072 68.7583 19.9452 69.211C20.1832 69.659 20.3022 70.2237 20.3022 70.905C20.3022 71.087 20.2976 71.2503 20.2882 71.395C20.2836 71.5397 20.2696 71.682 20.2462 71.822L18.6992 71.199C18.7086 71.1337 18.7156 71.0683 18.7202 71.003C18.7249 70.933 18.7272 70.8677 18.7272 70.807C18.7272 70.2937 18.5989 69.8923 18.3422 69.603C18.0856 69.309 17.7542 69.162 17.3482 69.162C17.0402 69.162 16.7696 69.2507 16.5362 69.428C16.3029 69.6007 16.1186 69.8433 15.9832 70.156C15.8479 70.4687 15.7802 70.8303 15.7802 71.241V71.514C15.7802 71.9667 15.8596 72.3563 16.0182 72.683C16.1769 73.005 16.4219 73.2547 16.7532 73.432C17.0846 73.6047 17.5022 73.691 18.0062 73.691C18.2022 73.691 18.4216 73.6747 18.6642 73.642C18.9116 73.6047 19.1612 73.5487 19.4132 73.474C19.6652 73.3993 19.9009 73.3037 20.1202 73.187L20.1762 74.713C19.9989 74.8017 19.7912 74.881 19.5532 74.951C19.3152 75.021 19.0492 75.0747 18.7552 75.112C18.4612 75.154 18.1439 75.175 17.8032 75.175ZM14.7092 71.822V70.709L19.1962 70.632L20.2462 71.031V71.822H14.7092ZM21.945 75.147C21.847 75.147 21.7374 75.1423 21.616 75.133C21.4994 75.1237 21.385 75.1097 21.273 75.091C21.1657 75.077 21.07 75.056 20.986 75.028L21.063 73.544C21.1377 73.558 21.21 73.5697 21.28 73.579C21.3547 73.5837 21.413 73.586 21.455 73.586C21.6837 73.586 21.8657 73.4997 22.001 73.327C22.141 73.1543 22.2484 72.9257 22.323 72.641C22.3977 72.3517 22.4537 72.0343 22.491 71.689C22.5284 71.339 22.5564 70.989 22.575 70.639C22.603 70.191 22.631 69.7477 22.659 69.309C22.6917 68.8657 22.722 68.4387 22.75 68.028H28.175C28.175 68.364 28.175 68.6953 28.175 69.022C28.175 69.344 28.175 69.687 28.175 70.051C28.175 70.4103 28.175 70.814 28.175 71.262V71.962C28.175 72.5407 28.175 73.0657 28.175 73.537C28.175 74.0083 28.175 74.496 28.175 75H26.397C26.397 74.496 26.397 74.0083 26.397 73.537C26.397 73.0657 26.397 72.5407 26.397 71.962V71.262C26.397 70.8513 26.397 70.4827 26.397 70.156C26.397 69.8293 26.397 69.519 26.397 69.225C26.397 68.931 26.397 68.6253 26.397 68.308L27.454 69.435H23.471L24.332 68.308C24.3087 68.616 24.2854 68.9427 24.262 69.288C24.2387 69.6287 24.213 69.9693 24.185 70.31C24.1617 70.646 24.1384 70.9727 24.115 71.29C24.073 71.8407 24.017 72.3517 23.947 72.823C23.8817 73.2897 23.7767 73.698 23.632 74.048C23.4874 74.3933 23.2797 74.664 23.009 74.86C22.743 75.0513 22.3884 75.147 21.945 75.147ZM29.9928 75C29.9928 74.496 29.9928 74.0083 29.9928 73.537C29.9928 73.0657 29.9928 72.5407 29.9928 71.962V71.192C29.9928 70.744 29.9928 70.345 29.9928 69.995C29.9928 69.645 29.9928 69.3137 29.9928 69.001C29.9928 68.6883 29.9928 68.364 29.9928 68.028L31.7708 67.972C31.7708 68.4713 31.7708 68.966 31.7708 69.456C31.7708 69.9413 31.7708 70.45 31.7708 70.982V72.298C31.7708 72.7833 31.7708 73.2407 31.7708 73.67C31.7708 74.0947 31.7708 74.538 31.7708 75H29.9928ZM34.5078 75C34.2698 74.7013 34.0272 74.405 33.7798 74.111C33.5372 73.8123 33.2922 73.5183 33.0448 73.229L32.1208 72.109H31.6098V70.905H32.1698L32.9678 69.89C33.2152 69.582 33.4602 69.2717 33.7028 68.959C33.9502 68.6463 34.1952 68.336 34.4378 68.028H36.5308C36.1762 68.4433 35.8215 68.8587 35.4668 69.274C35.1122 69.6893 34.7598 70.1023 34.4098 70.513L33.3598 71.738L33.2828 70.933L34.5498 72.48C34.9138 72.9 35.2755 73.3223 35.6348 73.747C35.9988 74.167 36.3605 74.5847 36.7198 75H34.5078ZM37.8132 75C37.8132 74.4913 37.8132 74.0037 37.8132 73.537C37.8132 73.0657 37.8132 72.5407 37.8132 71.962V71.262C37.8132 70.814 37.8132 70.4103 37.8132 70.051C37.8132 69.6917 37.8132 69.3487 37.8132 69.022C37.8132 68.6953 37.8132 68.364 37.8132 68.028L39.5282 67.979C39.5282 68.2917 39.5282 68.602 39.5282 68.91C39.5282 69.218 39.5282 69.5447 39.5282 69.89C39.5282 70.2307 39.5282 70.611 39.5282 71.031V72.571H39.6402L40.7952 70.59C41.0518 70.1607 41.3038 69.7313 41.5512 69.302C41.8032 68.868 42.0505 68.4433 42.2932 68.028H44.1202C44.1202 68.364 44.1202 68.6953 44.1202 69.022C44.1202 69.3487 44.1202 69.6917 44.1202 70.051C44.1202 70.4103 44.1202 70.814 44.1202 71.262V71.962C44.1202 72.5407 44.1202 73.0657 44.1202 73.537C44.1202 74.0037 44.1202 74.4913 44.1202 75H42.4192C42.4192 74.5053 42.4192 74.027 42.4192 73.565C42.4192 73.0983 42.4192 72.5827 42.4192 72.018V70.45H42.2932L41.1592 72.403C40.9072 72.8417 40.6552 73.278 40.4032 73.712C40.1512 74.146 39.8992 74.5753 39.6472 75H37.8132Z" fill="#9BD03D"/>
</svg>
