<svg width="51" height="78" viewBox="0 0 51 78" fill="none" xmlns="http://www.w3.org/2000/svg">
<path d="M25.5 2.5C28.4547 2.5 31.3806 3.08198 34.1104 4.21271C36.8402 5.34344 39.3206 7.00078 41.4099 9.0901C43.4992 11.1794 45.1566 13.6598 46.2873 16.3896C47.418 19.1195 48 22.0453 48 25C48 27.9547 47.418 30.8806 46.2873 33.6104C45.1566 36.3402 43.4992 38.8206 41.4099 40.9099C39.3206 42.9992 36.8402 44.6566 34.1104 45.7873C31.3805 46.918 28.4547 47.5 25.5 47.5C22.5452 47.5 19.6194 46.918 16.8896 45.7873C14.1598 44.6566 11.6794 42.9992 9.59009 40.9099C7.50077 38.8206 5.84344 36.3402 4.71271 33.6104C3.58198 30.8805 3 27.9547 3 25C3 22.0452 3.58198 19.1194 4.71272 16.3896C5.84345 13.6598 7.50079 11.1794 9.59011 9.09009C11.6794 7.00077 14.1598 5.34343 16.8896 4.21271C19.6195 3.08198 22.5453 2.5 25.5 2.5L25.5 2.5Z" stroke="#A9D953" stroke-width="5"/>
<circle cx="25.5" cy="25" r="22.5" fill="#A9D953"/>
<path d="M13.9545 30.5V29.044C14.2112 28.8247 14.4655 28.6077 14.7175 28.393C14.9742 28.1783 15.2309 27.9637 15.4875 27.749C16.0849 27.245 16.5982 26.7737 17.0275 26.335C17.4569 25.8963 17.7859 25.474 18.0145 25.068C18.2432 24.662 18.3575 24.2537 18.3575 23.843C18.3575 23.395 18.2315 23.059 17.9795 22.835C17.7275 22.6063 17.3472 22.492 16.8385 22.492C16.6192 22.492 16.3929 22.5177 16.1595 22.569C15.9309 22.6157 15.6999 22.6857 15.4665 22.779C15.2332 22.8677 14.9999 22.9727 14.7665 23.094C14.5379 23.2153 14.3139 23.3507 14.0945 23.5L13.9055 21.442C14.1202 21.3393 14.3559 21.2437 14.6125 21.155C14.8739 21.0617 15.1492 20.98 15.4385 20.91C15.7325 20.8353 16.0335 20.777 16.3415 20.735C16.6542 20.693 16.9669 20.672 17.2795 20.672C17.9889 20.672 18.5885 20.7887 19.0785 21.022C19.5732 21.2507 19.9465 21.582 20.1985 22.016C20.4552 22.4453 20.5835 22.961 20.5835 23.563C20.5835 24.0577 20.4809 24.55 20.2755 25.04C20.0702 25.5253 19.7575 26.013 19.3375 26.503C18.9222 26.993 18.3949 27.4877 17.7555 27.987L16.3765 29.072L16.1105 28.652H17.8465C18.3225 28.652 18.7985 28.652 19.2745 28.652C19.7505 28.652 20.2242 28.652 20.6955 28.652V30.5H13.9545ZM25.1872 30.682C24.8606 30.682 24.5386 30.6633 24.2212 30.626C23.9086 30.5887 23.6076 30.5373 23.3182 30.472C23.0289 30.402 22.7606 30.3227 22.5132 30.234C22.2659 30.1453 22.0442 30.052 21.8482 29.954L22.0092 27.994C22.2612 28.1247 22.5132 28.2437 22.7652 28.351C23.0219 28.4583 23.2762 28.5517 23.5282 28.631C23.7849 28.7057 24.0346 28.764 24.2772 28.806C24.5199 28.848 24.7556 28.869 24.9842 28.869C25.5816 28.869 26.0179 28.736 26.2932 28.47C26.5686 28.204 26.7062 27.8307 26.7062 27.35C26.7062 27.0047 26.6339 26.7247 26.4892 26.51C26.3492 26.2907 26.1486 26.1297 25.8872 26.027C25.6306 25.9243 25.3296 25.873 24.9842 25.873C24.7042 25.873 24.4242 25.9057 24.1442 25.971C23.8689 26.0363 23.5912 26.1577 23.3112 26.335L22.3872 26.265V24.655C22.3872 23.9783 22.3872 23.3227 22.3872 22.688C22.3872 22.0533 22.3872 21.4467 22.3872 20.868H28.4352V22.716C27.8892 22.716 27.3362 22.716 26.7762 22.716C26.2209 22.716 25.6702 22.716 25.1242 22.716H23.7382L24.3822 22.037C24.3822 22.3917 24.3776 22.7463 24.3682 23.101C24.3636 23.4557 24.3566 23.808 24.3472 24.158L24.3402 24.655H24.5082C24.7462 24.5383 24.9936 24.4497 25.2502 24.389C25.5116 24.3283 25.7799 24.298 26.0552 24.298C26.5872 24.298 27.0702 24.41 27.5042 24.634C27.9429 24.858 28.2906 25.1963 28.5472 25.649C28.8039 26.097 28.9322 26.6547 28.9322 27.322C28.9322 27.9893 28.7946 28.575 28.5192 29.079C28.2486 29.583 27.8356 29.9773 27.2802 30.262C26.7296 30.542 26.0319 30.682 25.1872 30.682ZM33.3494 30.682C33.0227 30.682 32.7007 30.6633 32.3834 30.626C32.0707 30.5887 31.7697 30.5373 31.4804 30.472C31.191 30.402 30.9227 30.3227 30.6754 30.234C30.428 30.1453 30.2064 30.052 30.0104 29.954L30.1714 27.994C30.4234 28.1247 30.6754 28.2437 30.9274 28.351C31.184 28.4583 31.4384 28.5517 31.6904 28.631C31.947 28.7057 32.1967 28.764 32.4394 28.806C32.682 28.848 32.9177 28.869 33.1464 28.869C33.7437 28.869 34.18 28.736 34.4554 28.47C34.7307 28.204 34.8684 27.8307 34.8684 27.35C34.8684 27.0047 34.796 26.7247 34.6514 26.51C34.5114 26.2907 34.3107 26.1297 34.0494 26.027C33.7927 25.9243 33.4917 25.873 33.1464 25.873C32.8664 25.873 32.5864 25.9057 32.3064 25.971C32.031 26.0363 31.7534 26.1577 31.4734 26.335L30.5494 26.265V24.655C30.5494 23.9783 30.5494 23.3227 30.5494 22.688C30.5494 22.0533 30.5494 21.4467 30.5494 20.868H36.5974V22.716C36.0514 22.716 35.4984 22.716 34.9384 22.716C34.383 22.716 33.8324 22.716 33.2864 22.716H31.9004L32.5444 22.037C32.5444 22.3917 32.5397 22.7463 32.5304 23.101C32.5257 23.4557 32.5187 23.808 32.5094 24.158L32.5024 24.655H32.6704C32.9084 24.5383 33.1557 24.4497 33.4124 24.389C33.6737 24.3283 33.942 24.298 34.2174 24.298C34.7494 24.298 35.2324 24.41 35.6664 24.634C36.105 24.858 36.4527 25.1963 36.7094 25.649C36.966 26.097 37.0944 26.6547 37.0944 27.322C37.0944 27.9893 36.9567 28.575 36.6814 29.079C36.4107 29.583 35.9977 29.9773 35.4424 30.262C34.8917 30.542 34.194 30.682 33.3494 30.682Z" fill="white"/>
<path d="M10.403 74.5C10.403 73.996 10.403 73.5083 10.403 73.037C10.403 72.5657 10.403 72.0407 10.403 71.462V70.692C10.403 70.244 10.403 69.845 10.403 69.495C10.403 69.145 10.403 68.8137 10.403 68.501C10.403 68.1883 10.403 67.864 10.403 67.528L12.181 67.472C12.181 67.9713 12.181 68.466 12.181 68.956C12.181 69.4413 12.181 69.95 12.181 70.482V71.798C12.181 72.2833 12.181 72.7407 12.181 73.17C12.181 73.5947 12.181 74.038 12.181 74.5H10.403ZM14.918 74.5C14.68 74.2013 14.4373 73.905 14.19 73.611C13.9473 73.3123 13.7023 73.0183 13.455 72.729L12.531 71.609H12.02V70.405H12.58L13.378 69.39C13.6253 69.082 13.8703 68.7717 14.113 68.459C14.3603 68.1463 14.6053 67.836 14.848 67.528H16.941C16.5863 67.9433 16.2317 68.3587 15.877 68.774C15.5223 69.1893 15.17 69.6023 14.82 70.013L13.77 71.238L13.693 70.433L14.96 71.98C15.324 72.4 15.6857 72.8223 16.045 73.247C16.409 73.667 16.7707 74.0847 17.13 74.5H14.918ZM18.2233 74.5C18.2233 73.996 18.2233 73.5083 18.2233 73.037C18.2233 72.5657 18.2233 72.0407 18.2233 71.462V70.692C18.2233 70.244 18.2233 69.845 18.2233 69.495C18.2233 69.145 18.2233 68.8137 18.2233 68.501C18.2233 68.1883 18.2233 67.864 18.2233 67.528L20.0013 67.472C20.0013 67.9713 20.0013 68.466 20.0013 68.956C20.0013 69.4413 20.0013 69.95 20.0013 70.482V71.798C20.0013 72.2833 20.0013 72.7407 20.0013 73.17C20.0013 73.5947 20.0013 74.038 20.0013 74.5H18.2233ZM22.7383 74.5C22.5003 74.2013 22.2576 73.905 22.0103 73.611C21.7676 73.3123 21.5226 73.0183 21.2753 72.729L20.3513 71.609H19.8403V70.405H20.4003L21.1983 69.39C21.4456 69.082 21.6906 68.7717 21.9333 68.459C22.1806 68.1463 22.4256 67.836 22.6683 67.528H24.7613C24.4066 67.9433 24.052 68.3587 23.6973 68.774C23.3426 69.1893 22.9903 69.6023 22.6403 70.013L21.5903 71.238L21.5133 70.433L22.7803 71.98C23.1443 72.4 23.506 72.8223 23.8653 73.247C24.2293 73.667 24.591 74.0847 24.9503 74.5H22.7383ZM27.7726 74.661C27.3806 74.661 27.0306 74.5793 26.7226 74.416C26.4146 74.2527 26.1696 74.017 25.9876 73.709C25.8103 73.3963 25.7216 73.0207 25.7216 72.582C25.7216 72.1947 25.7893 71.868 25.9246 71.602C26.06 71.3313 26.2373 71.112 26.4566 70.944C26.6806 70.7713 26.9256 70.6383 27.1916 70.545C27.4623 70.4517 27.7353 70.384 28.0106 70.342L30.0056 70.048C30.0196 69.7213 29.9636 69.4693 29.8376 69.292C29.7163 69.1147 29.5413 68.9933 29.3126 68.928C29.084 68.858 28.8203 68.823 28.5216 68.823C28.363 68.823 28.1903 68.837 28.0036 68.865C27.8216 68.8883 27.628 68.9257 27.4226 68.977C27.222 69.0283 27.012 69.0937 26.7926 69.173C26.5733 69.2477 26.3493 69.3387 26.1206 69.446L26.0366 67.899C26.2093 67.8337 26.403 67.7683 26.6176 67.703C26.837 67.6377 27.075 67.5793 27.3316 67.528C27.5883 67.472 27.8543 67.43 28.1296 67.402C28.4096 67.3693 28.6966 67.353 28.9906 67.353C29.56 67.353 30.0453 67.437 30.4466 67.605C30.8526 67.7683 31.163 68.032 31.3776 68.396C31.5923 68.7553 31.6996 69.2243 31.6996 69.803C31.6996 70.027 31.6996 70.3047 31.6996 70.636C31.6996 70.9673 31.6996 71.2707 31.6996 71.546V72.316C31.6996 72.6567 31.6996 73.0043 31.6996 73.359C31.6996 73.709 31.6996 74.0893 31.6996 74.5H30.1246L30.0196 73.59H29.8726C29.742 73.7627 29.5786 73.9307 29.3826 74.094C29.1866 74.2527 28.9533 74.388 28.6826 74.5C28.4166 74.6073 28.1133 74.661 27.7726 74.661ZM28.4166 73.268C28.6126 73.268 28.8063 73.2213 28.9976 73.128C29.189 73.0347 29.3663 72.904 29.5296 72.736C29.6976 72.568 29.84 72.3673 29.9566 72.134V71.035C29.896 71.077 29.8143 71.1167 29.7116 71.154C29.6136 71.1867 29.4666 71.224 29.2706 71.266C29.0746 71.308 28.7993 71.3617 28.4446 71.427C28.244 71.4643 28.0736 71.5273 27.9336 71.616C27.7983 71.7047 27.6933 71.819 27.6186 71.959C27.544 72.099 27.5066 72.26 27.5066 72.442C27.5066 72.7453 27.5976 72.96 27.7796 73.086C27.9663 73.2073 28.1786 73.268 28.4166 73.268ZM33.5407 74.647C33.4427 74.647 33.3331 74.6423 33.2117 74.633C33.0951 74.6237 32.9807 74.6097 32.8687 74.591C32.7614 74.577 32.6657 74.556 32.5817 74.528L32.6587 73.044C32.7334 73.058 32.8057 73.0697 32.8757 73.079C32.9504 73.0837 33.0087 73.086 33.0507 73.086C33.2794 73.086 33.4614 72.9997 33.5967 72.827C33.7367 72.6543 33.8441 72.4257 33.9187 72.141C33.9934 71.8517 34.0494 71.5343 34.0867 71.189C34.1241 70.839 34.1521 70.489 34.1707 70.139C34.1987 69.691 34.2267 69.2477 34.2547 68.809C34.2874 68.3657 34.3177 67.9387 34.3457 67.528H39.7707C39.7707 67.864 39.7707 68.1953 39.7707 68.522C39.7707 68.844 39.7707 69.187 39.7707 69.551C39.7707 69.9103 39.7707 70.314 39.7707 70.762V71.462C39.7707 72.0407 39.7707 72.5657 39.7707 73.037C39.7707 73.5083 39.7707 73.996 39.7707 74.5H37.9927C37.9927 73.996 37.9927 73.5083 37.9927 73.037C37.9927 72.5657 37.9927 72.0407 37.9927 71.462V70.762C37.9927 70.3513 37.9927 69.9827 37.9927 69.656C37.9927 69.3293 37.9927 69.019 37.9927 68.725C37.9927 68.431 37.9927 68.1253 37.9927 67.808L39.0497 68.935H35.0667L35.9277 67.808C35.9044 68.116 35.8811 68.4427 35.8577 68.788C35.8344 69.1287 35.8087 69.4693 35.7807 69.81C35.7574 70.146 35.7341 70.4727 35.7107 70.79C35.6687 71.3407 35.6127 71.8517 35.5427 72.323C35.4774 72.7897 35.3724 73.198 35.2277 73.548C35.0831 73.8933 34.8754 74.164 34.6047 74.36C34.3387 74.5513 33.9841 74.647 33.5407 74.647Z" fill="#040E07"/>
</svg>
