<svg width="65" height="78" viewBox="0 0 65 78" fill="none" xmlns="http://www.w3.org/2000/svg">
<path d="M32.5 2.5C35.4547 2.5 38.3806 3.08198 41.1104 4.21271C43.8402 5.34344 46.3206 7.00078 48.4099 9.0901C50.4992 11.1794 52.1566 13.6598 53.2873 16.3896C54.418 19.1195 55 22.0453 55 25C55 27.9547 54.418 30.8806 53.2873 33.6104C52.1566 36.3402 50.4992 38.8206 48.4099 40.9099C46.3206 42.9992 43.8402 44.6566 41.1104 45.7873C38.3805 46.918 35.4547 47.5 32.5 47.5C29.5452 47.5 26.6194 46.918 23.8896 45.7873C21.1598 44.6566 18.6794 42.9992 16.5901 40.9099C14.5008 38.8206 12.8434 36.3402 11.7127 33.6104C10.582 30.8805 10 27.9547 10 25C10 22.0452 10.582 19.1194 11.7127 16.3896C12.8434 13.6598 14.5008 11.1794 16.5901 9.09009C18.6794 7.00077 21.1598 5.34343 23.8896 4.21271C26.6195 3.08198 29.5453 2.5 32.5 2.5L32.5 2.5Z" stroke="#FFE1D8" stroke-width="5"/>
<path d="M28.5929 2.84183C32.5612 2.14211 36.6446 2.52091 40.4164 3.93866C44.1883 5.35641 47.5102 7.76107 50.0351 10.9014C52.56 14.0418 54.1952 17.8025 54.77 21.7908C55.3447 25.7792 54.8378 29.8486 53.3023 33.5741" stroke="#FF6A3A" stroke-width="5" stroke-linecap="round" stroke-linejoin="round"/>
<path d="M23.8442 29.656C23.5562 29.656 23.2742 29.64 22.9982 29.608C22.7262 29.576 22.4642 29.532 22.2122 29.476C21.9642 29.416 21.7322 29.348 21.5162 29.272C21.3042 29.196 21.1122 29.116 20.9402 29.032L21.0782 27.352C21.2942 27.464 21.5122 27.566 21.7322 27.658C21.9522 27.75 22.1702 27.83 22.3862 27.898C22.6062 27.962 22.8222 28.012 23.0342 28.048C23.2502 28.084 23.4562 28.102 23.6522 28.102C24.1722 28.102 24.5442 28.006 24.7682 27.814C24.9922 27.618 25.1042 27.368 25.1042 27.064C25.1042 26.708 24.9602 26.44 24.6722 26.26C24.3842 26.076 23.9722 25.984 23.4362 25.984C23.2602 25.984 23.0882 25.984 22.9202 25.984C22.7562 25.984 22.5902 25.984 22.4222 25.984V24.628C22.5702 24.628 22.7182 24.628 22.8662 24.628C23.0182 24.628 23.1702 24.628 23.3222 24.628C23.6862 24.628 23.9822 24.586 24.2102 24.502C24.4382 24.414 24.6042 24.292 24.7082 24.136C24.8162 23.98 24.8702 23.798 24.8702 23.59C24.8702 23.27 24.7522 23.032 24.5162 22.876C24.2842 22.716 23.9762 22.636 23.5922 22.636C23.4042 22.636 23.2102 22.656 23.0102 22.696C22.8142 22.736 22.6162 22.792 22.4162 22.864C22.2162 22.932 22.0182 23.014 21.8222 23.11C21.6262 23.206 21.4362 23.314 21.2522 23.434L21.0842 21.73C21.2642 21.642 21.4622 21.558 21.6782 21.478C21.8942 21.398 22.1242 21.328 22.3682 21.268C22.6122 21.208 22.8642 21.16 23.1242 21.124C23.3842 21.088 23.6442 21.07 23.9042 21.07C24.5122 21.07 25.0302 21.158 25.4582 21.334C25.8862 21.506 26.2122 21.752 26.4362 22.072C26.6642 22.388 26.7782 22.762 26.7782 23.194C26.7782 23.538 26.7102 23.836 26.5742 24.088C26.4382 24.34 26.2542 24.546 26.0222 24.706C25.7942 24.862 25.5402 24.97 25.2602 25.03V25.174C25.4722 25.214 25.6822 25.284 25.8902 25.384C26.0982 25.48 26.2862 25.612 26.4542 25.78C26.6222 25.948 26.7562 26.152 26.8562 26.392C26.9562 26.632 27.0062 26.914 27.0062 27.238C27.0062 27.702 26.8922 28.118 26.6642 28.486C26.4402 28.85 26.0942 29.136 25.6262 29.344C25.1622 29.552 24.5682 29.656 23.8442 29.656ZM27.9203 29.5V28.252C28.1403 28.064 28.3583 27.878 28.5743 27.694C28.7943 27.51 29.0143 27.326 29.2343 27.142C29.7463 26.71 30.1863 26.306 30.5543 25.93C30.9223 25.554 31.2043 25.192 31.4003 24.844C31.5963 24.496 31.6943 24.146 31.6943 23.794C31.6943 23.41 31.5863 23.122 31.3703 22.93C31.1543 22.734 30.8283 22.636 30.3923 22.636C30.2043 22.636 30.0103 22.658 29.8103 22.702C29.6143 22.742 29.4163 22.802 29.2163 22.882C29.0163 22.958 28.8163 23.048 28.6163 23.152C28.4203 23.256 28.2283 23.372 28.0403 23.5L27.8783 21.736C28.0623 21.648 28.2643 21.566 28.4843 21.49C28.7083 21.41 28.9443 21.34 29.1923 21.28C29.4443 21.216 29.7023 21.166 29.9663 21.13C30.2343 21.094 30.5023 21.076 30.7703 21.076C31.3783 21.076 31.8923 21.176 32.3123 21.376C32.7363 21.572 33.0563 21.856 33.2723 22.228C33.4923 22.596 33.6023 23.038 33.6023 23.554C33.6023 23.978 33.5143 24.4 33.3383 24.82C33.1623 25.236 32.8943 25.654 32.5343 26.074C32.1783 26.494 31.7263 26.918 31.1783 27.346L29.9963 28.276L29.7683 27.916H31.2563C31.6643 27.916 32.0723 27.916 32.4803 27.916C32.8883 27.916 33.2943 27.916 33.6983 27.916V29.5H27.9203ZM36.5163 29.5C36.7763 29.06 37.0323 28.628 37.2843 28.204C37.5363 27.776 37.8223 27.29 38.1423 26.746L39.9003 23.77C40.1203 23.398 40.3223 23.056 40.5063 22.744C40.6903 22.428 40.8683 22.126 41.0403 21.838C41.2123 21.546 41.3883 21.248 41.5683 20.944H43.1523C42.9763 21.248 42.8023 21.546 42.6303 21.838C42.4583 22.126 42.2783 22.428 42.0903 22.744C41.9063 23.056 41.7043 23.398 41.4843 23.77L39.7263 26.746C39.4063 27.29 39.1203 27.776 38.8683 28.204C38.6163 28.628 38.3603 29.06 38.1003 29.5H36.5163ZM36.9543 25.144C36.4823 25.144 36.0663 25.056 35.7063 24.88C35.3503 24.704 35.0703 24.452 34.8663 24.124C34.6663 23.796 34.5663 23.406 34.5663 22.954C34.5663 22.538 34.6663 22.166 34.8663 21.838C35.0703 21.51 35.3503 21.25 35.7063 21.058C36.0663 20.866 36.4843 20.77 36.9603 20.77C37.4323 20.77 37.8463 20.866 38.2023 21.058C38.5623 21.25 38.8423 21.51 39.0423 21.838C39.2423 22.166 39.3423 22.538 39.3423 22.954C39.3423 23.406 39.2423 23.796 39.0423 24.124C38.8423 24.452 38.5623 24.704 38.2023 24.88C37.8463 25.056 37.4303 25.144 36.9543 25.144ZM36.9543 24.028C37.2903 24.028 37.5503 23.934 37.7343 23.746C37.9223 23.554 38.0163 23.294 38.0163 22.966C38.0163 22.766 37.9743 22.586 37.8903 22.426C37.8063 22.262 37.6843 22.132 37.5243 22.036C37.3683 21.94 37.1803 21.892 36.9603 21.892C36.6283 21.892 36.3663 21.994 36.1743 22.198C35.9863 22.398 35.8923 22.654 35.8923 22.966C35.8923 23.294 35.9863 23.554 36.1743 23.746C36.3663 23.934 36.6263 24.028 36.9543 24.028ZM42.7203 29.662C42.2443 29.662 41.8263 29.574 41.4663 29.398C41.1103 29.222 40.8323 28.97 40.6323 28.642C40.4323 28.314 40.3323 27.924 40.3323 27.472C40.3323 27.056 40.4323 26.684 40.6323 26.356C40.8323 26.028 41.1123 25.768 41.4723 25.576C41.8323 25.384 42.2483 25.288 42.7203 25.288C43.1963 25.288 43.6123 25.384 43.9683 25.576C44.3283 25.768 44.6083 26.028 44.8083 26.356C45.0083 26.684 45.1083 27.056 45.1083 27.472C45.1083 27.924 45.0083 28.314 44.8083 28.642C44.6083 28.97 44.3283 29.222 43.9683 29.398C43.6083 29.574 43.1923 29.662 42.7203 29.662ZM42.7203 28.54C43.0523 28.54 43.3123 28.446 43.5003 28.258C43.6883 28.07 43.7823 27.812 43.7823 27.484C43.7823 27.28 43.7383 27.098 43.6503 26.938C43.5663 26.778 43.4463 26.65 43.2903 26.554C43.1343 26.458 42.9443 26.41 42.7203 26.41C42.3923 26.41 42.1323 26.512 41.9403 26.716C41.7523 26.916 41.6583 27.172 41.6583 27.484C41.6583 27.812 41.7523 28.07 41.9403 28.258C42.1323 28.446 42.3923 28.54 42.7203 28.54Z" fill="#040E07"/>
<path d="M1.68 77.244C1.87133 76.7727 2.06267 76.2943 2.254 75.809C2.45 75.3237 2.64133 74.8477 2.828 74.381V74.738C2.66 74.2573 2.48733 73.7743 2.31 73.289C2.13733 72.799 1.967 72.3207 1.799 71.854L1.351 70.594C1.17367 70.0947 0.989333 69.5837 0.798 69.061C0.611333 68.5337 0.429333 68.0227 0.252 67.528L2.17 67.472C2.324 68.0087 2.47333 68.5337 2.618 69.047C2.76733 69.5603 2.919 70.0877 3.073 70.629L3.64 72.631H3.801L4.424 70.629C4.58733 70.1063 4.74833 69.5907 4.907 69.082C5.06567 68.5687 5.22667 68.0507 5.39 67.528H7.287C7.14233 67.9013 7.00233 68.263 6.867 68.613C6.73167 68.963 6.58233 69.348 6.419 69.768C6.25567 70.188 6.05967 70.6897 5.831 71.273L5.068 73.233C4.72267 74.1197 4.42867 74.8733 4.186 75.494C3.948 76.1193 3.72867 76.684 3.528 77.188L1.68 77.244ZM8.4362 74.5C8.4362 73.996 8.4362 73.5083 8.4362 73.037C8.4362 72.5657 8.4362 72.0407 8.4362 71.462V70.762C8.4362 70.314 8.4362 69.9103 8.4362 69.551C8.4362 69.187 8.4362 68.844 8.4362 68.522C8.4362 68.1953 8.4362 67.864 8.4362 67.528H13.3922V68.935C12.9582 68.935 12.5172 68.935 12.0692 68.935C11.6259 68.935 11.1919 68.935 10.7672 68.935H9.1712L10.2142 67.808C10.2142 68.1253 10.2142 68.431 10.2142 68.725C10.2142 69.019 10.2142 69.3293 10.2142 69.656C10.2142 69.9827 10.2142 70.3513 10.2142 70.762V71.462C10.2142 72.0407 10.2142 72.5657 10.2142 73.037C10.2142 73.5083 10.2142 73.996 10.2142 74.5H8.4362ZM14.4978 74.647C14.3998 74.647 14.2901 74.6423 14.1688 74.633C14.0521 74.6237 13.9378 74.6097 13.8258 74.591C13.7184 74.577 13.6228 74.556 13.5388 74.528L13.6158 73.044C13.6904 73.058 13.7628 73.0697 13.8328 73.079C13.9074 73.0837 13.9658 73.086 14.0078 73.086C14.2364 73.086 14.4184 72.9997 14.5538 72.827C14.6938 72.6543 14.8011 72.4257 14.8758 72.141C14.9504 71.8517 15.0064 71.5343 15.0438 71.189C15.0811 70.839 15.1091 70.489 15.1278 70.139C15.1558 69.691 15.1838 69.2477 15.2118 68.809C15.2444 68.3657 15.2748 67.9387 15.3028 67.528H20.7278C20.7278 67.864 20.7278 68.1953 20.7278 68.522C20.7278 68.844 20.7278 69.187 20.7278 69.551C20.7278 69.9103 20.7278 70.314 20.7278 70.762V71.462C20.7278 72.0407 20.7278 72.5657 20.7278 73.037C20.7278 73.5083 20.7278 73.996 20.7278 74.5H18.9498C18.9498 73.996 18.9498 73.5083 18.9498 73.037C18.9498 72.5657 18.9498 72.0407 18.9498 71.462V70.762C18.9498 70.3513 18.9498 69.9827 18.9498 69.656C18.9498 69.3293 18.9498 69.019 18.9498 68.725C18.9498 68.431 18.9498 68.1253 18.9498 67.808L20.0068 68.935H16.0238L16.8848 67.808C16.8614 68.116 16.8381 68.4427 16.8148 68.788C16.7914 69.1287 16.7658 69.4693 16.7378 69.81C16.7144 70.146 16.6911 70.4727 16.6678 70.79C16.6258 71.3407 16.5698 71.8517 16.4998 72.323C16.4344 72.7897 16.3294 73.198 16.1848 73.548C16.0401 73.8933 15.8324 74.164 15.5618 74.36C15.2958 74.5513 14.9411 74.647 14.4978 74.647ZM25.9966 74.675C25.1192 74.675 24.4006 74.5163 23.8406 74.199C23.2806 73.8817 22.8676 73.4453 22.6016 72.89C22.3356 72.3347 22.2026 71.7 22.2026 70.986C22.2026 70.2767 22.3286 69.649 22.5806 69.103C22.8372 68.5523 23.2129 68.123 23.7076 67.815C24.2022 67.507 24.8089 67.353 25.5276 67.353C26.1482 67.353 26.6779 67.4673 27.1166 67.696C27.5599 67.92 27.9006 68.2583 28.1386 68.711C28.3766 69.159 28.4956 69.7237 28.4956 70.405C28.4956 70.587 28.4909 70.7503 28.4816 70.895C28.4769 71.0397 28.4629 71.182 28.4396 71.322L26.8926 70.699C26.9019 70.6337 26.9089 70.5683 26.9136 70.503C26.9182 70.433 26.9206 70.3677 26.9206 70.307C26.9206 69.7937 26.7922 69.3923 26.5356 69.103C26.2789 68.809 25.9476 68.662 25.5416 68.662C25.2336 68.662 24.9629 68.7507 24.7296 68.928C24.4962 69.1007 24.3119 69.3433 24.1766 69.656C24.0412 69.9687 23.9736 70.3303 23.9736 70.741V71.014C23.9736 71.4667 24.0529 71.8563 24.2116 72.183C24.3702 72.505 24.6152 72.7547 24.9466 72.932C25.2779 73.1047 25.6956 73.191 26.1996 73.191C26.3956 73.191 26.6149 73.1747 26.8576 73.142C27.1049 73.1047 27.3546 73.0487 27.6066 72.974C27.8586 72.8993 28.0942 72.8037 28.3136 72.687L28.3696 74.213C28.1922 74.3017 27.9846 74.381 27.7466 74.451C27.5086 74.521 27.2426 74.5747 26.9486 74.612C26.6546 74.654 26.3372 74.675 25.9966 74.675ZM22.9026 71.322V70.209L27.3896 70.132L28.4396 70.531V71.322H22.9026ZM29.9284 74.5C29.9284 73.9913 29.9284 73.5013 29.9284 73.03C29.9284 72.554 29.9284 72.0267 29.9284 71.448V70.748C29.9284 70.3047 29.9284 69.9033 29.9284 69.544C29.9284 69.1847 29.9284 68.844 29.9284 68.522C29.9284 68.1953 29.9284 67.864 29.9284 67.528C30.4044 67.528 30.9621 67.528 31.6014 67.528C32.2454 67.528 32.8731 67.528 33.4844 67.528C34.0864 67.528 34.5647 67.598 34.9194 67.738C35.2741 67.8733 35.5284 68.0647 35.6824 68.312C35.8364 68.5547 35.9134 68.8393 35.9134 69.166C35.9134 69.6047 35.8014 69.9547 35.5774 70.216C35.3534 70.4727 35.0851 70.6477 34.7724 70.741V70.86C34.9917 70.9113 35.1994 71 35.3954 71.126C35.5961 71.2473 35.7594 71.4223 35.8854 71.651C36.0161 71.875 36.0814 72.176 36.0814 72.554C36.0814 72.9367 35.9951 73.275 35.8224 73.569C35.6497 73.8583 35.3511 74.087 34.9264 74.255C34.5017 74.4183 33.9044 74.5 33.1344 74.5C32.4857 74.5 31.8907 74.5 31.3494 74.5C30.8081 74.5 30.3344 74.5 29.9284 74.5ZM31.6574 73.163H32.9314C33.2674 73.163 33.5334 73.135 33.7294 73.079C33.9301 73.023 34.0747 72.9343 34.1634 72.813C34.2521 72.6917 34.2964 72.54 34.2964 72.358C34.2964 72.078 34.1914 71.8727 33.9814 71.742C33.7714 71.6113 33.4541 71.546 33.0294 71.546H31.1604V70.391H32.9104C33.1997 70.391 33.4307 70.3583 33.6034 70.293C33.7807 70.2277 33.9091 70.1367 33.9884 70.02C34.0677 69.8987 34.1074 69.7563 34.1074 69.593C34.1074 69.3317 34.0164 69.145 33.8344 69.033C33.6571 68.9163 33.3981 68.858 33.0574 68.858H31.6574C31.6574 69.18 31.6574 69.488 31.6574 69.782C31.6574 70.076 31.6574 70.398 31.6574 70.748V71.448C31.6574 71.7653 31.6574 72.0593 31.6574 72.33C31.6574 72.6007 31.6574 72.8783 31.6574 73.163ZM40.8136 74.675C40.1976 74.675 39.6609 74.577 39.2036 74.381C38.7463 74.1803 38.3659 73.9073 38.0626 73.562C37.7593 73.2167 37.5329 72.8223 37.3836 72.379C37.2343 71.9357 37.1596 71.4713 37.1596 70.986C37.1596 70.2907 37.2996 69.67 37.5796 69.124C37.8596 68.5733 38.2679 68.1393 38.8046 67.822C39.3459 67.5047 40.0039 67.346 40.7786 67.346C41.3759 67.346 41.8986 67.4393 42.3466 67.626C42.7993 67.808 43.1773 68.0647 43.4806 68.396C43.7886 68.7273 44.0196 69.1147 44.1736 69.558C44.3276 69.9967 44.4046 70.4727 44.4046 70.986C44.4046 71.686 44.2623 72.3137 43.9776 72.869C43.6976 73.4243 43.2893 73.8653 42.7526 74.192C42.2159 74.514 41.5696 74.675 40.8136 74.675ZM40.8066 73.205C41.2079 73.205 41.5393 73.1 41.8006 72.89C42.0666 72.6753 42.2649 72.4 42.3956 72.064C42.5263 71.728 42.5916 71.3687 42.5916 70.986C42.5916 70.538 42.5169 70.153 42.3676 69.831C42.2229 69.5043 42.0153 69.2547 41.7446 69.082C41.4739 68.9047 41.1589 68.816 40.7996 68.816C40.4029 68.816 40.0669 68.914 39.7916 69.11C39.5209 69.3013 39.3156 69.5603 39.1756 69.887C39.0403 70.2137 38.9726 70.58 38.9726 70.986C38.9726 71.3687 39.0403 71.728 39.1756 72.064C39.3109 72.4 39.5139 72.6753 39.7846 72.89C40.0599 73.1 40.4006 73.205 40.8066 73.205ZM50.3584 74.22C50.3584 73.9213 50.3584 73.6367 50.3584 73.366C50.3584 73.0907 50.3584 72.8013 50.3584 72.498C50.3584 72.19 50.3584 71.8447 50.3584 71.462V70.762C50.3584 70.3467 50.3584 69.9757 50.3584 69.649C50.3584 69.3223 50.3584 69.012 50.3584 68.718C50.3584 68.424 50.3584 68.1207 50.3584 67.808L51.1074 68.928H47.4884L48.2864 67.808C48.2724 68.102 48.2561 68.3913 48.2374 68.676C48.2234 68.9607 48.2094 69.2547 48.1954 69.558C48.1814 69.8567 48.1674 70.181 48.1534 70.531C48.1348 70.9183 48.0928 71.2847 48.0274 71.63C47.9668 71.9753 47.8804 72.295 47.7684 72.589C47.6611 72.883 47.5281 73.1443 47.3694 73.373L45.6754 73.163C45.7968 73.0557 45.9204 72.8923 46.0464 72.673C46.1771 72.449 46.2914 72.141 46.3894 71.749C46.4921 71.357 46.5598 70.8577 46.5924 70.251C46.6251 69.719 46.6531 69.2383 46.6764 68.809C46.7044 68.3797 46.7301 67.9527 46.7534 67.528H52.1084C52.1084 67.864 52.1084 68.1953 52.1084 68.522C52.1084 68.8487 52.1084 69.1917 52.1084 69.551C52.1084 69.9103 52.1084 70.314 52.1084 70.762V71.462C52.1084 72.0407 52.1084 72.5353 52.1084 72.946C52.1084 73.352 52.1084 73.7767 52.1084 74.22H50.3584ZM45.0244 76.397C45.0244 76.131 45.0244 75.865 45.0244 75.599C45.0244 75.333 45.0244 75.067 45.0244 74.801C45.0244 74.5303 45.0244 74.248 45.0244 73.954C45.0244 73.66 45.0244 73.3753 45.0244 73.1C45.4304 73.1 45.8411 73.1 46.2564 73.1C46.6718 73.1 47.0778 73.1 47.4744 73.1H50.7084C51.1004 73.1 51.5041 73.1 51.9194 73.1C52.3348 73.1 52.7478 73.1 53.1584 73.1C53.1584 73.3753 53.1584 73.66 53.1584 73.954C53.1584 74.248 53.1584 74.5303 53.1584 74.801C53.1584 75.067 53.1584 75.333 53.1584 75.599C53.1584 75.865 53.1584 76.131 53.1584 76.397H51.6254L51.5554 74.283L51.8564 74.5H46.3194L46.6344 74.283L46.5574 76.397H45.0244ZM54.278 74.5C54.278 73.9913 54.278 73.5037 54.278 73.037C54.278 72.5657 54.278 72.0407 54.278 71.462V70.762C54.278 70.314 54.278 69.9103 54.278 69.551C54.278 69.1917 54.278 68.8487 54.278 68.522C54.278 68.1953 54.278 67.864 54.278 67.528L56.035 67.472C56.035 67.948 56.035 68.41 56.035 68.858C56.035 69.306 56.035 69.7867 56.035 70.3C56.035 70.8227 56.035 71.3103 56.035 71.763C56.035 72.2157 56.035 72.6823 56.035 73.163H57.078C57.358 73.163 57.6123 73.1327 57.841 73.072C58.0697 73.0113 58.2493 72.897 58.38 72.729C58.5153 72.5563 58.583 72.309 58.583 71.987C58.583 71.7537 58.5457 71.567 58.471 71.427C58.3963 71.2823 58.296 71.1727 58.17 71.098C58.0487 71.0233 57.911 70.9743 57.757 70.951C57.6077 70.923 57.456 70.909 57.302 70.909H55.804L55.37 69.572C55.6453 69.572 55.9837 69.572 56.385 69.572C56.7863 69.572 57.162 69.572 57.512 69.572C58.1327 69.572 58.6553 69.6513 59.08 69.81C59.5093 69.9687 59.8337 70.223 60.053 70.573C60.2723 70.923 60.382 71.3873 60.382 71.966C60.382 72.47 60.2887 72.9133 60.102 73.296C59.92 73.674 59.6237 73.9703 59.213 74.185C58.8023 74.395 58.254 74.5 57.568 74.5C56.9007 74.5 56.2893 74.5 55.734 74.5C55.1787 74.5 54.6933 74.5 54.278 74.5ZM61.369 74.5C61.369 73.996 61.369 73.5083 61.369 73.037C61.369 72.5657 61.369 72.0407 61.369 71.462V70.762C61.369 70.314 61.369 69.9103 61.369 69.551C61.369 69.187 61.369 68.844 61.369 68.522C61.369 68.1953 61.369 67.864 61.369 67.528L63.147 67.472C63.147 67.8127 63.147 68.1487 63.147 68.48C63.147 68.8113 63.147 69.1613 63.147 69.53C63.147 69.894 63.147 70.3047 63.147 70.762V71.462C63.147 72.0407 63.147 72.5657 63.147 73.037C63.147 73.5083 63.147 73.996 63.147 74.5H61.369Z" fill="#FF6A3A"/>
</svg>
