<svg width="65" height="78" viewBox="0 0 65 78" fill="none" xmlns="http://www.w3.org/2000/svg">
<path d="M32.5 3C35.4547 3 38.3806 3.58198 41.1104 4.71271C43.8402 5.84344 46.3206 7.50078 48.4099 9.5901C50.4992 11.6794 52.1566 14.1598 53.2873 16.8896C54.418 19.6195 55 22.5453 55 25.5C55 28.4547 54.418 31.3806 53.2873 34.1104C52.1566 36.8402 50.4992 39.3206 48.4099 41.4099C46.3206 43.4992 43.8402 45.1566 41.1104 46.2873C38.3805 47.418 35.4547 48 32.5 48C29.5452 48 26.6194 47.418 23.8896 46.2873C21.1598 45.1566 18.6794 43.4992 16.5901 41.4099C14.5008 39.3206 12.8434 36.8402 11.7127 34.1104C10.582 31.3805 10 28.4547 10 25.5C10 22.5452 10.582 19.6194 11.7127 16.8896C12.8434 14.1598 14.5008 11.6794 16.5901 9.59009C18.6794 7.50077 21.1598 5.84343 23.8896 4.71271C26.6195 3.58198 29.5453 3 32.5 3L32.5 3Z" stroke="#FFE1D8" stroke-width="5"/>
<path d="M28.5929 3.34183C32.5612 2.64211 36.6446 3.02091 40.4164 4.43866C44.1883 5.85641 47.5102 8.26107 50.0351 11.4014C52.56 14.5418 54.1952 18.3025 54.77 22.2908C55.3447 26.2792 54.8378 30.3486 53.3023 34.0741" stroke="#FF6A3A" stroke-width="5" stroke-linecap="round" stroke-linejoin="round"/>
<path d="M23.8442 30.156C23.5562 30.156 23.2742 30.14 22.9982 30.108C22.7262 30.076 22.4642 30.032 22.2122 29.976C21.9642 29.916 21.7322 29.848 21.5162 29.772C21.3042 29.696 21.1122 29.616 20.9402 29.532L21.0782 27.852C21.2942 27.964 21.5122 28.066 21.7322 28.158C21.9522 28.25 22.1702 28.33 22.3862 28.398C22.6062 28.462 22.8222 28.512 23.0342 28.548C23.2502 28.584 23.4562 28.602 23.6522 28.602C24.1722 28.602 24.5442 28.506 24.7682 28.314C24.9922 28.118 25.1042 27.868 25.1042 27.564C25.1042 27.208 24.9602 26.94 24.6722 26.76C24.3842 26.576 23.9722 26.484 23.4362 26.484C23.2602 26.484 23.0882 26.484 22.9202 26.484C22.7562 26.484 22.5902 26.484 22.4222 26.484V25.128C22.5702 25.128 22.7182 25.128 22.8662 25.128C23.0182 25.128 23.1702 25.128 23.3222 25.128C23.6862 25.128 23.9822 25.086 24.2102 25.002C24.4382 24.914 24.6042 24.792 24.7082 24.636C24.8162 24.48 24.8702 24.298 24.8702 24.09C24.8702 23.77 24.7522 23.532 24.5162 23.376C24.2842 23.216 23.9762 23.136 23.5922 23.136C23.4042 23.136 23.2102 23.156 23.0102 23.196C22.8142 23.236 22.6162 23.292 22.4162 23.364C22.2162 23.432 22.0182 23.514 21.8222 23.61C21.6262 23.706 21.4362 23.814 21.2522 23.934L21.0842 22.23C21.2642 22.142 21.4622 22.058 21.6782 21.978C21.8942 21.898 22.1242 21.828 22.3682 21.768C22.6122 21.708 22.8642 21.66 23.1242 21.624C23.3842 21.588 23.6442 21.57 23.9042 21.57C24.5122 21.57 25.0302 21.658 25.4582 21.834C25.8862 22.006 26.2122 22.252 26.4362 22.572C26.6642 22.888 26.7782 23.262 26.7782 23.694C26.7782 24.038 26.7102 24.336 26.5742 24.588C26.4382 24.84 26.2542 25.046 26.0222 25.206C25.7942 25.362 25.5402 25.47 25.2602 25.53V25.674C25.4722 25.714 25.6822 25.784 25.8902 25.884C26.0982 25.98 26.2862 26.112 26.4542 26.28C26.6222 26.448 26.7562 26.652 26.8562 26.892C26.9562 27.132 27.0062 27.414 27.0062 27.738C27.0062 28.202 26.8922 28.618 26.6642 28.986C26.4402 29.35 26.0942 29.636 25.6262 29.844C25.1622 30.052 24.5682 30.156 23.8442 30.156ZM27.9203 30V28.752C28.1403 28.564 28.3583 28.378 28.5743 28.194C28.7943 28.01 29.0143 27.826 29.2343 27.642C29.7463 27.21 30.1863 26.806 30.5543 26.43C30.9223 26.054 31.2043 25.692 31.4003 25.344C31.5963 24.996 31.6943 24.646 31.6943 24.294C31.6943 23.91 31.5863 23.622 31.3703 23.43C31.1543 23.234 30.8283 23.136 30.3923 23.136C30.2043 23.136 30.0103 23.158 29.8103 23.202C29.6143 23.242 29.4163 23.302 29.2163 23.382C29.0163 23.458 28.8163 23.548 28.6163 23.652C28.4203 23.756 28.2283 23.872 28.0403 24L27.8783 22.236C28.0623 22.148 28.2643 22.066 28.4843 21.99C28.7083 21.91 28.9443 21.84 29.1923 21.78C29.4443 21.716 29.7023 21.666 29.9663 21.63C30.2343 21.594 30.5023 21.576 30.7703 21.576C31.3783 21.576 31.8923 21.676 32.3123 21.876C32.7363 22.072 33.0563 22.356 33.2723 22.728C33.4923 23.096 33.6023 23.538 33.6023 24.054C33.6023 24.478 33.5143 24.9 33.3383 25.32C33.1623 25.736 32.8943 26.154 32.5343 26.574C32.1783 26.994 31.7263 27.418 31.1783 27.846L29.9963 28.776L29.7683 28.416H31.2563C31.6643 28.416 32.0723 28.416 32.4803 28.416C32.8883 28.416 33.2943 28.416 33.6983 28.416V30H27.9203ZM36.5163 30C36.7763 29.56 37.0323 29.128 37.2843 28.704C37.5363 28.276 37.8223 27.79 38.1423 27.246L39.9003 24.27C40.1203 23.898 40.3223 23.556 40.5063 23.244C40.6903 22.928 40.8683 22.626 41.0403 22.338C41.2123 22.046 41.3883 21.748 41.5683 21.444H43.1523C42.9763 21.748 42.8023 22.046 42.6303 22.338C42.4583 22.626 42.2783 22.928 42.0903 23.244C41.9063 23.556 41.7043 23.898 41.4843 24.27L39.7263 27.246C39.4063 27.79 39.1203 28.276 38.8683 28.704C38.6163 29.128 38.3603 29.56 38.1003 30H36.5163ZM36.9543 25.644C36.4823 25.644 36.0663 25.556 35.7063 25.38C35.3503 25.204 35.0703 24.952 34.8663 24.624C34.6663 24.296 34.5663 23.906 34.5663 23.454C34.5663 23.038 34.6663 22.666 34.8663 22.338C35.0703 22.01 35.3503 21.75 35.7063 21.558C36.0663 21.366 36.4843 21.27 36.9603 21.27C37.4323 21.27 37.8463 21.366 38.2023 21.558C38.5623 21.75 38.8423 22.01 39.0423 22.338C39.2423 22.666 39.3423 23.038 39.3423 23.454C39.3423 23.906 39.2423 24.296 39.0423 24.624C38.8423 24.952 38.5623 25.204 38.2023 25.38C37.8463 25.556 37.4303 25.644 36.9543 25.644ZM36.9543 24.528C37.2903 24.528 37.5503 24.434 37.7343 24.246C37.9223 24.054 38.0163 23.794 38.0163 23.466C38.0163 23.266 37.9743 23.086 37.8903 22.926C37.8063 22.762 37.6843 22.632 37.5243 22.536C37.3683 22.44 37.1803 22.392 36.9603 22.392C36.6283 22.392 36.3663 22.494 36.1743 22.698C35.9863 22.898 35.8923 23.154 35.8923 23.466C35.8923 23.794 35.9863 24.054 36.1743 24.246C36.3663 24.434 36.6263 24.528 36.9543 24.528ZM42.7203 30.162C42.2443 30.162 41.8263 30.074 41.4663 29.898C41.1103 29.722 40.8323 29.47 40.6323 29.142C40.4323 28.814 40.3323 28.424 40.3323 27.972C40.3323 27.556 40.4323 27.184 40.6323 26.856C40.8323 26.528 41.1123 26.268 41.4723 26.076C41.8323 25.884 42.2483 25.788 42.7203 25.788C43.1963 25.788 43.6123 25.884 43.9683 26.076C44.3283 26.268 44.6083 26.528 44.8083 26.856C45.0083 27.184 45.1083 27.556 45.1083 27.972C45.1083 28.424 45.0083 28.814 44.8083 29.142C44.6083 29.47 44.3283 29.722 43.9683 29.898C43.6083 30.074 43.1923 30.162 42.7203 30.162ZM42.7203 29.04C43.0523 29.04 43.3123 28.946 43.5003 28.758C43.6883 28.57 43.7823 28.312 43.7823 27.984C43.7823 27.78 43.7383 27.598 43.6503 27.438C43.5663 27.278 43.4463 27.15 43.2903 27.054C43.1343 26.958 42.9443 26.91 42.7203 26.91C42.3923 26.91 42.1323 27.012 41.9403 27.216C41.7523 27.416 41.6583 27.672 41.6583 27.984C41.6583 28.312 41.7523 28.57 41.9403 28.758C42.1323 28.946 42.3923 29.04 42.7203 29.04Z" fill="#040E07"/>
<path d="M1.68 77.744C1.87133 77.2727 2.06267 76.7943 2.254 76.309C2.45 75.8237 2.64133 75.3477 2.828 74.881V75.238C2.66 74.7573 2.48733 74.2743 2.31 73.789C2.13733 73.299 1.967 72.8207 1.799 72.354L1.351 71.094C1.17367 70.5947 0.989333 70.0837 0.798 69.561C0.611333 69.0337 0.429333 68.5227 0.252 68.028L2.17 67.972C2.324 68.5087 2.47333 69.0337 2.618 69.547C2.76733 70.0603 2.919 70.5877 3.073 71.129L3.64 73.131H3.801L4.424 71.129C4.58733 70.6063 4.74833 70.0907 4.907 69.582C5.06567 69.0687 5.22667 68.5507 5.39 68.028H7.287C7.14233 68.4013 7.00233 68.763 6.867 69.113C6.73167 69.463 6.58233 69.848 6.419 70.268C6.25567 70.688 6.05967 71.1897 5.831 71.773L5.068 73.733C4.72267 74.6197 4.42867 75.3733 4.186 75.994C3.948 76.6193 3.72867 77.184 3.528 77.688L1.68 77.744ZM8.4362 75C8.4362 74.496 8.4362 74.0083 8.4362 73.537C8.4362 73.0657 8.4362 72.5407 8.4362 71.962V71.262C8.4362 70.814 8.4362 70.4103 8.4362 70.051C8.4362 69.687 8.4362 69.344 8.4362 69.022C8.4362 68.6953 8.4362 68.364 8.4362 68.028H13.3922V69.435C12.9582 69.435 12.5172 69.435 12.0692 69.435C11.6259 69.435 11.1919 69.435 10.7672 69.435H9.1712L10.2142 68.308C10.2142 68.6253 10.2142 68.931 10.2142 69.225C10.2142 69.519 10.2142 69.8293 10.2142 70.156C10.2142 70.4827 10.2142 70.8513 10.2142 71.262V71.962C10.2142 72.5407 10.2142 73.0657 10.2142 73.537C10.2142 74.0083 10.2142 74.496 10.2142 75H8.4362ZM14.4978 75.147C14.3998 75.147 14.2901 75.1423 14.1688 75.133C14.0521 75.1237 13.9378 75.1097 13.8258 75.091C13.7184 75.077 13.6228 75.056 13.5388 75.028L13.6158 73.544C13.6904 73.558 13.7628 73.5697 13.8328 73.579C13.9074 73.5837 13.9658 73.586 14.0078 73.586C14.2364 73.586 14.4184 73.4997 14.5538 73.327C14.6938 73.1543 14.8011 72.9257 14.8758 72.641C14.9504 72.3517 15.0064 72.0343 15.0438 71.689C15.0811 71.339 15.1091 70.989 15.1278 70.639C15.1558 70.191 15.1838 69.7477 15.2118 69.309C15.2444 68.8657 15.2748 68.4387 15.3028 68.028H20.7278C20.7278 68.364 20.7278 68.6953 20.7278 69.022C20.7278 69.344 20.7278 69.687 20.7278 70.051C20.7278 70.4103 20.7278 70.814 20.7278 71.262V71.962C20.7278 72.5407 20.7278 73.0657 20.7278 73.537C20.7278 74.0083 20.7278 74.496 20.7278 75H18.9498C18.9498 74.496 18.9498 74.0083 18.9498 73.537C18.9498 73.0657 18.9498 72.5407 18.9498 71.962V71.262C18.9498 70.8513 18.9498 70.4827 18.9498 70.156C18.9498 69.8293 18.9498 69.519 18.9498 69.225C18.9498 68.931 18.9498 68.6253 18.9498 68.308L20.0068 69.435H16.0238L16.8848 68.308C16.8614 68.616 16.8381 68.9427 16.8148 69.288C16.7914 69.6287 16.7658 69.9693 16.7378 70.31C16.7144 70.646 16.6911 70.9727 16.6678 71.29C16.6258 71.8407 16.5698 72.3517 16.4998 72.823C16.4344 73.2897 16.3294 73.698 16.1848 74.048C16.0401 74.3933 15.8324 74.664 15.5618 74.86C15.2958 75.0513 14.9411 75.147 14.4978 75.147ZM25.9966 75.175C25.1192 75.175 24.4006 75.0163 23.8406 74.699C23.2806 74.3817 22.8676 73.9453 22.6016 73.39C22.3356 72.8347 22.2026 72.2 22.2026 71.486C22.2026 70.7767 22.3286 70.149 22.5806 69.603C22.8372 69.0523 23.2129 68.623 23.7076 68.315C24.2022 68.007 24.8089 67.853 25.5276 67.853C26.1482 67.853 26.6779 67.9673 27.1166 68.196C27.5599 68.42 27.9006 68.7583 28.1386 69.211C28.3766 69.659 28.4956 70.2237 28.4956 70.905C28.4956 71.087 28.4909 71.2503 28.4816 71.395C28.4769 71.5397 28.4629 71.682 28.4396 71.822L26.8926 71.199C26.9019 71.1337 26.9089 71.0683 26.9136 71.003C26.9182 70.933 26.9206 70.8677 26.9206 70.807C26.9206 70.2937 26.7922 69.8923 26.5356 69.603C26.2789 69.309 25.9476 69.162 25.5416 69.162C25.2336 69.162 24.9629 69.2507 24.7296 69.428C24.4962 69.6007 24.3119 69.8433 24.1766 70.156C24.0412 70.4687 23.9736 70.8303 23.9736 71.241V71.514C23.9736 71.9667 24.0529 72.3563 24.2116 72.683C24.3702 73.005 24.6152 73.2547 24.9466 73.432C25.2779 73.6047 25.6956 73.691 26.1996 73.691C26.3956 73.691 26.6149 73.6747 26.8576 73.642C27.1049 73.6047 27.3546 73.5487 27.6066 73.474C27.8586 73.3993 28.0942 73.3037 28.3136 73.187L28.3696 74.713C28.1922 74.8017 27.9846 74.881 27.7466 74.951C27.5086 75.021 27.2426 75.0747 26.9486 75.112C26.6546 75.154 26.3372 75.175 25.9966 75.175ZM22.9026 71.822V70.709L27.3896 70.632L28.4396 71.031V71.822H22.9026ZM29.9284 75C29.9284 74.4913 29.9284 74.0013 29.9284 73.53C29.9284 73.054 29.9284 72.5267 29.9284 71.948V71.248C29.9284 70.8047 29.9284 70.4033 29.9284 70.044C29.9284 69.6847 29.9284 69.344 29.9284 69.022C29.9284 68.6953 29.9284 68.364 29.9284 68.028C30.4044 68.028 30.9621 68.028 31.6014 68.028C32.2454 68.028 32.8731 68.028 33.4844 68.028C34.0864 68.028 34.5647 68.098 34.9194 68.238C35.2741 68.3733 35.5284 68.5647 35.6824 68.812C35.8364 69.0547 35.9134 69.3393 35.9134 69.666C35.9134 70.1047 35.8014 70.4547 35.5774 70.716C35.3534 70.9727 35.0851 71.1477 34.7724 71.241V71.36C34.9917 71.4113 35.1994 71.5 35.3954 71.626C35.5961 71.7473 35.7594 71.9223 35.8854 72.151C36.0161 72.375 36.0814 72.676 36.0814 73.054C36.0814 73.4367 35.9951 73.775 35.8224 74.069C35.6497 74.3583 35.3511 74.587 34.9264 74.755C34.5017 74.9183 33.9044 75 33.1344 75C32.4857 75 31.8907 75 31.3494 75C30.8081 75 30.3344 75 29.9284 75ZM31.6574 73.663H32.9314C33.2674 73.663 33.5334 73.635 33.7294 73.579C33.9301 73.523 34.0747 73.4343 34.1634 73.313C34.2521 73.1917 34.2964 73.04 34.2964 72.858C34.2964 72.578 34.1914 72.3727 33.9814 72.242C33.7714 72.1113 33.4541 72.046 33.0294 72.046H31.1604V70.891H32.9104C33.1997 70.891 33.4307 70.8583 33.6034 70.793C33.7807 70.7277 33.9091 70.6367 33.9884 70.52C34.0677 70.3987 34.1074 70.2563 34.1074 70.093C34.1074 69.8317 34.0164 69.645 33.8344 69.533C33.6571 69.4163 33.3981 69.358 33.0574 69.358H31.6574C31.6574 69.68 31.6574 69.988 31.6574 70.282C31.6574 70.576 31.6574 70.898 31.6574 71.248V71.948C31.6574 72.2653 31.6574 72.5593 31.6574 72.83C31.6574 73.1007 31.6574 73.3783 31.6574 73.663ZM40.8136 75.175C40.1976 75.175 39.6609 75.077 39.2036 74.881C38.7463 74.6803 38.3659 74.4073 38.0626 74.062C37.7593 73.7167 37.5329 73.3223 37.3836 72.879C37.2343 72.4357 37.1596 71.9713 37.1596 71.486C37.1596 70.7907 37.2996 70.17 37.5796 69.624C37.8596 69.0733 38.2679 68.6393 38.8046 68.322C39.3459 68.0047 40.0039 67.846 40.7786 67.846C41.3759 67.846 41.8986 67.9393 42.3466 68.126C42.7993 68.308 43.1773 68.5647 43.4806 68.896C43.7886 69.2273 44.0196 69.6147 44.1736 70.058C44.3276 70.4967 44.4046 70.9727 44.4046 71.486C44.4046 72.186 44.2623 72.8137 43.9776 73.369C43.6976 73.9243 43.2893 74.3653 42.7526 74.692C42.2159 75.014 41.5696 75.175 40.8136 75.175ZM40.8066 73.705C41.2079 73.705 41.5393 73.6 41.8006 73.39C42.0666 73.1753 42.2649 72.9 42.3956 72.564C42.5263 72.228 42.5916 71.8687 42.5916 71.486C42.5916 71.038 42.5169 70.653 42.3676 70.331C42.2229 70.0043 42.0153 69.7547 41.7446 69.582C41.4739 69.4047 41.1589 69.316 40.7996 69.316C40.4029 69.316 40.0669 69.414 39.7916 69.61C39.5209 69.8013 39.3156 70.0603 39.1756 70.387C39.0403 70.7137 38.9726 71.08 38.9726 71.486C38.9726 71.8687 39.0403 72.228 39.1756 72.564C39.3109 72.9 39.5139 73.1753 39.7846 73.39C40.0599 73.6 40.4006 73.705 40.8066 73.705ZM50.3584 74.72C50.3584 74.4213 50.3584 74.1367 50.3584 73.866C50.3584 73.5907 50.3584 73.3013 50.3584 72.998C50.3584 72.69 50.3584 72.3447 50.3584 71.962V71.262C50.3584 70.8467 50.3584 70.4757 50.3584 70.149C50.3584 69.8223 50.3584 69.512 50.3584 69.218C50.3584 68.924 50.3584 68.6207 50.3584 68.308L51.1074 69.428H47.4884L48.2864 68.308C48.2724 68.602 48.2561 68.8913 48.2374 69.176C48.2234 69.4607 48.2094 69.7547 48.1954 70.058C48.1814 70.3567 48.1674 70.681 48.1534 71.031C48.1348 71.4183 48.0928 71.7847 48.0274 72.13C47.9668 72.4753 47.8804 72.795 47.7684 73.089C47.6611 73.383 47.5281 73.6443 47.3694 73.873L45.6754 73.663C45.7968 73.5557 45.9204 73.3923 46.0464 73.173C46.1771 72.949 46.2914 72.641 46.3894 72.249C46.4921 71.857 46.5598 71.3577 46.5924 70.751C46.6251 70.219 46.6531 69.7383 46.6764 69.309C46.7044 68.8797 46.7301 68.4527 46.7534 68.028H52.1084C52.1084 68.364 52.1084 68.6953 52.1084 69.022C52.1084 69.3487 52.1084 69.6917 52.1084 70.051C52.1084 70.4103 52.1084 70.814 52.1084 71.262V71.962C52.1084 72.5407 52.1084 73.0353 52.1084 73.446C52.1084 73.852 52.1084 74.2767 52.1084 74.72H50.3584ZM45.0244 76.897C45.0244 76.631 45.0244 76.365 45.0244 76.099C45.0244 75.833 45.0244 75.567 45.0244 75.301C45.0244 75.0303 45.0244 74.748 45.0244 74.454C45.0244 74.16 45.0244 73.8753 45.0244 73.6C45.4304 73.6 45.8411 73.6 46.2564 73.6C46.6718 73.6 47.0778 73.6 47.4744 73.6H50.7084C51.1004 73.6 51.5041 73.6 51.9194 73.6C52.3348 73.6 52.7478 73.6 53.1584 73.6C53.1584 73.8753 53.1584 74.16 53.1584 74.454C53.1584 74.748 53.1584 75.0303 53.1584 75.301C53.1584 75.567 53.1584 75.833 53.1584 76.099C53.1584 76.365 53.1584 76.631 53.1584 76.897H51.6254L51.5554 74.783L51.8564 75H46.3194L46.6344 74.783L46.5574 76.897H45.0244ZM54.278 75C54.278 74.4913 54.278 74.0037 54.278 73.537C54.278 73.0657 54.278 72.5407 54.278 71.962V71.262C54.278 70.814 54.278 70.4103 54.278 70.051C54.278 69.6917 54.278 69.3487 54.278 69.022C54.278 68.6953 54.278 68.364 54.278 68.028L56.035 67.972C56.035 68.448 56.035 68.91 56.035 69.358C56.035 69.806 56.035 70.2867 56.035 70.8C56.035 71.3227 56.035 71.8103 56.035 72.263C56.035 72.7157 56.035 73.1823 56.035 73.663H57.078C57.358 73.663 57.6123 73.6327 57.841 73.572C58.0697 73.5113 58.2493 73.397 58.38 73.229C58.5153 73.0563 58.583 72.809 58.583 72.487C58.583 72.2537 58.5457 72.067 58.471 71.927C58.3963 71.7823 58.296 71.6727 58.17 71.598C58.0487 71.5233 57.911 71.4743 57.757 71.451C57.6077 71.423 57.456 71.409 57.302 71.409H55.804L55.37 70.072C55.6453 70.072 55.9837 70.072 56.385 70.072C56.7863 70.072 57.162 70.072 57.512 70.072C58.1327 70.072 58.6553 70.1513 59.08 70.31C59.5093 70.4687 59.8337 70.723 60.053 71.073C60.2723 71.423 60.382 71.8873 60.382 72.466C60.382 72.97 60.2887 73.4133 60.102 73.796C59.92 74.174 59.6237 74.4703 59.213 74.685C58.8023 74.895 58.254 75 57.568 75C56.9007 75 56.2893 75 55.734 75C55.1787 75 54.6933 75 54.278 75ZM61.369 75C61.369 74.496 61.369 74.0083 61.369 73.537C61.369 73.0657 61.369 72.5407 61.369 71.962V71.262C61.369 70.814 61.369 70.4103 61.369 70.051C61.369 69.687 61.369 69.344 61.369 69.022C61.369 68.6953 61.369 68.364 61.369 68.028L63.147 67.972C63.147 68.3127 63.147 68.6487 63.147 68.98C63.147 69.3113 63.147 69.6613 63.147 70.03C63.147 70.394 63.147 70.8047 63.147 71.262V71.962C63.147 72.5407 63.147 73.0657 63.147 73.537C63.147 74.0083 63.147 74.496 63.147 75H61.369Z" fill="#FF6A3A"/>
</svg>
