<svg width="64" height="33" viewBox="0 0 64 33" fill="none" xmlns="http://www.w3.org/2000/svg">
<g clip-path="url(#clip0_2601_28061)">
<path d="M0.335938 4.23633C0.335938 2.02719 2.92274 0.236328 6.11372 0.236328H63.8915C67.0825 0.236328 69.6693 2.02719 69.6693 4.23633V28.2363C69.6693 30.4455 67.0825 32.2363 63.8915 32.2363H6.11371C2.92274 32.2363 0.335938 30.4455 0.335938 28.2363V4.23633Z" fill="#E5F4FF"/>
<path d="M49.3105 10.1758H46.7959C46.0357 10.1758 45.4509 10.4097 45.1 11.1699L40.3047 22.1056H43.6965C43.6965 22.1056 44.2813 20.6436 44.3983 20.2927C44.7491 20.2927 48.0825 20.2927 48.5503 20.2927C48.6673 20.7021 48.9597 22.0471 48.9597 22.0471H52.0006L49.3105 10.1758ZM45.3339 17.8366C45.6263 17.1348 46.6205 14.5033 46.6205 14.5033C46.6205 14.5617 46.9129 13.8015 47.0298 13.3922L47.2638 14.4448C47.2638 14.4448 47.907 17.3103 48.024 17.8951H45.3339V17.8366Z" fill="#3362AB"/>
<path d="M40.5404 18.1871C40.5404 20.6433 38.3182 22.2807 34.8679 22.2807C33.4059 22.2807 32.0024 21.9883 31.2422 21.6374L31.71 18.9474L32.1194 19.1228C33.172 19.5906 33.8738 19.7661 35.1603 19.7661C36.096 19.7661 37.0901 19.4152 37.0901 18.5965C37.0901 18.0702 36.6808 17.7193 35.3942 17.1345C34.1662 16.5497 32.5287 15.614 32.5287 13.9181C32.5287 11.5789 34.8094 10 38.0258 10C39.2539 10 40.3065 10.2339 40.9498 10.5263L40.482 13.0994L40.248 12.8655C39.6632 12.6316 38.903 12.3977 37.7919 12.3977C36.5638 12.4561 35.979 12.9825 35.979 13.4503C35.979 13.9766 36.6808 14.386 37.7919 14.9123C39.6632 15.7895 40.5404 16.7836 40.5404 18.1871Z" fill="#3362AB"/>
<path d="M12 10.2925L12.0585 10.0586H17.0877C17.7895 10.0586 18.3158 10.2925 18.4912 11.0527L19.6023 16.3159C18.4912 13.5089 15.9181 11.2282 12 10.2925Z" fill="#F9B50B"/>
<path d="M26.6807 10.1757L21.593 22.047H18.1427L15.2188 12.1055C17.324 13.4505 19.0784 15.5558 19.7217 17.0178L20.0726 18.2458L23.2304 10.1172H26.6807V10.1757Z" fill="#3362AB"/>
<path d="M28.0233 10.1172H31.2397L29.1929 22.047H25.9766L28.0233 10.1172Z" fill="#3362AB"/>
</g>
<defs>
<clipPath id="clip0_2601_28061">
<rect y="0.118164" width="64" height="32" rx="6" fill="white"/>
</clipPath>
</defs>
</svg>
