<svg width="51" height="78" viewBox="0 0 51 78" fill="none" xmlns="http://www.w3.org/2000/svg">
<path d="M25.5 3C28.4547 3 31.3806 3.58198 34.1104 4.71271C36.8402 5.84344 39.3206 7.50078 41.4099 9.5901C43.4992 11.6794 45.1566 14.1598 46.2873 16.8896C47.418 19.6195 48 22.5453 48 25.5C48 28.4547 47.418 31.3806 46.2873 34.1104C45.1566 36.8402 43.4992 39.3206 41.4099 41.4099C39.3206 43.4992 36.8402 45.1566 34.1104 46.2873C31.3805 47.418 28.4547 48 25.5 48C22.5452 48 19.6194 47.418 16.8896 46.2873C14.1598 45.1566 11.6794 43.4992 9.59009 41.4099C7.50077 39.3206 5.84344 36.8402 4.71271 34.1104C3.58198 31.3805 3 28.4547 3 25.5C3 22.5452 3.58198 19.6194 4.71272 16.8896C5.84345 14.1598 7.50079 11.6794 9.59011 9.59009C11.6794 7.50077 14.1598 5.84343 16.8896 4.71271C19.6195 3.58198 22.5453 3 25.5 3L25.5 3Z" stroke="#FDF2D7" stroke-width="5"/>
<path d="M21.5929 3.34183C24.6211 2.80787 27.7267 2.90028 30.7178 3.61336C33.7089 4.32644 36.5221 5.64505 38.9837 7.48778C41.4453 9.33051 43.5031 11.6582 45.03 14.3273C46.5569 16.9963 47.5205 19.95 47.8613 23.006" stroke="#F3C75C" stroke-width="5" stroke-linecap="round" stroke-linejoin="round"/>
<path d="M14.8363 24.708L14.4103 23.274C14.9543 23.01 15.4983 22.748 16.0423 22.488C16.5863 22.224 17.1303 21.96 17.6743 21.696L17.6083 23.346C17.1443 23.574 16.6823 23.802 16.2223 24.03C15.7623 24.254 15.3003 24.48 14.8363 24.708ZM16.7203 30C16.7203 29.572 16.7203 29.158 16.7203 28.758C16.7203 28.354 16.7203 27.904 16.7203 27.408V24.984C16.7203 24.572 16.7203 24.162 16.7203 23.754C16.7203 23.342 16.7203 22.928 16.7203 22.512L17.6743 21.696L18.5683 21.75C18.5683 22.218 18.5683 22.692 18.5683 23.172C18.5683 23.648 18.5683 24.132 18.5683 24.624V27.408C18.5683 27.904 18.5683 28.354 18.5683 28.758C18.5683 29.158 18.5683 29.572 18.5683 30H16.7203ZM22.8901 30.156C22.6101 30.156 22.3341 30.14 22.0621 30.108C21.7941 30.076 21.5361 30.032 21.2881 29.976C21.0401 29.916 20.8101 29.848 20.5981 29.772C20.3861 29.696 20.1961 29.616 20.0281 29.532L20.1661 27.852C20.3821 27.964 20.5981 28.066 20.8141 28.158C21.0341 28.25 21.2521 28.33 21.4681 28.398C21.6881 28.462 21.9021 28.512 22.1101 28.548C22.3181 28.584 22.5201 28.602 22.7161 28.602C23.2281 28.602 23.6021 28.488 23.8381 28.26C24.0741 28.032 24.1921 27.712 24.1921 27.3C24.1921 27.004 24.1301 26.764 24.0061 26.58C23.8861 26.392 23.7141 26.254 23.4901 26.166C23.2701 26.078 23.0121 26.034 22.7161 26.034C22.4761 26.034 22.2361 26.062 21.9961 26.118C21.7601 26.174 21.5221 26.278 21.2821 26.43L20.4901 26.37V24.99C20.4901 24.41 20.4901 23.848 20.4901 23.304C20.4901 22.76 20.4901 22.24 20.4901 21.744H25.6741V23.328C25.2061 23.328 24.7321 23.328 24.2521 23.328C23.7761 23.328 23.3041 23.328 22.8361 23.328H21.6481L22.2001 22.746C22.2001 23.05 22.1961 23.354 22.1881 23.658C22.1841 23.962 22.1781 24.264 22.1701 24.564L22.1641 24.99H22.3081C22.5121 24.89 22.7241 24.814 22.9441 24.762C23.1681 24.71 23.3981 24.684 23.6341 24.684C24.0901 24.684 24.5041 24.78 24.8761 24.972C25.2521 25.164 25.5501 25.454 25.7701 25.842C25.9901 26.226 26.1001 26.704 26.1001 27.276C26.1001 27.848 25.9821 28.35 25.7461 28.782C25.5141 29.214 25.1601 29.552 24.6841 29.796C24.2121 30.036 23.6141 30.156 22.8901 30.156ZM28.8542 30C29.1142 29.56 29.3702 29.128 29.6222 28.704C29.8742 28.276 30.1602 27.79 30.4802 27.246L32.2382 24.27C32.4582 23.898 32.6602 23.556 32.8442 23.244C33.0282 22.928 33.2062 22.626 33.3782 22.338C33.5502 22.046 33.7262 21.748 33.9062 21.444H35.4902C35.3142 21.748 35.1402 22.046 34.9682 22.338C34.7962 22.626 34.6162 22.928 34.4282 23.244C34.2442 23.556 34.0422 23.898 33.8222 24.27L32.0642 27.246C31.7442 27.79 31.4582 28.276 31.2062 28.704C30.9542 29.128 30.6982 29.56 30.4382 30H28.8542ZM29.2922 25.644C28.8202 25.644 28.4042 25.556 28.0442 25.38C27.6882 25.204 27.4082 24.952 27.2042 24.624C27.0042 24.296 26.9042 23.906 26.9042 23.454C26.9042 23.038 27.0042 22.666 27.2042 22.338C27.4082 22.01 27.6882 21.75 28.0442 21.558C28.4042 21.366 28.8222 21.27 29.2982 21.27C29.7702 21.27 30.1842 21.366 30.5402 21.558C30.9002 21.75 31.1802 22.01 31.3802 22.338C31.5802 22.666 31.6802 23.038 31.6802 23.454C31.6802 23.906 31.5802 24.296 31.3802 24.624C31.1802 24.952 30.9002 25.204 30.5402 25.38C30.1842 25.556 29.7682 25.644 29.2922 25.644ZM29.2922 24.528C29.6282 24.528 29.8882 24.434 30.0722 24.246C30.2602 24.054 30.3542 23.794 30.3542 23.466C30.3542 23.266 30.3122 23.086 30.2282 22.926C30.1442 22.762 30.0222 22.632 29.8622 22.536C29.7062 22.44 29.5182 22.392 29.2982 22.392C28.9662 22.392 28.7042 22.494 28.5122 22.698C28.3242 22.898 28.2302 23.154 28.2302 23.466C28.2302 23.794 28.3242 24.054 28.5122 24.246C28.7042 24.434 28.9642 24.528 29.2922 24.528ZM35.0582 30.162C34.5822 30.162 34.1642 30.074 33.8042 29.898C33.4482 29.722 33.1702 29.47 32.9702 29.142C32.7702 28.814 32.6702 28.424 32.6702 27.972C32.6702 27.556 32.7702 27.184 32.9702 26.856C33.1702 26.528 33.4502 26.268 33.8102 26.076C34.1702 25.884 34.5862 25.788 35.0582 25.788C35.5342 25.788 35.9502 25.884 36.3062 26.076C36.6662 26.268 36.9462 26.528 37.1462 26.856C37.3462 27.184 37.4462 27.556 37.4462 27.972C37.4462 28.424 37.3462 28.814 37.1462 29.142C36.9462 29.47 36.6662 29.722 36.3062 29.898C35.9462 30.074 35.5302 30.162 35.0582 30.162ZM35.0582 29.04C35.3902 29.04 35.6502 28.946 35.8382 28.758C36.0262 28.57 36.1202 28.312 36.1202 27.984C36.1202 27.78 36.0762 27.598 35.9882 27.438C35.9042 27.278 35.7842 27.15 35.6282 27.054C35.4722 26.958 35.2822 26.91 35.0582 26.91C34.7302 26.91 34.4702 27.012 34.2782 27.216C34.0902 27.416 33.9962 27.672 33.9962 27.984C33.9962 28.312 34.0902 28.57 34.2782 28.758C34.4702 28.946 34.7302 29.04 35.0582 29.04Z" fill="#040E07"/>
<path d="M6.189 75C6.52033 74.58 6.854 74.16 7.19 73.74C7.526 73.32 7.85733 72.9023 8.184 72.487L9.367 70.933L9.311 71.738L8.331 70.513C7.99967 70.0977 7.66833 69.6847 7.337 69.274C7.01033 68.8633 6.679 68.448 6.343 68.028L8.373 67.972C8.60633 68.2893 8.83733 68.609 9.066 68.931C9.29467 69.2483 9.52567 69.5657 9.759 69.883L10.501 70.905H11.145V72.109H10.522L9.689 73.222C9.46967 73.5207 9.25033 73.817 9.031 74.111C8.81167 74.405 8.59233 74.7013 8.373 75H6.189ZM10.949 75C10.949 74.538 10.949 74.0947 10.949 73.67C10.949 73.2407 10.949 72.7833 10.949 72.298V70.982C10.949 70.4593 10.949 69.96 10.949 69.484C10.949 69.008 10.949 68.5227 10.949 68.028H12.671C12.671 68.5227 12.671 69.008 12.671 69.484C12.671 69.96 12.671 70.4593 12.671 70.982V72.298C12.671 72.7833 12.671 73.2407 12.671 73.67C12.671 74.0947 12.671 74.538 12.671 75H10.949ZM15.24 75C15.0067 74.692 14.7803 74.3933 14.561 74.104C14.3463 73.81 14.1247 73.5137 13.896 73.215L13.07 72.109H12.475V70.905H13.119L13.84 69.89C14.0593 69.582 14.281 69.2717 14.505 68.959C14.729 68.6463 14.9483 68.336 15.163 68.028H17.242C16.9153 68.4433 16.5887 68.8587 16.262 69.274C15.9353 69.6847 15.611 70.0953 15.289 70.506L14.316 71.738L14.225 70.933L15.408 72.48C15.744 72.8953 16.08 73.3153 16.416 73.74C16.7567 74.16 17.095 74.58 17.431 75H15.24ZM18.5241 75C18.5241 74.4913 18.5241 74.0037 18.5241 73.537C18.5241 73.0657 18.5241 72.5407 18.5241 71.962V71.262C18.5241 70.814 18.5241 70.4103 18.5241 70.051C18.5241 69.6917 18.5241 69.3487 18.5241 69.022C18.5241 68.6953 18.5241 68.364 18.5241 68.028L20.2391 67.979C20.2391 68.2917 20.2391 68.602 20.2391 68.91C20.2391 69.218 20.2391 69.5447 20.2391 69.89C20.2391 70.2307 20.2391 70.611 20.2391 71.031V72.571H20.3511L21.5061 70.59C21.7628 70.1607 22.0148 69.7313 22.2621 69.302C22.5141 68.868 22.7614 68.4433 23.0041 68.028H24.8311C24.8311 68.364 24.8311 68.6953 24.8311 69.022C24.8311 69.3487 24.8311 69.6917 24.8311 70.051C24.8311 70.4103 24.8311 70.814 24.8311 71.262V71.962C24.8311 72.5407 24.8311 73.0657 24.8311 73.537C24.8311 74.0037 24.8311 74.4913 24.8311 75H23.1301C23.1301 74.5053 23.1301 74.027 23.1301 73.565C23.1301 73.0983 23.1301 72.5827 23.1301 72.018V70.45H23.0041L21.8701 72.403C21.6181 72.8417 21.3661 73.278 21.1141 73.712C20.8621 74.146 20.6101 74.5753 20.3581 75H18.5241ZM26.6452 77.744C26.6452 77.24 26.6452 76.743 26.6452 76.253C26.6452 75.763 26.6452 75.2287 26.6452 74.65V71.262C26.6452 70.7347 26.6452 70.2003 26.6452 69.659C26.6452 69.1177 26.6452 68.574 26.6452 68.028L28.2342 67.937L28.2832 68.875H28.4372C28.5772 68.6697 28.7475 68.49 28.9482 68.336C29.1535 68.1773 29.3869 68.056 29.6482 67.972C29.9095 67.888 30.1965 67.846 30.5092 67.846C31.1299 67.846 31.6549 68.007 32.0842 68.329C32.5135 68.6463 32.8379 69.0827 33.0572 69.638C33.2765 70.1887 33.3862 70.8093 33.3862 71.5C33.3862 72.1487 33.2835 72.753 33.0782 73.313C32.8729 73.873 32.5579 74.3233 32.1332 74.664C31.7085 75.0047 31.1742 75.175 30.5302 75.175C30.2362 75.175 29.9679 75.1353 29.7252 75.056C29.4872 74.9813 29.2702 74.8717 29.0742 74.727C28.8782 74.5823 28.7009 74.4073 28.5422 74.202H28.4232V74.741C28.4232 75.273 28.4232 75.77 28.4232 76.232C28.4232 76.6987 28.4232 77.184 28.4232 77.688L26.6452 77.744ZM29.8862 73.642C30.2735 73.642 30.5909 73.5417 30.8382 73.341C31.0902 73.1357 31.2745 72.872 31.3912 72.55C31.5079 72.228 31.5662 71.8827 31.5662 71.514C31.5662 71.1267 31.5032 70.7743 31.3772 70.457C31.2559 70.135 31.0692 69.8783 30.8172 69.687C30.5699 69.491 30.2549 69.393 29.8722 69.393C29.6809 69.393 29.4965 69.4233 29.3192 69.484C29.1419 69.54 28.9762 69.624 28.8222 69.736C28.6682 69.8433 28.5352 69.9763 28.4232 70.135V72.746C28.5305 72.928 28.6542 73.0867 28.7942 73.222C28.9342 73.3573 29.0952 73.4623 29.2772 73.537C29.4592 73.607 29.6622 73.642 29.8862 73.642ZM34.862 75C34.862 74.4913 34.862 74.0037 34.862 73.537C34.862 73.0657 34.862 72.5407 34.862 71.962V71.262C34.862 70.814 34.862 70.4103 34.862 70.051C34.862 69.6917 34.862 69.3487 34.862 69.022C34.862 68.6953 34.862 68.364 34.862 68.028L36.619 67.972C36.619 68.448 36.619 68.91 36.619 69.358C36.619 69.806 36.619 70.2867 36.619 70.8C36.619 71.3227 36.619 71.8103 36.619 72.263C36.619 72.7157 36.619 73.1823 36.619 73.663H37.662C37.942 73.663 38.1963 73.6327 38.425 73.572C38.6537 73.5113 38.8333 73.397 38.964 73.229C39.0993 73.0563 39.167 72.809 39.167 72.487C39.167 72.2537 39.1297 72.067 39.055 71.927C38.9803 71.7823 38.88 71.6727 38.754 71.598C38.6327 71.5233 38.495 71.4743 38.341 71.451C38.1917 71.423 38.04 71.409 37.886 71.409H36.388L35.954 70.072C36.2293 70.072 36.5677 70.072 36.969 70.072C37.3703 70.072 37.746 70.072 38.096 70.072C38.7167 70.072 39.2393 70.1513 39.664 70.31C40.0933 70.4687 40.4177 70.723 40.637 71.073C40.8563 71.423 40.966 71.8873 40.966 72.466C40.966 72.97 40.8727 73.4133 40.686 73.796C40.504 74.174 40.2077 74.4703 39.797 74.685C39.3863 74.895 38.838 75 38.152 75C37.4847 75 36.8733 75 36.318 75C35.7627 75 35.2773 75 34.862 75ZM41.953 75C41.953 74.496 41.953 74.0083 41.953 73.537C41.953 73.0657 41.953 72.5407 41.953 71.962V71.262C41.953 70.814 41.953 70.4103 41.953 70.051C41.953 69.687 41.953 69.344 41.953 69.022C41.953 68.6953 41.953 68.364 41.953 68.028L43.731 67.972C43.731 68.3127 43.731 68.6487 43.731 68.98C43.731 69.3113 43.731 69.6613 43.731 70.03C43.731 70.394 43.731 70.8047 43.731 71.262V71.962C43.731 72.5407 43.731 73.0657 43.731 73.537C43.731 74.0083 43.731 74.496 43.731 75H41.953Z" fill="#F3C75C"/>
</svg>
